G04 Layer_Color=65535*
%FSLAX25Y25*%
%MOIN*%
G70*
G01*
G75*
%ADD29C,0.00984*%
%ADD30C,0.00787*%
%ADD31C,0.01000*%
%ADD32C,0.00600*%
G36*
X77409Y-86316D02*
X76033D01*
Y-90527D01*
X75419D01*
Y-86316D01*
X74050D01*
Y-85776D01*
X77409D01*
Y-86316D01*
D02*
G37*
G36*
X90996Y-85702D02*
X91055D01*
X91114Y-85709D01*
X91262Y-85739D01*
X91425Y-85776D01*
X91602Y-85843D01*
X91773Y-85924D01*
X91854Y-85983D01*
X91928Y-86042D01*
X91935Y-86050D01*
X91943Y-86057D01*
X91965Y-86079D01*
X91987Y-86102D01*
X92017Y-86139D01*
X92054Y-86183D01*
X92128Y-86287D01*
X92194Y-86420D01*
X92261Y-86583D01*
X92305Y-86768D01*
X92313Y-86864D01*
X92320Y-86975D01*
Y-86982D01*
Y-86997D01*
Y-87027D01*
Y-87064D01*
X92313Y-87108D01*
X92305Y-87160D01*
X92291Y-87286D01*
X92261Y-87426D01*
X92217Y-87582D01*
X92157Y-87737D01*
X92076Y-87885D01*
Y-87892D01*
X92069Y-87900D01*
X92054Y-87922D01*
X92032Y-87952D01*
X91972Y-88026D01*
X91884Y-88129D01*
X91773Y-88248D01*
X91706Y-88307D01*
X91632Y-88381D01*
X91551Y-88447D01*
X91454Y-88521D01*
X91358Y-88595D01*
X91255Y-88669D01*
X91247Y-88677D01*
X91232Y-88684D01*
X91195Y-88706D01*
X91158Y-88736D01*
X91114Y-88773D01*
X91055Y-88810D01*
X90936Y-88899D01*
X90803Y-88995D01*
X90670Y-89091D01*
X90552Y-89187D01*
X90500Y-89224D01*
X90455Y-89261D01*
X90448Y-89269D01*
X90426Y-89291D01*
X90389Y-89328D01*
X90344Y-89372D01*
X90300Y-89424D01*
X90256Y-89476D01*
X90211Y-89543D01*
X90174Y-89602D01*
Y-89609D01*
X90159Y-89631D01*
X90152Y-89668D01*
X90137Y-89713D01*
X90122Y-89772D01*
X90115Y-89839D01*
X90100Y-89913D01*
Y-89994D01*
X92461D01*
Y-90527D01*
X89471D01*
Y-90297D01*
Y-90290D01*
Y-90275D01*
Y-90260D01*
Y-90231D01*
X89479Y-90149D01*
X89486Y-90053D01*
X89501Y-89942D01*
X89516Y-89824D01*
X89545Y-89705D01*
X89582Y-89594D01*
X89590Y-89580D01*
X89604Y-89543D01*
X89634Y-89491D01*
X89671Y-89417D01*
X89723Y-89335D01*
X89782Y-89239D01*
X89863Y-89143D01*
X89952Y-89039D01*
X89967Y-89025D01*
X90004Y-88988D01*
X90063Y-88936D01*
X90152Y-88854D01*
X90263Y-88758D01*
X90404Y-88647D01*
X90566Y-88521D01*
X90759Y-88381D01*
X90766Y-88373D01*
X90781Y-88366D01*
X90811Y-88344D01*
X90848Y-88314D01*
X90892Y-88277D01*
X90944Y-88240D01*
X91062Y-88144D01*
X91188Y-88040D01*
X91314Y-87922D01*
X91432Y-87804D01*
X91477Y-87752D01*
X91521Y-87693D01*
X91528Y-87678D01*
X91551Y-87641D01*
X91588Y-87582D01*
X91625Y-87500D01*
X91662Y-87397D01*
X91699Y-87286D01*
X91721Y-87160D01*
X91728Y-87019D01*
Y-87012D01*
Y-87004D01*
Y-86953D01*
X91713Y-86886D01*
X91699Y-86797D01*
X91669Y-86701D01*
X91625Y-86605D01*
X91565Y-86509D01*
X91484Y-86420D01*
X91477Y-86412D01*
X91440Y-86383D01*
X91388Y-86346D01*
X91314Y-86309D01*
X91218Y-86264D01*
X91107Y-86235D01*
X90973Y-86205D01*
X90825Y-86198D01*
X90774D01*
X90714Y-86205D01*
X90640Y-86220D01*
X90552Y-86235D01*
X90448Y-86264D01*
X90337Y-86301D01*
X90226Y-86353D01*
X90211Y-86361D01*
X90174Y-86383D01*
X90115Y-86412D01*
X90041Y-86464D01*
X89952Y-86523D01*
X89863Y-86590D01*
X89760Y-86679D01*
X89664Y-86775D01*
Y-86190D01*
X89671Y-86183D01*
X89708Y-86153D01*
X89752Y-86109D01*
X89819Y-86057D01*
X89900Y-85998D01*
X89989Y-85939D01*
X90085Y-85880D01*
X90196Y-85828D01*
X90211Y-85820D01*
X90248Y-85806D01*
X90315Y-85783D01*
X90396Y-85761D01*
X90500Y-85739D01*
X90618Y-85717D01*
X90744Y-85702D01*
X90892Y-85695D01*
X90951D01*
X90996Y-85702D01*
D02*
G37*
G36*
X94762D02*
X94836Y-85709D01*
X94932Y-85732D01*
X95043Y-85769D01*
X95177Y-85820D01*
X95310Y-85902D01*
X95450Y-85998D01*
X95524Y-86057D01*
X95591Y-86131D01*
X95658Y-86205D01*
X95724Y-86287D01*
X95791Y-86383D01*
X95857Y-86486D01*
X95917Y-86597D01*
X95968Y-86723D01*
X96020Y-86856D01*
X96065Y-86997D01*
X96109Y-87160D01*
X96139Y-87323D01*
X96168Y-87508D01*
X96190Y-87700D01*
X96198Y-87907D01*
X96205Y-88129D01*
Y-88144D01*
Y-88181D01*
Y-88248D01*
X96198Y-88329D01*
X96190Y-88425D01*
X96183Y-88544D01*
X96168Y-88669D01*
X96153Y-88810D01*
X96131Y-88958D01*
X96102Y-89106D01*
X96065Y-89261D01*
X96028Y-89417D01*
X95976Y-89565D01*
X95917Y-89713D01*
X95850Y-89846D01*
X95776Y-89972D01*
X95769Y-89979D01*
X95754Y-90001D01*
X95732Y-90031D01*
X95702Y-90068D01*
X95658Y-90120D01*
X95606Y-90172D01*
X95539Y-90231D01*
X95473Y-90283D01*
X95391Y-90342D01*
X95302Y-90401D01*
X95199Y-90453D01*
X95095Y-90505D01*
X94984Y-90542D01*
X94858Y-90571D01*
X94725Y-90593D01*
X94585Y-90601D01*
X94555D01*
X94518Y-90593D01*
X94466D01*
X94407Y-90579D01*
X94333Y-90571D01*
X94259Y-90549D01*
X94170Y-90527D01*
X94081Y-90497D01*
X93993Y-90453D01*
X93896Y-90408D01*
X93808Y-90349D01*
X93711Y-90283D01*
X93623Y-90201D01*
X93541Y-90105D01*
X93460Y-90001D01*
X93452Y-89994D01*
X93445Y-89972D01*
X93423Y-89935D01*
X93401Y-89890D01*
X93371Y-89824D01*
X93334Y-89750D01*
X93297Y-89661D01*
X93267Y-89557D01*
X93230Y-89439D01*
X93193Y-89313D01*
X93156Y-89165D01*
X93127Y-89010D01*
X93105Y-88840D01*
X93082Y-88655D01*
X93075Y-88455D01*
X93068Y-88248D01*
Y-88233D01*
Y-88188D01*
Y-88129D01*
X93075Y-88040D01*
X93082Y-87937D01*
X93090Y-87818D01*
X93105Y-87685D01*
X93119Y-87537D01*
X93142Y-87389D01*
X93171Y-87234D01*
X93245Y-86916D01*
X93290Y-86760D01*
X93349Y-86612D01*
X93408Y-86472D01*
X93482Y-86346D01*
X93489Y-86338D01*
X93504Y-86316D01*
X93526Y-86287D01*
X93563Y-86242D01*
X93608Y-86198D01*
X93660Y-86139D01*
X93719Y-86079D01*
X93793Y-86020D01*
X93874Y-85961D01*
X93963Y-85902D01*
X94067Y-85843D01*
X94170Y-85798D01*
X94289Y-85754D01*
X94414Y-85724D01*
X94555Y-85702D01*
X94696Y-85695D01*
X94733D01*
X94762Y-85702D01*
D02*
G37*
G36*
X73850Y-90527D02*
X73169D01*
X72681Y-89232D01*
X70705D01*
X70246Y-90527D01*
X69565D01*
X71378Y-85776D01*
X72037D01*
X73850Y-90527D01*
D02*
G37*
G36*
X102510D02*
X101911D01*
Y-86464D01*
X101903Y-86472D01*
X101881Y-86486D01*
X101851Y-86516D01*
X101800Y-86553D01*
X101733Y-86605D01*
X101652Y-86657D01*
X101548Y-86716D01*
X101430Y-86782D01*
X101415Y-86790D01*
X101370Y-86812D01*
X101311Y-86842D01*
X101230Y-86879D01*
X101134Y-86916D01*
X101030Y-86960D01*
X100919Y-86997D01*
X100808Y-87027D01*
Y-86435D01*
X100815D01*
X100823Y-86427D01*
X100845Y-86420D01*
X100875Y-86412D01*
X100956Y-86390D01*
X101052Y-86353D01*
X101178Y-86309D01*
X101311Y-86250D01*
X101467Y-86183D01*
X101622Y-86102D01*
X101629D01*
X101644Y-86094D01*
X101666Y-86079D01*
X101696Y-86065D01*
X101770Y-86020D01*
X101866Y-85961D01*
X101970Y-85894D01*
X102081Y-85820D01*
X102184Y-85746D01*
X102281Y-85665D01*
X102510D01*
Y-90527D01*
D02*
G37*
G36*
X99476Y-86301D02*
X97759D01*
X97663Y-87648D01*
X98092Y-87633D01*
X98166D01*
X98218Y-87641D01*
X98277Y-87648D01*
X98351Y-87656D01*
X98433Y-87663D01*
X98521Y-87678D01*
X98714Y-87722D01*
X98914Y-87789D01*
X99010Y-87833D01*
X99106Y-87885D01*
X99195Y-87944D01*
X99276Y-88011D01*
X99284Y-88018D01*
X99298Y-88026D01*
X99313Y-88048D01*
X99343Y-88077D01*
X99380Y-88114D01*
X99417Y-88166D01*
X99454Y-88218D01*
X99498Y-88277D01*
X99535Y-88351D01*
X99572Y-88433D01*
X99609Y-88514D01*
X99646Y-88610D01*
X99676Y-88714D01*
X99691Y-88817D01*
X99705Y-88936D01*
X99713Y-89062D01*
Y-89069D01*
Y-89091D01*
Y-89128D01*
X99705Y-89180D01*
X99698Y-89239D01*
X99691Y-89306D01*
X99676Y-89380D01*
X99654Y-89461D01*
X99602Y-89639D01*
X99565Y-89735D01*
X99513Y-89831D01*
X99461Y-89920D01*
X99402Y-90016D01*
X99328Y-90105D01*
X99247Y-90186D01*
X99239Y-90194D01*
X99224Y-90201D01*
X99202Y-90223D01*
X99165Y-90253D01*
X99113Y-90283D01*
X99062Y-90320D01*
X98995Y-90357D01*
X98921Y-90394D01*
X98840Y-90438D01*
X98743Y-90475D01*
X98640Y-90512D01*
X98529Y-90542D01*
X98410Y-90571D01*
X98285Y-90593D01*
X98151Y-90601D01*
X98011Y-90608D01*
X97900D01*
X97848Y-90601D01*
X97781D01*
X97633Y-90586D01*
X97471Y-90564D01*
X97308Y-90527D01*
X97145Y-90482D01*
X97078Y-90453D01*
X97012Y-90416D01*
Y-89802D01*
X97019D01*
X97034Y-89816D01*
X97056Y-89831D01*
X97093Y-89853D01*
X97138Y-89876D01*
X97189Y-89898D01*
X97315Y-89957D01*
X97463Y-90016D01*
X97633Y-90061D01*
X97811Y-90098D01*
X97996Y-90112D01*
X98040D01*
X98077Y-90105D01*
X98122D01*
X98166Y-90098D01*
X98285Y-90075D01*
X98410Y-90046D01*
X98544Y-89994D01*
X98677Y-89927D01*
X98795Y-89839D01*
X98810Y-89824D01*
X98840Y-89787D01*
X98891Y-89728D01*
X98951Y-89646D01*
X99002Y-89543D01*
X99054Y-89417D01*
X99084Y-89269D01*
X99099Y-89106D01*
Y-89099D01*
Y-89084D01*
Y-89062D01*
X99091Y-89032D01*
X99084Y-88951D01*
X99062Y-88847D01*
X99025Y-88736D01*
X98965Y-88618D01*
X98884Y-88507D01*
X98840Y-88455D01*
X98780Y-88403D01*
X98766Y-88388D01*
X98721Y-88359D01*
X98647Y-88322D01*
X98551Y-88270D01*
X98425Y-88225D01*
X98270Y-88181D01*
X98092Y-88151D01*
X97885Y-88144D01*
X97722D01*
X97619Y-88151D01*
X97493D01*
X97352Y-88159D01*
X97212Y-88174D01*
X97078Y-88188D01*
X97256Y-85776D01*
X99476D01*
Y-86301D01*
D02*
G37*
G36*
X116318Y-86087D02*
X114838D01*
X114653Y-86879D01*
X116052D01*
Y-90061D01*
X115593D01*
Y-87293D01*
X113743D01*
Y-90061D01*
X113284D01*
Y-86879D01*
X114180D01*
X114328Y-86087D01*
X113025D01*
Y-85665D01*
X116318D01*
Y-86087D01*
D02*
G37*
G36*
X111227Y-88618D02*
Y-88625D01*
X111212Y-88655D01*
X111198Y-88706D01*
X111175Y-88766D01*
X111146Y-88847D01*
X111116Y-88936D01*
X111079Y-89039D01*
X111035Y-89150D01*
X110990Y-89269D01*
X110939Y-89395D01*
X110828Y-89654D01*
X110709Y-89920D01*
X110583Y-90172D01*
X110576Y-90164D01*
X110554Y-90157D01*
X110509Y-90135D01*
X110465Y-90105D01*
X110398Y-90075D01*
X110332Y-90038D01*
X110250Y-90001D01*
X110169Y-89964D01*
X110176Y-89957D01*
X110184Y-89935D01*
X110206Y-89905D01*
X110228Y-89853D01*
X110258Y-89794D01*
X110295Y-89728D01*
X110332Y-89646D01*
X110376Y-89550D01*
X110421Y-89446D01*
X110472Y-89335D01*
X110524Y-89217D01*
X110576Y-89084D01*
X110628Y-88943D01*
X110687Y-88795D01*
X110791Y-88484D01*
X111227Y-88618D01*
D02*
G37*
G36*
X83181Y-85702D02*
X83240Y-85709D01*
X83307Y-85724D01*
X83388Y-85739D01*
X83470Y-85761D01*
X83559Y-85791D01*
X83647Y-85828D01*
X83736Y-85872D01*
X83832Y-85931D01*
X83921Y-85991D01*
X84010Y-86065D01*
X84091Y-86153D01*
X84173Y-86250D01*
X84180Y-86257D01*
X84188Y-86272D01*
X84210Y-86309D01*
X84232Y-86353D01*
X84269Y-86412D01*
X84299Y-86479D01*
X84336Y-86568D01*
X84373Y-86657D01*
X84410Y-86768D01*
X84447Y-86886D01*
X84484Y-87019D01*
X84513Y-87167D01*
X84535Y-87323D01*
X84558Y-87493D01*
X84565Y-87678D01*
X84572Y-87870D01*
Y-87885D01*
Y-87929D01*
Y-87996D01*
X84565Y-88085D01*
X84558Y-88196D01*
X84543Y-88329D01*
X84528Y-88470D01*
X84506Y-88618D01*
X84484Y-88780D01*
X84447Y-88951D01*
X84402Y-89113D01*
X84358Y-89284D01*
X84291Y-89446D01*
X84225Y-89609D01*
X84143Y-89757D01*
X84054Y-89898D01*
X84047Y-89905D01*
X84032Y-89927D01*
X84003Y-89964D01*
X83958Y-90009D01*
X83906Y-90061D01*
X83840Y-90120D01*
X83766Y-90186D01*
X83684Y-90246D01*
X83588Y-90312D01*
X83477Y-90379D01*
X83359Y-90438D01*
X83233Y-90490D01*
X83100Y-90534D01*
X82952Y-90571D01*
X82789Y-90593D01*
X82626Y-90601D01*
X82545D01*
X82500Y-90593D01*
X82449D01*
X82330Y-90579D01*
X82197Y-90564D01*
X82056Y-90534D01*
X81908Y-90497D01*
X81775Y-90445D01*
Y-89883D01*
X81783D01*
X81790Y-89890D01*
X81812Y-89905D01*
X81842Y-89920D01*
X81923Y-89957D01*
X82027Y-89994D01*
X82153Y-90038D01*
X82301Y-90075D01*
X82456Y-90105D01*
X82626Y-90112D01*
X82685D01*
X82730Y-90105D01*
X82782Y-90098D01*
X82848Y-90083D01*
X82989Y-90046D01*
X83144Y-89987D01*
X83226Y-89950D01*
X83307Y-89898D01*
X83388Y-89839D01*
X83470Y-89772D01*
X83544Y-89698D01*
X83610Y-89609D01*
X83618Y-89602D01*
X83625Y-89587D01*
X83640Y-89557D01*
X83670Y-89513D01*
X83692Y-89461D01*
X83721Y-89402D01*
X83758Y-89328D01*
X83788Y-89239D01*
X83825Y-89143D01*
X83855Y-89039D01*
X83884Y-88921D01*
X83914Y-88795D01*
X83936Y-88655D01*
X83951Y-88507D01*
X83958Y-88351D01*
X83966Y-88181D01*
X83958D01*
Y-88188D01*
X83943Y-88203D01*
X83921Y-88233D01*
X83899Y-88270D01*
X83862Y-88322D01*
X83818Y-88366D01*
X83766Y-88425D01*
X83707Y-88477D01*
X83640Y-88529D01*
X83559Y-88588D01*
X83477Y-88632D01*
X83381Y-88677D01*
X83270Y-88721D01*
X83159Y-88751D01*
X83033Y-88766D01*
X82900Y-88773D01*
X82841D01*
X82804Y-88766D01*
X82752Y-88758D01*
X82693Y-88751D01*
X82552Y-88721D01*
X82397Y-88677D01*
X82227Y-88603D01*
X82145Y-88551D01*
X82064Y-88499D01*
X81982Y-88440D01*
X81908Y-88366D01*
X81901Y-88359D01*
X81894Y-88344D01*
X81871Y-88322D01*
X81849Y-88292D01*
X81820Y-88248D01*
X81783Y-88203D01*
X81746Y-88144D01*
X81716Y-88077D01*
X81679Y-88003D01*
X81642Y-87922D01*
X81575Y-87737D01*
X81531Y-87530D01*
X81524Y-87411D01*
X81516Y-87293D01*
Y-87286D01*
Y-87263D01*
Y-87226D01*
X81524Y-87175D01*
X81531Y-87115D01*
X81538Y-87049D01*
X81553Y-86967D01*
X81568Y-86886D01*
X81620Y-86701D01*
X81657Y-86612D01*
X81701Y-86509D01*
X81746Y-86420D01*
X81805Y-86324D01*
X81871Y-86235D01*
X81945Y-86146D01*
X81953Y-86139D01*
X81968Y-86124D01*
X81990Y-86102D01*
X82027Y-86072D01*
X82064Y-86042D01*
X82116Y-86005D01*
X82175Y-85961D01*
X82249Y-85917D01*
X82323Y-85880D01*
X82404Y-85835D01*
X82500Y-85798D01*
X82597Y-85761D01*
X82708Y-85739D01*
X82819Y-85717D01*
X82937Y-85702D01*
X83063Y-85695D01*
X83129D01*
X83181Y-85702D01*
D02*
G37*
G36*
X114875Y-88632D02*
Y-88640D01*
Y-88662D01*
Y-88699D01*
Y-88751D01*
X114868Y-88810D01*
Y-88884D01*
X114861Y-88958D01*
X114853Y-89047D01*
X114831Y-89232D01*
X114801Y-89432D01*
X114764Y-89631D01*
X114705Y-89824D01*
X114720Y-89831D01*
X114750Y-89846D01*
X114801Y-89883D01*
X114868Y-89920D01*
X114949Y-89972D01*
X115046Y-90031D01*
X115157Y-90105D01*
X115275Y-90179D01*
X115401Y-90260D01*
X115541Y-90342D01*
X115823Y-90527D01*
X116111Y-90727D01*
X116400Y-90919D01*
X116104Y-91348D01*
X116096Y-91341D01*
X116067Y-91319D01*
X116030Y-91289D01*
X115971Y-91245D01*
X115904Y-91193D01*
X115823Y-91134D01*
X115726Y-91060D01*
X115623Y-90986D01*
X115504Y-90904D01*
X115386Y-90815D01*
X115253Y-90719D01*
X115112Y-90630D01*
X114824Y-90431D01*
X114513Y-90231D01*
X114505Y-90238D01*
X114491Y-90268D01*
X114461Y-90312D01*
X114431Y-90349D01*
X114424Y-90357D01*
X114409Y-90379D01*
X114380Y-90408D01*
X114343Y-90453D01*
X114291Y-90505D01*
X114232Y-90564D01*
X114150Y-90638D01*
X114061Y-90712D01*
X113965Y-90793D01*
X113847Y-90875D01*
X113714Y-90963D01*
X113573Y-91045D01*
X113418Y-91134D01*
X113240Y-91222D01*
X113055Y-91311D01*
X112848Y-91393D01*
X112840Y-91385D01*
X112826Y-91356D01*
X112796Y-91319D01*
X112759Y-91267D01*
X112715Y-91208D01*
X112663Y-91141D01*
X112537Y-90993D01*
X112552Y-90986D01*
X112581Y-90978D01*
X112641Y-90956D01*
X112707Y-90919D01*
X112796Y-90882D01*
X112892Y-90838D01*
X113003Y-90786D01*
X113122Y-90727D01*
X113366Y-90593D01*
X113610Y-90445D01*
X113721Y-90357D01*
X113832Y-90275D01*
X113928Y-90186D01*
X114010Y-90090D01*
X114017Y-90083D01*
X114024Y-90068D01*
X114047Y-90038D01*
X114076Y-90001D01*
X114106Y-89950D01*
X114135Y-89883D01*
X114172Y-89809D01*
X114217Y-89720D01*
X114254Y-89624D01*
X114291Y-89513D01*
X114320Y-89387D01*
X114350Y-89254D01*
X114380Y-89106D01*
X114402Y-88951D01*
X114409Y-88780D01*
X114417Y-88595D01*
Y-87693D01*
X114875D01*
Y-88632D01*
D02*
G37*
G36*
X127093Y-87434D02*
X128898D01*
Y-87870D01*
X127093D01*
Y-91333D01*
X126567D01*
Y-87870D01*
X124777D01*
Y-87434D01*
X126567D01*
Y-85317D01*
X127093D01*
Y-87434D01*
D02*
G37*
G36*
X112100Y-89691D02*
X112108Y-89683D01*
X112115Y-89668D01*
X112137Y-89646D01*
X112167Y-89609D01*
X112197Y-89572D01*
X112234Y-89520D01*
X112278Y-89461D01*
X112330Y-89402D01*
X112426Y-89254D01*
X112537Y-89084D01*
X112648Y-88899D01*
X112752Y-88699D01*
X113181Y-88951D01*
Y-88958D01*
X113173Y-88965D01*
X113159Y-88988D01*
X113136Y-89025D01*
X113114Y-89062D01*
X113092Y-89106D01*
X113018Y-89217D01*
X112922Y-89350D01*
X112811Y-89506D01*
X112678Y-89683D01*
X112522Y-89868D01*
X112345Y-90061D01*
X112152Y-90268D01*
X111930Y-90468D01*
X111693Y-90675D01*
X111434Y-90875D01*
X111153Y-91067D01*
X110850Y-91245D01*
X110524Y-91415D01*
X110517Y-91407D01*
X110502Y-91385D01*
X110480Y-91348D01*
X110443Y-91304D01*
X110398Y-91245D01*
X110339Y-91178D01*
X110280Y-91097D01*
X110206Y-91015D01*
X110221Y-91008D01*
X110250Y-90993D01*
X110310Y-90971D01*
X110376Y-90934D01*
X110465Y-90889D01*
X110569Y-90838D01*
X110687Y-90778D01*
X110813Y-90704D01*
X110939Y-90630D01*
X111079Y-90542D01*
X111220Y-90453D01*
X111368Y-90349D01*
X111656Y-90127D01*
X111790Y-90009D01*
X111923Y-89883D01*
X111656D01*
Y-88114D01*
X112100D01*
Y-89691D01*
D02*
G37*
G36*
X119856Y-89557D02*
X122594D01*
Y-89987D01*
X119856D01*
Y-91363D01*
X119367D01*
Y-89987D01*
X116570D01*
Y-89557D01*
X119367D01*
Y-89017D01*
X119856D01*
Y-89557D01*
D02*
G37*
G36*
X124177Y-90379D02*
X124185Y-90371D01*
X124199Y-90364D01*
X124229Y-90349D01*
X124273Y-90320D01*
X124318Y-90290D01*
X124377Y-90253D01*
X124451Y-90209D01*
X124525Y-90164D01*
X124606Y-90112D01*
X124695Y-90053D01*
X124895Y-89935D01*
X125117Y-89794D01*
X125346Y-89646D01*
Y-89661D01*
Y-89698D01*
X125354Y-89757D01*
X125361Y-89831D01*
Y-89913D01*
X125369Y-90001D01*
X125383Y-90098D01*
X125391Y-90179D01*
X125383Y-90186D01*
X125346Y-90209D01*
X125295Y-90238D01*
X125228Y-90283D01*
X125147Y-90334D01*
X125043Y-90394D01*
X124939Y-90460D01*
X124821Y-90542D01*
X124695Y-90616D01*
X124562Y-90704D01*
X124288Y-90882D01*
X124014Y-91060D01*
X123889Y-91148D01*
X123763Y-91237D01*
X123474Y-90823D01*
X123482Y-90815D01*
X123511Y-90786D01*
X123541Y-90741D01*
X123585Y-90682D01*
X123622Y-90608D01*
X123659Y-90512D01*
X123681Y-90401D01*
X123689Y-90268D01*
Y-87841D01*
X122816D01*
Y-87397D01*
X124177D01*
Y-90379D01*
D02*
G37*
G36*
X68907Y-86235D02*
X66701D01*
Y-87818D01*
X69373D01*
Y-88307D01*
X66701D01*
Y-90408D01*
Y-90416D01*
Y-90423D01*
Y-90445D01*
Y-90475D01*
X66694Y-90549D01*
X66679Y-90638D01*
X66664Y-90734D01*
X66635Y-90838D01*
X66598Y-90926D01*
X66546Y-91008D01*
X66539Y-91015D01*
X66509Y-91045D01*
X66465Y-91074D01*
X66405Y-91119D01*
X66317Y-91156D01*
X66206Y-91193D01*
X66065Y-91215D01*
X65902Y-91230D01*
X64866D01*
Y-91215D01*
X64859Y-91178D01*
X64851Y-91126D01*
X64837Y-91052D01*
X64822Y-90963D01*
X64807Y-90867D01*
X64763Y-90667D01*
X64792D01*
X64829Y-90675D01*
X64874D01*
X64933Y-90682D01*
X64999D01*
X65147Y-90690D01*
X65303Y-90704D01*
X65466Y-90712D01*
X65614Y-90719D01*
X65776D01*
X65821Y-90712D01*
X65880Y-90704D01*
X65998Y-90675D01*
X66050Y-90653D01*
X66095Y-90616D01*
X66102Y-90608D01*
X66109Y-90593D01*
X66124Y-90571D01*
X66139Y-90534D01*
X66154Y-90482D01*
X66169Y-90416D01*
X66183Y-90334D01*
Y-90231D01*
Y-88307D01*
X63327D01*
Y-87818D01*
X66183D01*
Y-86235D01*
X63823D01*
Y-85746D01*
X68907D01*
Y-86235D01*
D02*
G37*
G36*
X79503Y-85702D02*
X79592Y-85717D01*
X79696Y-85732D01*
X79814Y-85761D01*
X79933Y-85806D01*
X80051Y-85857D01*
X80066Y-85865D01*
X80103Y-85887D01*
X80162Y-85924D01*
X80229Y-85968D01*
X80303Y-86035D01*
X80384Y-86109D01*
X80465Y-86198D01*
X80532Y-86294D01*
X80539Y-86309D01*
X80562Y-86338D01*
X80584Y-86398D01*
X80621Y-86472D01*
X80650Y-86560D01*
X80673Y-86671D01*
X80695Y-86782D01*
X80702Y-86908D01*
Y-86923D01*
Y-86960D01*
X80695Y-87019D01*
X80680Y-87101D01*
X80658Y-87189D01*
X80628Y-87286D01*
X80584Y-87397D01*
X80525Y-87500D01*
X80517Y-87515D01*
X80495Y-87545D01*
X80451Y-87596D01*
X80399Y-87656D01*
X80332Y-87730D01*
X80243Y-87804D01*
X80147Y-87878D01*
X80036Y-87952D01*
X80044D01*
X80051Y-87959D01*
X80073Y-87966D01*
X80103Y-87981D01*
X80169Y-88018D01*
X80266Y-88070D01*
X80362Y-88137D01*
X80465Y-88225D01*
X80569Y-88329D01*
X80665Y-88447D01*
Y-88455D01*
X80673Y-88462D01*
X80702Y-88507D01*
X80739Y-88581D01*
X80791Y-88669D01*
X80835Y-88788D01*
X80872Y-88914D01*
X80902Y-89054D01*
X80909Y-89202D01*
Y-89210D01*
Y-89217D01*
Y-89239D01*
Y-89269D01*
X80902Y-89350D01*
X80887Y-89446D01*
X80865Y-89557D01*
X80828Y-89683D01*
X80784Y-89809D01*
X80717Y-89935D01*
X80710Y-89950D01*
X80680Y-89987D01*
X80636Y-90046D01*
X80576Y-90112D01*
X80502Y-90194D01*
X80406Y-90275D01*
X80295Y-90357D01*
X80169Y-90431D01*
X80162D01*
X80155Y-90438D01*
X80132Y-90445D01*
X80110Y-90460D01*
X80036Y-90482D01*
X79940Y-90512D01*
X79822Y-90549D01*
X79681Y-90571D01*
X79533Y-90593D01*
X79370Y-90601D01*
X79296D01*
X79215Y-90593D01*
X79104Y-90579D01*
X78978Y-90556D01*
X78845Y-90527D01*
X78704Y-90490D01*
X78571Y-90431D01*
X78564D01*
X78556Y-90423D01*
X78512Y-90401D01*
X78445Y-90357D01*
X78371Y-90305D01*
X78282Y-90231D01*
X78186Y-90149D01*
X78097Y-90046D01*
X78016Y-89935D01*
Y-89927D01*
X78009Y-89920D01*
X77986Y-89876D01*
X77957Y-89809D01*
X77920Y-89720D01*
X77883Y-89609D01*
X77853Y-89491D01*
X77831Y-89350D01*
X77824Y-89202D01*
Y-89195D01*
Y-89187D01*
Y-89165D01*
X77831Y-89136D01*
X77838Y-89054D01*
X77853Y-88958D01*
X77883Y-88840D01*
X77927Y-88714D01*
X77986Y-88581D01*
X78068Y-88447D01*
Y-88440D01*
X78083Y-88433D01*
X78112Y-88388D01*
X78171Y-88329D01*
X78245Y-88255D01*
X78334Y-88174D01*
X78445Y-88092D01*
X78564Y-88018D01*
X78704Y-87952D01*
X78689Y-87944D01*
X78652Y-87922D01*
X78593Y-87878D01*
X78527Y-87826D01*
X78445Y-87767D01*
X78364Y-87685D01*
X78282Y-87596D01*
X78208Y-87500D01*
X78201Y-87485D01*
X78179Y-87456D01*
X78149Y-87397D01*
X78120Y-87323D01*
X78090Y-87234D01*
X78060Y-87138D01*
X78038Y-87027D01*
X78031Y-86908D01*
Y-86901D01*
Y-86893D01*
Y-86849D01*
X78038Y-86790D01*
X78053Y-86708D01*
X78075Y-86612D01*
X78105Y-86509D01*
X78142Y-86398D01*
X78201Y-86294D01*
X78208Y-86279D01*
X78231Y-86250D01*
X78275Y-86198D01*
X78327Y-86131D01*
X78393Y-86065D01*
X78482Y-85991D01*
X78571Y-85924D01*
X78682Y-85857D01*
X78697Y-85850D01*
X78734Y-85835D01*
X78800Y-85806D01*
X78882Y-85776D01*
X78985Y-85746D01*
X79104Y-85717D01*
X79230Y-85702D01*
X79370Y-85695D01*
X79437D01*
X79503Y-85702D01*
D02*
G37*
G36*
X105707Y-85450D02*
Y-85458D01*
X105699Y-85473D01*
X105685Y-85495D01*
X105677Y-85532D01*
X105655Y-85569D01*
X105633Y-85621D01*
X105588Y-85732D01*
X105529Y-85865D01*
X105470Y-86013D01*
X105329Y-86316D01*
X106558D01*
Y-91200D01*
X106069D01*
Y-90719D01*
X104686D01*
Y-91245D01*
X104197D01*
Y-86316D01*
X104819D01*
Y-86309D01*
X104826Y-86294D01*
X104841Y-86264D01*
X104856Y-86220D01*
X104878Y-86176D01*
X104900Y-86116D01*
X104952Y-85983D01*
X105004Y-85828D01*
X105070Y-85658D01*
X105130Y-85480D01*
X105189Y-85302D01*
X105707Y-85450D01*
D02*
G37*
G36*
X108149Y-85428D02*
Y-85436D01*
X108141Y-85450D01*
X108134Y-85473D01*
X108119Y-85510D01*
X108104Y-85547D01*
X108090Y-85598D01*
X108045Y-85709D01*
X108001Y-85843D01*
X107942Y-85991D01*
X107823Y-86301D01*
X109806D01*
Y-86309D01*
Y-86338D01*
Y-86383D01*
Y-86442D01*
X109799Y-86509D01*
Y-86597D01*
Y-86694D01*
X109792Y-86805D01*
Y-86930D01*
X109784Y-87056D01*
Y-87197D01*
X109777Y-87345D01*
X109769Y-87656D01*
X109762Y-87981D01*
X109755Y-88322D01*
X109740Y-88662D01*
X109732Y-88995D01*
X109725Y-89313D01*
X109718Y-89461D01*
X109710Y-89609D01*
X109703Y-89742D01*
Y-89868D01*
X109695Y-89987D01*
X109688Y-90098D01*
Y-90194D01*
X109681Y-90275D01*
Y-90283D01*
Y-90320D01*
X109673Y-90364D01*
X109658Y-90423D01*
X109644Y-90497D01*
X109614Y-90579D01*
X109584Y-90660D01*
X109540Y-90749D01*
X109481Y-90838D01*
X109414Y-90926D01*
X109333Y-91008D01*
X109237Y-91082D01*
X109118Y-91141D01*
X108992Y-91185D01*
X108837Y-91222D01*
X108667Y-91230D01*
X108393D01*
X108319Y-91222D01*
X108149D01*
X107956Y-91215D01*
X107749Y-91208D01*
X107535Y-91193D01*
Y-91178D01*
X107527Y-91141D01*
X107520Y-91082D01*
X107505Y-91008D01*
X107490Y-90926D01*
X107475Y-90838D01*
X107431Y-90653D01*
X107483D01*
X107512Y-90660D01*
X107557Y-90667D01*
X107609Y-90675D01*
X107675D01*
X107749Y-90682D01*
X107823Y-90690D01*
X108001Y-90704D01*
X108186Y-90719D01*
X108386Y-90727D01*
X108578Y-90734D01*
X108600D01*
X108630Y-90727D01*
X108667D01*
X108756Y-90704D01*
X108859Y-90660D01*
X108918Y-90630D01*
X108970Y-90593D01*
X109022Y-90542D01*
X109066Y-90490D01*
X109103Y-90423D01*
X109140Y-90342D01*
X109163Y-90253D01*
X109177Y-90149D01*
Y-90142D01*
Y-90105D01*
X109185Y-90046D01*
X109192Y-89972D01*
Y-89861D01*
X109200Y-89728D01*
X109207Y-89572D01*
X109214Y-89387D01*
X109222Y-89276D01*
Y-89165D01*
X109229Y-89047D01*
Y-88921D01*
X109237Y-88788D01*
Y-88647D01*
X109244Y-88492D01*
Y-88336D01*
X109251Y-88166D01*
Y-87996D01*
X109259Y-87811D01*
Y-87619D01*
X109266Y-87419D01*
Y-87204D01*
X109274Y-86990D01*
Y-86760D01*
X107631D01*
Y-86768D01*
X107616Y-86790D01*
X107601Y-86819D01*
X107586Y-86856D01*
X107557Y-86908D01*
X107535Y-86967D01*
X107498Y-87041D01*
X107461Y-87115D01*
X107379Y-87278D01*
X107283Y-87448D01*
X107179Y-87626D01*
X107076Y-87804D01*
X107068Y-87796D01*
X107046Y-87781D01*
X107009Y-87759D01*
X106965Y-87737D01*
X106898Y-87700D01*
X106832Y-87663D01*
X106750Y-87626D01*
X106654Y-87582D01*
X106661Y-87574D01*
X106676Y-87537D01*
X106713Y-87485D01*
X106750Y-87419D01*
X106802Y-87330D01*
X106861Y-87219D01*
X106920Y-87093D01*
X106994Y-86953D01*
X107068Y-86797D01*
X107150Y-86620D01*
X107224Y-86435D01*
X107313Y-86235D01*
X107394Y-86020D01*
X107475Y-85791D01*
X107557Y-85554D01*
X107631Y-85302D01*
X108149Y-85428D01*
D02*
G37*
G36*
X117103Y-86664D02*
X117118Y-86671D01*
X117147Y-86694D01*
X117184Y-86723D01*
X117229Y-86760D01*
X117280Y-86805D01*
X117399Y-86908D01*
X117539Y-87027D01*
X117687Y-87152D01*
X117835Y-87286D01*
X117983Y-87426D01*
X117643Y-87767D01*
X117636Y-87759D01*
X117628Y-87752D01*
X117606Y-87730D01*
X117576Y-87700D01*
X117502Y-87626D01*
X117406Y-87522D01*
X117280Y-87404D01*
X117132Y-87263D01*
X116970Y-87115D01*
X116785Y-86960D01*
X117095Y-86657D01*
X117103Y-86664D01*
D02*
G37*
G36*
X118339Y-88270D02*
X118331Y-88277D01*
X118309Y-88292D01*
X118265Y-88314D01*
X118213Y-88344D01*
X118146Y-88381D01*
X118065Y-88425D01*
X117976Y-88484D01*
X117880Y-88536D01*
X117769Y-88603D01*
X117650Y-88669D01*
X117399Y-88817D01*
X117125Y-88980D01*
X116844Y-89143D01*
X116585Y-88736D01*
X116592Y-88729D01*
X116614Y-88721D01*
X116651Y-88706D01*
X116696Y-88677D01*
X116762Y-88647D01*
X116836Y-88610D01*
X116918Y-88566D01*
X117014Y-88521D01*
X117125Y-88462D01*
X117236Y-88403D01*
X117362Y-88329D01*
X117502Y-88255D01*
X117643Y-88181D01*
X117791Y-88092D01*
X118117Y-87907D01*
X118339Y-88270D01*
D02*
G37*
G36*
X121202Y-87907D02*
X121232Y-87922D01*
X121276Y-87944D01*
X121343Y-87981D01*
X121417Y-88026D01*
X121498Y-88077D01*
X121595Y-88129D01*
X121698Y-88188D01*
X121920Y-88322D01*
X122150Y-88462D01*
X122372Y-88610D01*
X122475Y-88677D01*
X122571Y-88743D01*
X122298Y-89143D01*
X122290Y-89136D01*
X122268Y-89121D01*
X122238Y-89099D01*
X122187Y-89062D01*
X122127Y-89017D01*
X122061Y-88965D01*
X121979Y-88906D01*
X121891Y-88847D01*
X121794Y-88780D01*
X121691Y-88706D01*
X121461Y-88551D01*
X121210Y-88396D01*
X120943Y-88233D01*
X121195Y-87900D01*
X121202Y-87907D01*
D02*
G37*
G36*
X122320Y-87004D02*
X122312Y-87012D01*
X122298Y-87019D01*
X122275Y-87041D01*
X122238Y-87071D01*
X122194Y-87108D01*
X122142Y-87152D01*
X122083Y-87197D01*
X122016Y-87249D01*
X121861Y-87367D01*
X121691Y-87493D01*
X121506Y-87626D01*
X121306Y-87767D01*
X120988Y-87441D01*
X120995Y-87434D01*
X121017Y-87426D01*
X121047Y-87404D01*
X121084Y-87374D01*
X121136Y-87337D01*
X121195Y-87300D01*
X121336Y-87197D01*
X121484Y-87086D01*
X121646Y-86953D01*
X121809Y-86812D01*
X121965Y-86671D01*
X122320Y-87004D01*
D02*
G37*
G36*
X112152Y-86316D02*
X113011D01*
Y-86716D01*
X112152D01*
Y-87545D01*
X113092D01*
Y-87966D01*
X110228D01*
Y-87545D01*
X110650D01*
Y-85924D01*
X111079D01*
Y-87545D01*
X111708D01*
Y-85347D01*
X112152D01*
Y-86316D01*
D02*
G37*
G36*
X107579Y-87730D02*
X107601Y-87759D01*
X107638Y-87796D01*
X107683Y-87855D01*
X107742Y-87922D01*
X107808Y-88003D01*
X107882Y-88100D01*
X107964Y-88196D01*
X108134Y-88410D01*
X108312Y-88647D01*
X108489Y-88884D01*
X108652Y-89113D01*
X108201Y-89432D01*
X108193Y-89424D01*
X108178Y-89402D01*
X108156Y-89358D01*
X108127Y-89306D01*
X108082Y-89247D01*
X108030Y-89165D01*
X107979Y-89084D01*
X107912Y-88988D01*
X107838Y-88884D01*
X107764Y-88766D01*
X107594Y-88529D01*
X107401Y-88262D01*
X107194Y-87996D01*
X107572Y-87722D01*
X107579Y-87730D01*
D02*
G37*
G36*
X61847Y-85954D02*
X62883D01*
Y-86353D01*
X61847D01*
Y-88410D01*
X63053D01*
Y-88810D01*
X61433D01*
X61440Y-88817D01*
X61462Y-88840D01*
X61507Y-88877D01*
X61558Y-88921D01*
X61625Y-88980D01*
X61706Y-89047D01*
X61803Y-89121D01*
X61906Y-89195D01*
X62025Y-89284D01*
X62150Y-89365D01*
X62291Y-89454D01*
X62439Y-89535D01*
X62602Y-89624D01*
X62765Y-89698D01*
X62942Y-89779D01*
X63127Y-89846D01*
X63120Y-89853D01*
X63090Y-89890D01*
X63053Y-89935D01*
X63009Y-89994D01*
X62957Y-90068D01*
X62898Y-90142D01*
X62846Y-90216D01*
X62794Y-90290D01*
X62787D01*
X62772Y-90275D01*
X62742Y-90260D01*
X62698Y-90246D01*
X62646Y-90216D01*
X62594Y-90186D01*
X62528Y-90149D01*
X62454Y-90112D01*
X62291Y-90016D01*
X62121Y-89905D01*
X61936Y-89779D01*
X61758Y-89646D01*
Y-89987D01*
X60286D01*
Y-90616D01*
X62691D01*
Y-91015D01*
X57422D01*
Y-90616D01*
X59827D01*
Y-89987D01*
X58339D01*
Y-89654D01*
X58332Y-89661D01*
X58317Y-89668D01*
X58288Y-89691D01*
X58258Y-89720D01*
X58214Y-89757D01*
X58154Y-89802D01*
X58095Y-89846D01*
X58029Y-89898D01*
X57873Y-90009D01*
X57703Y-90127D01*
X57518Y-90246D01*
X57318Y-90364D01*
X57311Y-90357D01*
X57296Y-90334D01*
X57274Y-90297D01*
X57237Y-90253D01*
X57192Y-90194D01*
X57141Y-90127D01*
X57074Y-90053D01*
X57000Y-89972D01*
X57007Y-89964D01*
X57044Y-89950D01*
X57089Y-89927D01*
X57155Y-89890D01*
X57244Y-89846D01*
X57333Y-89787D01*
X57444Y-89728D01*
X57562Y-89654D01*
X57688Y-89572D01*
X57814Y-89483D01*
X57955Y-89387D01*
X58088Y-89291D01*
X58369Y-89062D01*
X58635Y-88810D01*
X57067D01*
Y-88410D01*
X58288D01*
Y-86353D01*
X57259D01*
Y-85954D01*
X58288D01*
Y-85288D01*
X58754D01*
Y-85954D01*
X61388D01*
Y-85288D01*
X61847D01*
Y-85954D01*
D02*
G37*
G36*
X87806Y-85702D02*
X87873D01*
X87947Y-85709D01*
X88036Y-85717D01*
X88213Y-85739D01*
X88398Y-85776D01*
X88583Y-85820D01*
X88761Y-85887D01*
Y-86531D01*
X88753D01*
X88739Y-86516D01*
X88709Y-86501D01*
X88672Y-86486D01*
X88628Y-86464D01*
X88568Y-86442D01*
X88502Y-86420D01*
X88435Y-86390D01*
X88265Y-86338D01*
X88080Y-86294D01*
X87865Y-86264D01*
X87643Y-86250D01*
X87569D01*
X87510Y-86257D01*
X87444Y-86264D01*
X87362Y-86279D01*
X87273Y-86294D01*
X87185Y-86316D01*
X87081Y-86346D01*
X86977Y-86383D01*
X86866Y-86420D01*
X86755Y-86472D01*
X86652Y-86538D01*
X86541Y-86605D01*
X86437Y-86686D01*
X86341Y-86782D01*
X86334Y-86790D01*
X86319Y-86805D01*
X86297Y-86834D01*
X86267Y-86879D01*
X86223Y-86930D01*
X86186Y-86997D01*
X86141Y-87071D01*
X86097Y-87160D01*
X86045Y-87256D01*
X86001Y-87360D01*
X85964Y-87478D01*
X85927Y-87604D01*
X85890Y-87737D01*
X85867Y-87885D01*
X85853Y-88040D01*
X85845Y-88203D01*
Y-88211D01*
Y-88240D01*
Y-88285D01*
X85853Y-88344D01*
X85860Y-88418D01*
X85867Y-88499D01*
X85882Y-88595D01*
X85904Y-88692D01*
X85956Y-88914D01*
X86001Y-89025D01*
X86045Y-89143D01*
X86097Y-89254D01*
X86156Y-89365D01*
X86230Y-89469D01*
X86311Y-89565D01*
X86319Y-89572D01*
X86334Y-89587D01*
X86363Y-89609D01*
X86393Y-89639D01*
X86445Y-89683D01*
X86496Y-89720D01*
X86563Y-89765D01*
X86637Y-89809D01*
X86726Y-89861D01*
X86815Y-89905D01*
X86918Y-89942D01*
X87022Y-89979D01*
X87140Y-90016D01*
X87266Y-90038D01*
X87392Y-90053D01*
X87532Y-90061D01*
X87599D01*
X87651Y-90053D01*
X87710D01*
X87784Y-90046D01*
X87865Y-90031D01*
X87954Y-90024D01*
X88147Y-89979D01*
X88354Y-89927D01*
X88561Y-89846D01*
X88665Y-89802D01*
X88761Y-89742D01*
Y-90334D01*
X88753D01*
X88739Y-90349D01*
X88709Y-90357D01*
X88665Y-90379D01*
X88613Y-90394D01*
X88554Y-90416D01*
X88480Y-90445D01*
X88398Y-90468D01*
X88309Y-90490D01*
X88206Y-90519D01*
X88102Y-90542D01*
X87984Y-90556D01*
X87858Y-90579D01*
X87725Y-90586D01*
X87444Y-90601D01*
X87399D01*
X87347Y-90593D01*
X87273D01*
X87185Y-90579D01*
X87088Y-90564D01*
X86977Y-90549D01*
X86859Y-90519D01*
X86726Y-90482D01*
X86593Y-90445D01*
X86459Y-90394D01*
X86326Y-90327D01*
X86186Y-90253D01*
X86052Y-90172D01*
X85927Y-90068D01*
X85808Y-89957D01*
X85801Y-89950D01*
X85786Y-89927D01*
X85749Y-89890D01*
X85712Y-89839D01*
X85668Y-89772D01*
X85616Y-89698D01*
X85564Y-89602D01*
X85505Y-89498D01*
X85446Y-89387D01*
X85394Y-89254D01*
X85342Y-89113D01*
X85298Y-88958D01*
X85261Y-88795D01*
X85231Y-88625D01*
X85209Y-88433D01*
X85201Y-88240D01*
Y-88225D01*
Y-88188D01*
X85209Y-88129D01*
Y-88048D01*
X85224Y-87952D01*
X85238Y-87841D01*
X85261Y-87715D01*
X85290Y-87582D01*
X85327Y-87434D01*
X85372Y-87286D01*
X85423Y-87130D01*
X85490Y-86982D01*
X85571Y-86827D01*
X85660Y-86679D01*
X85771Y-86531D01*
X85890Y-86398D01*
X85897Y-86390D01*
X85919Y-86368D01*
X85964Y-86331D01*
X86015Y-86287D01*
X86082Y-86235D01*
X86163Y-86176D01*
X86260Y-86109D01*
X86363Y-86042D01*
X86489Y-85983D01*
X86622Y-85917D01*
X86763Y-85857D01*
X86918Y-85806D01*
X87081Y-85761D01*
X87259Y-85724D01*
X87444Y-85702D01*
X87636Y-85695D01*
X87747D01*
X87806Y-85702D01*
D02*
G37*
G36*
X123445Y-85406D02*
X123467Y-85428D01*
X123504Y-85465D01*
X123548Y-85510D01*
X123600Y-85569D01*
X123667Y-85635D01*
X123815Y-85783D01*
X123970Y-85954D01*
X124133Y-86116D01*
X124288Y-86279D01*
X124355Y-86353D01*
X124414Y-86420D01*
X123985Y-86782D01*
X123977Y-86775D01*
X123970Y-86760D01*
X123948Y-86731D01*
X123918Y-86694D01*
X123881Y-86649D01*
X123837Y-86590D01*
X123785Y-86531D01*
X123726Y-86457D01*
X123585Y-86301D01*
X123430Y-86124D01*
X123260Y-85924D01*
X123067Y-85724D01*
X123437Y-85399D01*
X123445Y-85406D01*
D02*
G37*
G36*
X119567Y-85258D02*
X119574Y-85265D01*
X119604Y-85310D01*
X119648Y-85384D01*
X119708Y-85473D01*
X119774Y-85576D01*
X119841Y-85695D01*
X119981Y-85946D01*
X122497D01*
Y-86375D01*
X119426D01*
X119715Y-86531D01*
X119708Y-86538D01*
X119693Y-86553D01*
X119671Y-86583D01*
X119634Y-86612D01*
X119589Y-86657D01*
X119537Y-86708D01*
X119426Y-86819D01*
X119293Y-86953D01*
X119153Y-87086D01*
X119012Y-87219D01*
X118879Y-87337D01*
X119019D01*
X119123Y-87330D01*
X119256D01*
X119412Y-87323D01*
X119589D01*
X119789Y-87315D01*
X119804Y-87300D01*
X119833Y-87271D01*
X119885Y-87226D01*
X119944Y-87160D01*
X120018Y-87078D01*
X120107Y-86997D01*
X120196Y-86901D01*
X120285Y-86797D01*
X120707Y-87041D01*
X120699Y-87049D01*
X120662Y-87086D01*
X120610Y-87130D01*
X120544Y-87197D01*
X120455Y-87278D01*
X120351Y-87367D01*
X120240Y-87471D01*
X120115Y-87582D01*
X119981Y-87700D01*
X119841Y-87818D01*
X119537Y-88077D01*
X119219Y-88322D01*
X119064Y-88447D01*
X118908Y-88558D01*
X118945D01*
X118968Y-88551D01*
X119056D01*
X119116Y-88544D01*
X119197D01*
X119286Y-88536D01*
X119397Y-88529D01*
X119530Y-88521D01*
X119685Y-88514D01*
X119856Y-88507D01*
X120055Y-88499D01*
X120285Y-88484D01*
X120277Y-88477D01*
X120255Y-88447D01*
X120226Y-88403D01*
X120189Y-88351D01*
X120144Y-88292D01*
X120092Y-88225D01*
X119989Y-88085D01*
X120322Y-87870D01*
X120329Y-87878D01*
X120344Y-87892D01*
X120366Y-87922D01*
X120396Y-87959D01*
X120433Y-88003D01*
X120485Y-88055D01*
X120536Y-88114D01*
X120588Y-88188D01*
X120714Y-88344D01*
X120855Y-88514D01*
X120995Y-88706D01*
X121136Y-88906D01*
X120744Y-89150D01*
X120736Y-89143D01*
X120729Y-89121D01*
X120707Y-89091D01*
X120677Y-89047D01*
X120610Y-88951D01*
X120529Y-88832D01*
X120477D01*
X120418Y-88840D01*
X120337D01*
X120233Y-88847D01*
X120122Y-88854D01*
X119989Y-88862D01*
X119856Y-88869D01*
X119700Y-88884D01*
X119545Y-88891D01*
X119227Y-88914D01*
X118901Y-88936D01*
X118746Y-88943D01*
X118598Y-88958D01*
X118575D01*
X118546Y-88965D01*
X118509Y-88973D01*
X118457Y-88980D01*
X118405Y-88988D01*
X118272Y-89017D01*
X118124Y-88595D01*
X118131D01*
X118154Y-88588D01*
X118191Y-88573D01*
X118228Y-88558D01*
X118316Y-88521D01*
X118361Y-88507D01*
X118398Y-88484D01*
X118405Y-88477D01*
X118420Y-88470D01*
X118450Y-88447D01*
X118487Y-88418D01*
X118531Y-88388D01*
X118590Y-88351D01*
X118649Y-88299D01*
X118723Y-88248D01*
X118879Y-88129D01*
X119049Y-87989D01*
X119234Y-87833D01*
X119426Y-87670D01*
X119352D01*
X119271Y-87678D01*
X119160D01*
X119042Y-87685D01*
X118916Y-87693D01*
X118790Y-87707D01*
X118664Y-87715D01*
X118642D01*
X118612Y-87722D01*
X118575Y-87730D01*
X118487Y-87744D01*
X118376Y-87767D01*
X118198Y-87397D01*
X118205D01*
X118220Y-87382D01*
X118250Y-87374D01*
X118287Y-87352D01*
X118383Y-87293D01*
X118479Y-87219D01*
X118487Y-87212D01*
X118501Y-87204D01*
X118524Y-87182D01*
X118553Y-87160D01*
X118627Y-87086D01*
X118731Y-86982D01*
X118849Y-86856D01*
X118982Y-86716D01*
X119116Y-86553D01*
X119249Y-86375D01*
X116651D01*
Y-85946D01*
X119404D01*
X119397Y-85931D01*
X119382Y-85902D01*
X119352Y-85850D01*
X119315Y-85783D01*
X119271Y-85709D01*
X119227Y-85628D01*
X119123Y-85465D01*
X119567Y-85251D01*
Y-85258D01*
D02*
G37*
%LPC*%
G36*
X94659Y-86190D02*
X94651D01*
X94614Y-86198D01*
X94570Y-86205D01*
X94503Y-86220D01*
X94429Y-86250D01*
X94348Y-86294D01*
X94259Y-86361D01*
X94170Y-86442D01*
X94081Y-86553D01*
X94037Y-86612D01*
X93993Y-86686D01*
X93948Y-86760D01*
X93911Y-86849D01*
X93867Y-86945D01*
X93837Y-87049D01*
X93800Y-87160D01*
X93771Y-87278D01*
X93748Y-87411D01*
X93726Y-87552D01*
X93704Y-87700D01*
X93697Y-87863D01*
X93682Y-88033D01*
Y-88218D01*
Y-88225D01*
Y-88240D01*
Y-88262D01*
Y-88299D01*
X93689Y-88344D01*
Y-88396D01*
X93697Y-88514D01*
X93711Y-88655D01*
X93734Y-88817D01*
X93763Y-88988D01*
X93800Y-89165D01*
X93852Y-89343D01*
X93919Y-89513D01*
X93993Y-89676D01*
X94089Y-89816D01*
X94200Y-89935D01*
X94259Y-89987D01*
X94326Y-90031D01*
X94400Y-90068D01*
X94474Y-90090D01*
X94555Y-90105D01*
X94644Y-90112D01*
X94651D01*
X94688Y-90105D01*
X94733Y-90098D01*
X94792Y-90083D01*
X94866Y-90053D01*
X94947Y-90009D01*
X95029Y-89950D01*
X95117Y-89868D01*
X95206Y-89772D01*
X95295Y-89639D01*
X95332Y-89565D01*
X95369Y-89483D01*
X95406Y-89395D01*
X95443Y-89298D01*
X95473Y-89195D01*
X95502Y-89084D01*
X95532Y-88958D01*
X95554Y-88825D01*
X95569Y-88677D01*
X95584Y-88529D01*
X95591Y-88366D01*
Y-88188D01*
Y-88181D01*
Y-88166D01*
Y-88137D01*
Y-88100D01*
Y-88055D01*
X95584Y-88003D01*
X95576Y-87878D01*
X95561Y-87722D01*
X95539Y-87559D01*
X95510Y-87374D01*
X95473Y-87189D01*
X95428Y-87004D01*
X95362Y-86819D01*
X95288Y-86657D01*
X95199Y-86501D01*
X95088Y-86375D01*
X95029Y-86324D01*
X94969Y-86279D01*
X94895Y-86242D01*
X94821Y-86213D01*
X94740Y-86198D01*
X94659Y-86190D01*
D02*
G37*
G36*
X71704Y-86383D02*
X71682D01*
Y-86390D01*
X71674Y-86420D01*
X71667Y-86457D01*
X71659Y-86501D01*
X71637Y-86612D01*
X71622Y-86664D01*
X71608Y-86716D01*
X70897Y-88692D01*
X72496D01*
X71770Y-86716D01*
Y-86708D01*
X71763Y-86694D01*
Y-86671D01*
X71748Y-86634D01*
X71741Y-86590D01*
X71733Y-86531D01*
X71719Y-86464D01*
X71704Y-86383D01*
D02*
G37*
G36*
X83085Y-86190D02*
X82974D01*
X82944Y-86198D01*
X82878Y-86205D01*
X82789Y-86227D01*
X82685Y-86264D01*
X82582Y-86316D01*
X82471Y-86390D01*
X82375Y-86486D01*
X82367Y-86501D01*
X82338Y-86538D01*
X82293Y-86597D01*
X82249Y-86686D01*
X82204Y-86790D01*
X82160Y-86916D01*
X82130Y-87056D01*
X82123Y-87219D01*
Y-87226D01*
Y-87241D01*
Y-87263D01*
X82130Y-87300D01*
X82138Y-87382D01*
X82153Y-87493D01*
X82182Y-87611D01*
X82227Y-87737D01*
X82286Y-87863D01*
X82367Y-87974D01*
X82382Y-87989D01*
X82412Y-88018D01*
X82471Y-88063D01*
X82545Y-88114D01*
X82641Y-88166D01*
X82759Y-88211D01*
X82893Y-88240D01*
X83048Y-88255D01*
X83063D01*
X83115Y-88248D01*
X83181Y-88240D01*
X83270Y-88225D01*
X83366Y-88196D01*
X83470Y-88151D01*
X83581Y-88085D01*
X83677Y-88003D01*
X83692Y-87989D01*
X83721Y-87959D01*
X83758Y-87900D01*
X83810Y-87826D01*
X83855Y-87737D01*
X83899Y-87633D01*
X83929Y-87515D01*
X83936Y-87382D01*
Y-87374D01*
Y-87360D01*
Y-87330D01*
X83929Y-87293D01*
Y-87249D01*
X83921Y-87197D01*
X83906Y-87078D01*
X83869Y-86945D01*
X83825Y-86805D01*
X83766Y-86664D01*
X83677Y-86531D01*
Y-86523D01*
X83662Y-86516D01*
X83633Y-86479D01*
X83573Y-86420D01*
X83499Y-86361D01*
X83403Y-86301D01*
X83292Y-86242D01*
X83159Y-86205D01*
X83085Y-86190D01*
D02*
G37*
G36*
X79370D02*
X79311D01*
X79252Y-86205D01*
X79170Y-86220D01*
X79082Y-86242D01*
X78993Y-86287D01*
X78897Y-86338D01*
X78808Y-86412D01*
X78800Y-86420D01*
X78771Y-86449D01*
X78741Y-86501D01*
X78697Y-86560D01*
X78660Y-86642D01*
X78623Y-86731D01*
X78593Y-86842D01*
X78586Y-86960D01*
Y-86975D01*
X78593Y-87012D01*
X78601Y-87071D01*
X78615Y-87145D01*
X78645Y-87234D01*
X78682Y-87323D01*
X78741Y-87419D01*
X78815Y-87508D01*
X78823Y-87515D01*
X78860Y-87545D01*
X78904Y-87582D01*
X78971Y-87619D01*
X79052Y-87663D01*
X79148Y-87700D01*
X79252Y-87730D01*
X79370Y-87737D01*
X79385D01*
X79422Y-87730D01*
X79489Y-87722D01*
X79563Y-87707D01*
X79651Y-87678D01*
X79740Y-87641D01*
X79836Y-87582D01*
X79925Y-87508D01*
X79933Y-87500D01*
X79962Y-87463D01*
X79999Y-87419D01*
X80044Y-87352D01*
X80088Y-87271D01*
X80125Y-87182D01*
X80155Y-87071D01*
X80162Y-86960D01*
Y-86953D01*
Y-86945D01*
Y-86908D01*
X80147Y-86842D01*
X80132Y-86768D01*
X80103Y-86686D01*
X80066Y-86590D01*
X80007Y-86501D01*
X79933Y-86412D01*
X79925Y-86405D01*
X79896Y-86375D01*
X79844Y-86338D01*
X79777Y-86301D01*
X79696Y-86257D01*
X79600Y-86227D01*
X79496Y-86198D01*
X79370Y-86190D01*
D02*
G37*
G36*
Y-88248D02*
X79333D01*
X79304Y-88255D01*
X79222Y-88262D01*
X79126Y-88277D01*
X79022Y-88314D01*
X78904Y-88359D01*
X78793Y-88425D01*
X78682Y-88514D01*
X78667Y-88529D01*
X78638Y-88558D01*
X78601Y-88618D01*
X78549Y-88692D01*
X78497Y-88788D01*
X78460Y-88899D01*
X78430Y-89032D01*
X78416Y-89173D01*
Y-89180D01*
Y-89195D01*
Y-89217D01*
X78423Y-89247D01*
X78430Y-89321D01*
X78445Y-89417D01*
X78482Y-89528D01*
X78527Y-89646D01*
X78586Y-89757D01*
X78675Y-89861D01*
X78689Y-89868D01*
X78719Y-89898D01*
X78778Y-89942D01*
X78860Y-89987D01*
X78956Y-90031D01*
X79074Y-90075D01*
X79215Y-90105D01*
X79370Y-90112D01*
X79415D01*
X79444Y-90105D01*
X79518Y-90098D01*
X79614Y-90083D01*
X79725Y-90046D01*
X79836Y-90001D01*
X79955Y-89942D01*
X80058Y-89853D01*
X80073Y-89839D01*
X80103Y-89802D01*
X80147Y-89750D01*
X80199Y-89668D01*
X80243Y-89572D01*
X80288Y-89454D01*
X80317Y-89321D01*
X80332Y-89173D01*
Y-89165D01*
Y-89158D01*
Y-89136D01*
X80325Y-89106D01*
X80317Y-89032D01*
X80295Y-88943D01*
X80266Y-88840D01*
X80214Y-88729D01*
X80147Y-88618D01*
X80058Y-88514D01*
X80044Y-88499D01*
X80007Y-88470D01*
X79947Y-88433D01*
X79873Y-88381D01*
X79770Y-88329D01*
X79651Y-88292D01*
X79518Y-88262D01*
X79370Y-88248D01*
D02*
G37*
G36*
X106069Y-88714D02*
X104686D01*
Y-90268D01*
X106069D01*
Y-88714D01*
D02*
G37*
G36*
Y-86782D02*
X104686D01*
Y-88270D01*
X106069D01*
Y-86782D01*
D02*
G37*
G36*
X61388Y-86353D02*
X58754D01*
Y-86782D01*
X61388D01*
Y-86353D01*
D02*
G37*
G36*
Y-87160D02*
X58754D01*
Y-87589D01*
X61388D01*
Y-87160D01*
D02*
G37*
G36*
X60892Y-88810D02*
X59198D01*
X59190Y-88817D01*
X59183Y-88832D01*
X59161Y-88854D01*
X59131Y-88884D01*
X59057Y-88965D01*
X58954Y-89069D01*
X58835Y-89195D01*
X58702Y-89328D01*
X58554Y-89469D01*
X58399Y-89602D01*
X59827D01*
Y-89002D01*
X60286D01*
Y-89602D01*
X61692D01*
X61684Y-89594D01*
X61669Y-89587D01*
X61647Y-89565D01*
X61618Y-89543D01*
X61536Y-89469D01*
X61425Y-89372D01*
X61307Y-89254D01*
X61174Y-89121D01*
X61033Y-88973D01*
X60892Y-88810D01*
D02*
G37*
G36*
X61388Y-87974D02*
X58754D01*
Y-88410D01*
X61388D01*
Y-87974D01*
D02*
G37*
%LPD*%
D29*
X-125831Y48602D02*
G03*
X-125831Y48602I-492J0D01*
G01*
Y17602D02*
G03*
X-125831Y17602I-492J0D01*
G01*
X108169Y52102D02*
G03*
X108169Y52102I-492J0D01*
G01*
Y18102D02*
G03*
X108169Y18102I-492J0D01*
G01*
D30*
X-105954Y48016D02*
G03*
X-123046Y48016I-8546J5984D01*
G01*
X-105954Y17016D02*
G03*
X-123046Y17016I-8546J5984D01*
G01*
X-69732Y-13860D02*
G03*
X-68774Y-27661I4232J-6640D01*
G01*
X-62226D02*
G03*
X-61268Y-13860I-3274J7161D01*
G01*
X128046Y51516D02*
G03*
X110954Y51516I-8546J5984D01*
G01*
X128046Y17516D02*
G03*
X110954Y17516I-8546J5984D01*
G01*
X54276Y-65000D02*
G03*
X54276Y-70000I0J-2500D01*
G01*
X-20643Y-83960D02*
G03*
X-11412Y-84024I4643J3960D01*
G01*
X-11452Y-75976D02*
G03*
X-20682Y-76040I-4588J-4024D01*
G01*
X79000Y-80500D02*
X119000D01*
X79000D02*
Y-70500D01*
X74000D02*
X79000D01*
X74000D02*
Y-60500D01*
X119000D01*
Y-80500D02*
Y-60500D01*
X-29500Y-47500D02*
X-19500D01*
Y-67500D02*
Y-47500D01*
X-29500Y-67500D02*
X-19500D01*
X-29500D02*
Y-47500D01*
X-13500D02*
X-3500D01*
Y-67500D02*
Y-47500D01*
X-13500Y-67500D02*
X-3500D01*
X-13500D02*
Y-47500D01*
X-40000Y-28500D02*
Y-500D01*
X66000Y-28500D02*
Y-500D01*
X-123046Y48016D02*
X-105954D01*
X-123046Y17016D02*
X-105954D01*
X-125000Y-13500D02*
Y-9500D01*
Y-41500D02*
Y-37500D01*
X-121000D02*
Y-13500D01*
X-129000D02*
X-121000D01*
X-129000Y-37500D02*
Y-13500D01*
Y-37500D02*
X-121000D01*
X-111250Y-13500D02*
Y-9500D01*
Y-41500D02*
Y-37500D01*
X-107250D02*
Y-13500D01*
X-115250D02*
X-107250D01*
X-115250Y-37500D02*
Y-13500D01*
Y-37500D02*
X-107250D01*
X-97500Y-13500D02*
Y-9500D01*
Y-41500D02*
Y-37500D01*
X-93500D02*
Y-13500D01*
X-101500D02*
X-93500D01*
X-101500Y-37500D02*
Y-13500D01*
Y-37500D02*
X-93500D01*
X110954Y51516D02*
X128046D01*
X110954Y17516D02*
X128046D01*
X85500Y-12500D02*
Y-8500D01*
Y-40500D02*
Y-36500D01*
X89500D02*
Y-12500D01*
X81500D02*
X89500D01*
X81500Y-36500D02*
Y-12500D01*
Y-36500D02*
X89500D01*
X99500Y-12500D02*
Y-8500D01*
Y-40500D02*
Y-36500D01*
X103500D02*
Y-12500D01*
X95500D02*
X103500D01*
X95500Y-36500D02*
Y-12500D01*
Y-36500D02*
X103500D01*
X113500Y-12500D02*
Y-8500D01*
Y-40500D02*
Y-36500D01*
X117500D02*
Y-12500D01*
X109500D02*
X117500D01*
X109500Y-36500D02*
Y-12500D01*
Y-36500D02*
X117500D01*
X54276Y-65000D02*
Y-57067D01*
Y-77933D02*
Y-70000D01*
X13724Y-77933D02*
Y-57067D01*
X54276D01*
X13724Y-77933D02*
X54276D01*
X-51500Y-69000D02*
X-47500D01*
X-79500D02*
X-75500D01*
Y-73000D02*
X-51500D01*
Y-65000D01*
X-75500D02*
X-51500D01*
X-75500Y-73000D02*
Y-65000D01*
X-76500Y-57500D02*
Y-47500D01*
Y-57500D02*
X-50500D01*
Y-47500D01*
X-76500D02*
X-50500D01*
X-55500Y-57500D02*
Y-47500D01*
X-79500Y-52500D02*
X-76500D01*
X-50500D02*
X-47500D01*
X-93500Y-83500D02*
Y-73500D01*
X-123500Y-83500D02*
X-93500D01*
X-123500D02*
Y-73500D01*
X-93500D01*
D31*
X101319Y15598D02*
Y90402D01*
X-96319Y15598D02*
Y90402D01*
Y15598D02*
X101319D01*
X-96319Y90402D02*
X101319D01*
D32*
X-8501Y-70501D02*
X-9001Y-70001D01*
X-10000D01*
X-10500Y-70501D01*
Y-72500D01*
X-10000Y-73000D01*
X-9001D01*
X-8501Y-72500D01*
X-7501Y-73000D02*
X-6501D01*
X-7001D01*
Y-70001D01*
X-7501Y-70501D01*
X-74001Y-29501D02*
X-74501Y-29001D01*
X-75500D01*
X-76000Y-29501D01*
Y-31500D01*
X-75500Y-32000D01*
X-74501D01*
X-74001Y-31500D01*
X-71002Y-32000D02*
X-73001D01*
X-71002Y-30001D01*
Y-29501D01*
X-71501Y-29001D01*
X-72501D01*
X-73001Y-29501D01*
X-25001Y-70501D02*
X-25501Y-70001D01*
X-26500D01*
X-27000Y-70501D01*
Y-72500D01*
X-26500Y-73000D01*
X-25501D01*
X-25001Y-72500D01*
X-24001Y-70501D02*
X-23501Y-70001D01*
X-22501D01*
X-22002Y-70501D01*
Y-71001D01*
X-22501Y-71500D01*
X-23001D01*
X-22501D01*
X-22002Y-72000D01*
Y-72500D01*
X-22501Y-73000D01*
X-23501D01*
X-24001Y-72500D01*
X-66000Y-59501D02*
Y-62500D01*
X-64500D01*
X-64001Y-62000D01*
Y-60001D01*
X-64500Y-59501D01*
X-66000D01*
X-63001Y-62500D02*
X-62001D01*
X-62501D01*
Y-59501D01*
X-63001Y-60001D01*
X-111000Y81499D02*
Y78500D01*
X-109501D01*
X-109001Y79000D01*
Y80999D01*
X-109501Y81499D01*
X-111000D01*
X-108001Y78500D02*
Y81499D01*
X-106501D01*
X-106002Y80999D01*
Y80000D01*
X-106501Y79500D01*
X-108001D01*
X-105002Y81499D02*
Y80999D01*
X-104002Y80000D01*
X-103003Y80999D01*
Y81499D01*
X-104002Y80000D02*
Y78500D01*
X-102003D02*
X-101003D01*
X-101503D01*
Y81499D01*
X-102003Y80999D01*
X-130500Y-80000D02*
Y-77001D01*
X-129000D01*
X-128501Y-77501D01*
Y-78500D01*
X-129000Y-79000D01*
X-130500D01*
X-127501Y-80000D02*
X-126501D01*
X-127001D01*
Y-77001D01*
X-127501Y-77501D01*
X119999Y11000D02*
Y12999D01*
X119500Y13499D01*
X118500D01*
X118000Y12999D01*
Y11000D01*
X118500Y10500D01*
X119500D01*
X119000Y11500D02*
X119999Y10500D01*
X119500D02*
X119999Y11000D01*
X120999Y10500D02*
X121999D01*
X121499D01*
Y13499D01*
X120999Y12999D01*
X118999Y46000D02*
Y47999D01*
X118500Y48499D01*
X117500D01*
X117000Y47999D01*
Y46000D01*
X117500Y45500D01*
X118500D01*
X118000Y46500D02*
X118999Y45500D01*
X118500D02*
X118999Y46000D01*
X121998Y45500D02*
X119999D01*
X121998Y47499D01*
Y47999D01*
X121499Y48499D01*
X120499D01*
X119999Y47999D01*
X-115501Y42000D02*
Y43999D01*
X-116000Y44499D01*
X-117000D01*
X-117500Y43999D01*
Y42000D01*
X-117000Y41500D01*
X-116000D01*
X-116500Y42500D02*
X-115501Y41500D01*
X-116000D02*
X-115501Y42000D01*
X-114501Y43999D02*
X-114001Y44499D01*
X-113001D01*
X-112502Y43999D01*
Y43499D01*
X-113001Y43000D01*
X-113501D01*
X-113001D01*
X-112502Y42500D01*
Y42000D01*
X-113001Y41500D01*
X-114001D01*
X-114501Y42000D01*
X-115001Y12000D02*
Y13999D01*
X-115500Y14499D01*
X-116500D01*
X-117000Y13999D01*
Y12000D01*
X-116500Y11500D01*
X-115500D01*
X-116000Y12500D02*
X-115001Y11500D01*
X-115500D02*
X-115001Y12000D01*
X-112501Y11500D02*
Y14499D01*
X-114001Y13000D01*
X-112002D01*
X111500Y-53500D02*
Y-50501D01*
X112999D01*
X113499Y-51001D01*
Y-52000D01*
X112999Y-52500D01*
X111500D01*
X112500D02*
X113499Y-53500D01*
X114499D02*
X115499D01*
X114999D01*
Y-50501D01*
X114499Y-51001D01*
X71000Y-78000D02*
Y-75001D01*
X72500D01*
X72999Y-75501D01*
Y-76500D01*
X72500Y-77000D01*
X71000D01*
X72000D02*
X72999Y-78000D01*
X75998D02*
X73999D01*
X75998Y-76001D01*
Y-75501D01*
X75499Y-75001D01*
X74499D01*
X73999Y-75501D01*
X98000Y-54000D02*
Y-51001D01*
X99499D01*
X99999Y-51501D01*
Y-52500D01*
X99499Y-53000D01*
X98000D01*
X99000D02*
X99999Y-54000D01*
X100999Y-51501D02*
X101499Y-51001D01*
X102499D01*
X102998Y-51501D01*
Y-52001D01*
X102499Y-52500D01*
X101999D01*
X102499D01*
X102998Y-53000D01*
Y-53500D01*
X102499Y-54000D01*
X101499D01*
X100999Y-53500D01*
X83500Y-53500D02*
Y-50501D01*
X85000D01*
X85499Y-51001D01*
Y-52000D01*
X85000Y-52500D01*
X83500D01*
X84500D02*
X85499Y-53500D01*
X87999D02*
Y-50501D01*
X86499Y-52000D01*
X88498D01*
X-67000Y-78000D02*
Y-75001D01*
X-65500D01*
X-65001Y-75501D01*
Y-76500D01*
X-65500Y-77000D01*
X-67000D01*
X-66000D02*
X-65001Y-78000D01*
X-62002Y-75001D02*
X-64001D01*
Y-76500D01*
X-63001Y-76001D01*
X-62501D01*
X-62002Y-76500D01*
Y-77500D01*
X-62501Y-78000D01*
X-63501D01*
X-64001Y-77500D01*
X-127500Y-53500D02*
Y-50501D01*
X-126000D01*
X-125501Y-51001D01*
Y-52000D01*
X-126000Y-52500D01*
X-127500D01*
X-126500D02*
X-125501Y-53500D01*
X-122502Y-50501D02*
X-123501Y-51001D01*
X-124501Y-52000D01*
Y-53000D01*
X-124001Y-53500D01*
X-123001D01*
X-122502Y-53000D01*
Y-52500D01*
X-123001Y-52000D01*
X-124501D01*
X-113750Y-53500D02*
Y-50501D01*
X-112250D01*
X-111751Y-51001D01*
Y-52000D01*
X-112250Y-52500D01*
X-113750D01*
X-112750D02*
X-111751Y-53500D01*
X-110751Y-50501D02*
X-108752D01*
Y-51001D01*
X-110751Y-53000D01*
Y-53500D01*
X-100000D02*
Y-50501D01*
X-98501D01*
X-98001Y-51001D01*
Y-52000D01*
X-98501Y-52500D01*
X-100000D01*
X-99000D02*
X-98001Y-53500D01*
X-97001Y-51001D02*
X-96501Y-50501D01*
X-95501D01*
X-95002Y-51001D01*
Y-51501D01*
X-95501Y-52000D01*
X-95002Y-52500D01*
Y-53000D01*
X-95501Y-53500D01*
X-96501D01*
X-97001Y-53000D01*
Y-52500D01*
X-96501Y-52000D01*
X-97001Y-51501D01*
Y-51001D01*
X-96501Y-52000D02*
X-95501D01*
X7000Y-65501D02*
Y-68000D01*
X7500Y-68500D01*
X8500D01*
X8999Y-68000D01*
Y-65501D01*
X9999Y-68500D02*
X10999D01*
X10499D01*
Y-65501D01*
X9999Y-66001D01*
X-48000Y-11627D02*
Y-14126D01*
X-47500Y-14626D01*
X-46501D01*
X-46001Y-14126D01*
Y-11627D01*
X-43002Y-14626D02*
X-45001D01*
X-43002Y-12627D01*
Y-12127D01*
X-43501Y-11627D01*
X-44501D01*
X-45001Y-12127D01*
X-8500Y-84001D02*
Y-84501D01*
X-7500Y-85501D01*
X-6501Y-84501D01*
Y-84001D01*
X-7500Y-85501D02*
Y-87000D01*
X-5501D02*
X-4501D01*
X-5001D01*
Y-84001D01*
X-5501Y-84501D01*
X-27501Y53500D02*
Y56499D01*
X-29000Y55000D01*
X-27001D01*
X-24002Y56499D02*
Y53500D01*
X-25501D01*
X-26001Y54000D01*
Y55000D01*
X-25501Y55499D01*
X-24002D01*
X-23002Y53500D02*
X-22002D01*
X-22502D01*
Y55499D01*
X-23002D01*
X-19503Y52500D02*
X-19003D01*
X-18503Y53000D01*
Y55499D01*
X-20003D01*
X-20503Y55000D01*
Y54000D01*
X-20003Y53500D01*
X-18503D01*
X-17504D02*
X-16504D01*
X-17004D01*
Y55499D01*
X-17504D01*
X-14505Y55999D02*
Y55499D01*
X-15004D01*
X-14005D01*
X-14505D01*
Y54000D01*
X-14005Y53500D01*
X-12505Y53000D02*
X-10506D01*
X-9506Y56499D02*
X-7507D01*
Y55999D01*
X-9506Y54000D01*
Y53500D01*
X-6507D02*
X-5008D01*
X-4508Y54000D01*
X-5008Y54500D01*
X-6007D01*
X-6507Y55000D01*
X-6007Y55499D01*
X-4508D01*
X-2009Y53500D02*
X-3008D01*
X-3508Y54000D01*
Y55000D01*
X-3008Y55499D01*
X-2009D01*
X-1509Y55000D01*
Y54500D01*
X-3508D01*
X490Y52500D02*
X990D01*
X1490Y53000D01*
Y55499D01*
X-9D01*
X-509Y55000D01*
Y54000D01*
X-9Y53500D01*
X1490D01*
X2490D02*
Y55499D01*
X2990D01*
X3489Y55000D01*
Y53500D01*
Y55000D01*
X3989Y55499D01*
X4489Y55000D01*
Y53500D01*
X6988D02*
X5989D01*
X5489Y54000D01*
Y55000D01*
X5989Y55499D01*
X6988D01*
X7488Y55000D01*
Y54500D01*
X5489D01*
X8488Y53500D02*
Y55499D01*
X9987D01*
X10487Y55000D01*
Y53500D01*
X11987Y55999D02*
Y55499D01*
X11487D01*
X12487D01*
X11987D01*
Y54000D01*
X12487Y53500D01*
X13986Y53000D02*
X15985D01*
X18984Y56499D02*
Y53500D01*
X17485D01*
X16985Y54000D01*
Y55000D01*
X17485Y55499D01*
X18984D01*
X19984Y53500D02*
X20984D01*
X20484D01*
Y55499D01*
X19984D01*
X22483Y53500D02*
X23983D01*
X24483Y54000D01*
X23983Y54500D01*
X22983D01*
X22483Y55000D01*
X22983Y55499D01*
X24483D01*
X25482Y52500D02*
Y55499D01*
X26982D01*
X27482Y55000D01*
Y54000D01*
X26982Y53500D01*
X25482D01*
X28481D02*
X29481D01*
X28981D01*
Y56499D01*
X28481D01*
X31480Y55499D02*
X32480D01*
X32980Y55000D01*
Y53500D01*
X31480D01*
X30981Y54000D01*
X31480Y54500D01*
X32980D01*
X33980Y55499D02*
Y54000D01*
X34479Y53500D01*
X35979D01*
Y53000D01*
X35479Y52500D01*
X34979D01*
X35979Y53500D02*
Y55499D01*
M02*
