G04 Layer_Physical_Order=1*
G04 Layer_Color=255*
%FSLAX25Y25*%
%MOIN*%
G70*
G01*
G75*
%ADD10C,0.01200*%
%ADD11C,0.03000*%
%ADD12C,0.06000*%
%ADD13R,0.06000X0.06000*%
%ADD14C,0.04724*%
%ADD15R,0.04724X0.04724*%
%ADD16R,0.04563X0.04563*%
%ADD17C,0.04563*%
%ADD18O,0.03937X0.07874*%
%ADD19O,0.03937X0.07874*%
%ADD20C,0.05512*%
%ADD21R,0.05315X0.05315*%
%ADD22C,0.05315*%
%ADD23R,0.05905X0.05905*%
%ADD24C,0.05905*%
%ADD25C,0.05118*%
%ADD26C,0.05905*%
%ADD27R,0.05905X0.05905*%
%ADD28C,0.05000*%
G36*
X11504Y-43338D02*
X11556Y-43911D01*
X11604Y-44170D01*
X11667Y-44412D01*
X11745Y-44636D01*
X11837Y-44842D01*
X11943Y-45030D01*
X12065Y-45200D01*
X12201Y-45353D01*
X11353Y-46201D01*
X11200Y-46065D01*
X11030Y-45943D01*
X10842Y-45837D01*
X10636Y-45745D01*
X10412Y-45667D01*
X10170Y-45604D01*
X9911Y-45556D01*
X9633Y-45523D01*
X9338Y-45504D01*
X9025Y-45500D01*
X11500Y-43025D01*
X11504Y-43338D01*
D02*
G37*
G36*
X103365Y-42757D02*
X103153Y-42974D01*
X102652Y-43566D01*
X102530Y-43743D01*
X102430Y-43909D01*
X102353Y-44066D01*
X102298Y-44212D01*
X102266Y-44347D01*
X102256Y-44472D01*
X99528Y-41744D01*
X99653Y-41734D01*
X99788Y-41702D01*
X99934Y-41647D01*
X100091Y-41570D01*
X100257Y-41470D01*
X100434Y-41348D01*
X100621Y-41203D01*
X101025Y-40847D01*
X101243Y-40635D01*
X103365Y-42757D01*
D02*
G37*
G36*
X49408Y-31951D02*
X49238Y-32146D01*
X49088Y-32340D01*
X48959Y-32535D01*
X48849Y-32729D01*
X48759Y-32923D01*
X48690Y-33117D01*
X48640Y-33310D01*
X48610Y-33503D01*
X48600Y-33696D01*
X47400D01*
X47390Y-33503D01*
X47360Y-33310D01*
X47310Y-33117D01*
X47240Y-32923D01*
X47151Y-32729D01*
X47041Y-32535D01*
X46911Y-32340D01*
X46762Y-32146D01*
X46592Y-31951D01*
X46403Y-31755D01*
X49597D01*
X49408Y-31951D01*
D02*
G37*
G36*
X102266Y-44653D02*
X102298Y-44789D01*
X102353Y-44934D01*
X102430Y-45090D01*
X102530Y-45257D01*
X102652Y-45434D01*
X102797Y-45621D01*
X103153Y-46025D01*
X103365Y-46243D01*
X101243Y-48365D01*
X101025Y-48153D01*
X100434Y-47652D01*
X100257Y-47530D01*
X100091Y-47430D01*
X99934Y-47353D01*
X99788Y-47298D01*
X99653Y-47266D01*
X99528Y-47256D01*
X102256Y-44528D01*
X102266Y-44653D01*
D02*
G37*
G36*
X-5458Y-60307D02*
X-5590Y-60453D01*
X-5708Y-60616D01*
X-5811Y-60794D01*
X-5900Y-60987D01*
X-5975Y-61196D01*
X-6036Y-61421D01*
X-6083Y-61661D01*
X-6115Y-61918D01*
X-6134Y-62189D01*
X-6138Y-62476D01*
X-8476Y-60138D01*
X-8189Y-60134D01*
X-7918Y-60115D01*
X-7661Y-60083D01*
X-7421Y-60036D01*
X-7196Y-59975D01*
X-6987Y-59900D01*
X-6794Y-59811D01*
X-6616Y-59707D01*
X-6453Y-59590D01*
X-6306Y-59458D01*
X-5458Y-60307D01*
D02*
G37*
G36*
X41957Y-52928D02*
X42013Y-53648D01*
X42066Y-53970D01*
X42134Y-54267D01*
X42219Y-54539D01*
X42321Y-54785D01*
X42438Y-55006D01*
X42572Y-55202D01*
X42721Y-55373D01*
X41873Y-56221D01*
X41702Y-56072D01*
X41506Y-55938D01*
X41285Y-55821D01*
X41039Y-55720D01*
X40767Y-55634D01*
X40470Y-55566D01*
X40148Y-55513D01*
X39801Y-55477D01*
X39029Y-55453D01*
X41953Y-52530D01*
X41957Y-52928D01*
D02*
G37*
G36*
X48606Y-48590D02*
X48624Y-48797D01*
X48654Y-48978D01*
X48696Y-49136D01*
X48750Y-49269D01*
X48816Y-49378D01*
X48894Y-49463D01*
X48984Y-49524D01*
X49086Y-49560D01*
X49200Y-49572D01*
X47757D01*
X46072Y-51257D01*
X46139Y-51165D01*
X46172Y-51056D01*
X46170Y-50929D01*
X46135Y-50785D01*
X46066Y-50624D01*
X45963Y-50446D01*
X45826Y-50250D01*
X45655Y-50037D01*
X45212Y-49560D01*
X46060Y-48712D01*
X46307Y-48950D01*
X46750Y-49326D01*
X46946Y-49463D01*
X47032Y-49513D01*
X47106Y-49463D01*
X47184Y-49378D01*
X47250Y-49269D01*
X47304Y-49136D01*
X47346Y-48978D01*
X47376Y-48797D01*
X47394Y-48590D01*
X47400Y-48360D01*
X48600D01*
X48606Y-48590D01*
D02*
G37*
G36*
X-34257Y-31543D02*
X-34269Y-31429D01*
X-34305Y-31327D01*
X-34366Y-31237D01*
X-34450Y-31159D01*
X-34560Y-31093D01*
X-34693Y-31039D01*
X-34850Y-30997D01*
X-35032Y-30967D01*
X-35238Y-30949D01*
X-35469Y-30943D01*
Y-29743D01*
X-35238Y-29737D01*
X-35032Y-29719D01*
X-34850Y-29689D01*
X-34693Y-29647D01*
X-34560Y-29593D01*
X-34450Y-29527D01*
X-34366Y-29449D01*
X-34305Y-29359D01*
X-34269Y-29257D01*
X-34257Y-29143D01*
Y-31543D01*
D02*
G37*
G36*
X50949Y-28026D02*
X50819Y-28169D01*
X50704Y-28327D01*
X50603Y-28499D01*
X50515Y-28685D01*
X50441Y-28886D01*
X50381Y-29101D01*
X50336Y-29330D01*
X50304Y-29573D01*
X50286Y-29831D01*
X50281Y-30103D01*
X48023Y-27845D01*
X48295Y-27841D01*
X48553Y-27822D01*
X48796Y-27790D01*
X49025Y-27744D01*
X49240Y-27685D01*
X49441Y-27611D01*
X49627Y-27523D01*
X49799Y-27422D01*
X49957Y-27307D01*
X50100Y-27177D01*
X50949Y-28026D01*
D02*
G37*
G36*
X-68145Y-13302D02*
X-68174Y-13084D01*
X-68265Y-12890D01*
X-68414Y-12718D01*
X-68625Y-12569D01*
X-68894Y-12444D01*
X-69225Y-12341D01*
X-69614Y-12260D01*
X-70065Y-12203D01*
X-70574Y-12169D01*
X-71144Y-12157D01*
Y-9157D01*
X-70574Y-9146D01*
X-69614Y-9054D01*
X-69225Y-8974D01*
X-68894Y-8871D01*
X-68625Y-8745D01*
X-68414Y-8597D01*
X-68265Y-8425D01*
X-68174Y-8230D01*
X-68145Y-8013D01*
Y-13302D01*
D02*
G37*
G36*
X-63357Y-28722D02*
X-62878Y-29125D01*
X-62644Y-29289D01*
X-62413Y-29427D01*
X-62186Y-29541D01*
X-61963Y-29629D01*
X-61744Y-29692D01*
X-61528Y-29730D01*
X-61317Y-29743D01*
Y-30943D01*
X-61528Y-30955D01*
X-61744Y-30993D01*
X-61963Y-31056D01*
X-62186Y-31144D01*
X-62413Y-31258D01*
X-62644Y-31396D01*
X-62878Y-31560D01*
X-63116Y-31749D01*
X-63357Y-31963D01*
X-63602Y-32203D01*
Y-28482D01*
X-63357Y-28722D01*
D02*
G37*
G36*
X-2023Y-32407D02*
X-2295Y-32412D01*
X-2553Y-32430D01*
X-2796Y-32462D01*
X-3025Y-32508D01*
X-3240Y-32567D01*
X-3441Y-32641D01*
X-3627Y-32728D01*
X-3799Y-32830D01*
X-3957Y-32945D01*
X-4100Y-33075D01*
X-4949Y-32226D01*
X-4819Y-32083D01*
X-4704Y-31925D01*
X-4603Y-31753D01*
X-4515Y-31567D01*
X-4441Y-31366D01*
X-4382Y-31151D01*
X-4336Y-30922D01*
X-4304Y-30679D01*
X-4285Y-30421D01*
X-4281Y-30149D01*
X-2023Y-32407D01*
D02*
G37*
G36*
X7977D02*
X7705Y-32412D01*
X7447Y-32430D01*
X7204Y-32462D01*
X6975Y-32508D01*
X6760Y-32567D01*
X6559Y-32641D01*
X6373Y-32728D01*
X6201Y-32830D01*
X6043Y-32945D01*
X5900Y-33075D01*
X5051Y-32226D01*
X5181Y-32083D01*
X5296Y-31925D01*
X5398Y-31753D01*
X5485Y-31567D01*
X5559Y-31366D01*
X5618Y-31151D01*
X5664Y-30922D01*
X5696Y-30679D01*
X5714Y-30421D01*
X5719Y-30149D01*
X7977Y-32407D01*
D02*
G37*
G36*
X-67398Y-32203D02*
X-67643Y-31963D01*
X-68122Y-31560D01*
X-68356Y-31396D01*
X-68587Y-31258D01*
X-68814Y-31144D01*
X-69037Y-31056D01*
X-69256Y-30993D01*
X-69472Y-30955D01*
X-69683Y-30943D01*
Y-29743D01*
X-69472Y-29730D01*
X-69256Y-29692D01*
X-69037Y-29629D01*
X-68814Y-29541D01*
X-68587Y-29427D01*
X-68356Y-29289D01*
X-68122Y-29125D01*
X-67884Y-28936D01*
X-67643Y-28722D01*
X-67398Y-28482D01*
Y-32203D01*
D02*
G37*
G36*
X-7900Y-76865D02*
X-7895Y-77040D01*
X-7859Y-77435D01*
X-7826Y-77655D01*
X-7675Y-78404D01*
X-7440Y-79286D01*
X-10400Y-77491D01*
X-10153Y-77429D01*
X-9932Y-77349D01*
X-9737Y-77250D01*
X-9568Y-77133D01*
X-9425Y-76996D01*
X-9308Y-76841D01*
X-9217Y-76667D01*
X-9152Y-76474D01*
X-9113Y-76263D01*
X-9100Y-76033D01*
X-7900Y-76865D01*
D02*
G37*
G36*
X-23955Y-77294D02*
X-23728Y-77478D01*
X-23622Y-77548D01*
X-23521Y-77601D01*
X-23426Y-77640D01*
X-23334Y-77663D01*
X-23248Y-77671D01*
X-23167Y-77663D01*
X-23091Y-77640D01*
X-24463Y-79012D01*
X-24440Y-78935D01*
X-24432Y-78854D01*
X-24440Y-78768D01*
X-24463Y-78677D01*
X-24501Y-78581D01*
X-24555Y-78480D01*
X-24624Y-78374D01*
X-24709Y-78263D01*
X-24809Y-78147D01*
X-24924Y-78027D01*
X-24076Y-77178D01*
X-23955Y-77294D01*
D02*
G37*
G36*
X-116994Y-74504D02*
X-116949Y-75077D01*
X-116909Y-75330D01*
X-116858Y-75562D01*
X-116796Y-75772D01*
X-116722Y-75959D01*
X-116637Y-76125D01*
X-116541Y-76269D01*
X-116433Y-76391D01*
X-120567D01*
X-120459Y-76269D01*
X-120363Y-76125D01*
X-120278Y-75959D01*
X-120204Y-75772D01*
X-120142Y-75562D01*
X-120091Y-75330D01*
X-120051Y-75077D01*
X-120023Y-74801D01*
X-120000Y-74185D01*
X-117000D01*
X-116994Y-74504D01*
D02*
G37*
G36*
X-95560Y-77414D02*
X-95524Y-77516D01*
X-95463Y-77606D01*
X-95378Y-77684D01*
X-95269Y-77750D01*
X-95136Y-77804D01*
X-94978Y-77846D01*
X-94797Y-77876D01*
X-94591Y-77894D01*
X-94360Y-77900D01*
Y-79100D01*
X-94591Y-79106D01*
X-94797Y-79124D01*
X-94978Y-79154D01*
X-95136Y-79196D01*
X-95269Y-79250D01*
X-95378Y-79316D01*
X-95463Y-79394D01*
X-95524Y-79484D01*
X-95560Y-79586D01*
X-95572Y-79700D01*
Y-77300D01*
X-95560Y-77414D01*
D02*
G37*
G36*
X48970Y-85453D02*
X48808Y-85463D01*
X48638Y-85496D01*
X48461Y-85554D01*
X48276Y-85634D01*
X48083Y-85738D01*
X47883Y-85866D01*
X47676Y-86017D01*
X47461Y-86192D01*
X47010Y-86612D01*
X44888Y-84491D01*
X45110Y-84261D01*
X45483Y-83824D01*
X45634Y-83617D01*
X45762Y-83417D01*
X45866Y-83224D01*
X45946Y-83039D01*
X46004Y-82862D01*
X46037Y-82692D01*
X46047Y-82529D01*
X48970Y-85453D01*
D02*
G37*
G36*
X51231Y-80541D02*
X51375Y-80637D01*
X51541Y-80722D01*
X51728Y-80796D01*
X51938Y-80858D01*
X52170Y-80909D01*
X52423Y-80949D01*
X52699Y-80977D01*
X53315Y-81000D01*
Y-84000D01*
X52996Y-84006D01*
X52423Y-84051D01*
X52170Y-84091D01*
X51938Y-84142D01*
X51728Y-84204D01*
X51541Y-84278D01*
X51375Y-84363D01*
X51231Y-84459D01*
X51109Y-84567D01*
Y-80433D01*
X51231Y-80541D01*
D02*
G37*
G36*
X-115537Y-78692D02*
X-115504Y-78862D01*
X-115446Y-79039D01*
X-115366Y-79224D01*
X-115262Y-79417D01*
X-115134Y-79616D01*
X-114983Y-79824D01*
X-114808Y-80039D01*
X-114388Y-80490D01*
X-116509Y-82612D01*
X-116739Y-82390D01*
X-117176Y-82017D01*
X-117384Y-81866D01*
X-117583Y-81739D01*
X-117776Y-81634D01*
X-117961Y-81554D01*
X-118138Y-81496D01*
X-118308Y-81463D01*
X-118471Y-81453D01*
X-115547Y-78530D01*
X-115537Y-78692D01*
D02*
G37*
G36*
X-23047Y-64393D02*
X-23226Y-64598D01*
X-23384Y-64802D01*
X-23521Y-65005D01*
X-23637Y-65207D01*
X-23731Y-65408D01*
X-23805Y-65608D01*
X-23858Y-65807D01*
X-23889Y-66005D01*
X-23900Y-66202D01*
X-25100D01*
X-25111Y-66005D01*
X-25142Y-65807D01*
X-25195Y-65608D01*
X-25269Y-65408D01*
X-25363Y-65207D01*
X-25479Y-65005D01*
X-25616Y-64802D01*
X-25774Y-64598D01*
X-25953Y-64393D01*
X-26153Y-64187D01*
X-22847D01*
X-23047Y-64393D01*
D02*
G37*
G36*
X-7047D02*
X-7226Y-64598D01*
X-7384Y-64802D01*
X-7521Y-65005D01*
X-7637Y-65207D01*
X-7731Y-65408D01*
X-7805Y-65608D01*
X-7858Y-65807D01*
X-7890Y-66005D01*
X-7900Y-66202D01*
X-9100D01*
X-9110Y-66005D01*
X-9142Y-65807D01*
X-9195Y-65608D01*
X-9269Y-65408D01*
X-9363Y-65207D01*
X-9479Y-65005D01*
X-9616Y-64802D01*
X-9774Y-64598D01*
X-9953Y-64393D01*
X-10153Y-64187D01*
X-6847D01*
X-7047Y-64393D01*
D02*
G37*
G36*
X-21458Y-60307D02*
X-21590Y-60453D01*
X-21708Y-60616D01*
X-21811Y-60794D01*
X-21900Y-60987D01*
X-21975Y-61196D01*
X-22036Y-61421D01*
X-22083Y-61661D01*
X-22115Y-61918D01*
X-22134Y-62189D01*
X-22138Y-62476D01*
X-24476Y-60138D01*
X-24189Y-60134D01*
X-23918Y-60115D01*
X-23662Y-60083D01*
X-23421Y-60036D01*
X-23196Y-59975D01*
X-22987Y-59900D01*
X-22794Y-59811D01*
X-22616Y-59707D01*
X-22453Y-59590D01*
X-22307Y-59458D01*
X-21458Y-60307D01*
D02*
G37*
G36*
X110509Y-65721D02*
X110576Y-66681D01*
X110636Y-67071D01*
X110712Y-67401D01*
X110806Y-67671D01*
X110916Y-67881D01*
X111044Y-68031D01*
X111188Y-68121D01*
X111349Y-68151D01*
X106651D01*
X106812Y-68121D01*
X106957Y-68031D01*
X107084Y-67881D01*
X107194Y-67671D01*
X107288Y-67401D01*
X107364Y-67071D01*
X107424Y-66681D01*
X107466Y-66231D01*
X107500Y-65151D01*
X110500D01*
X110509Y-65721D01*
D02*
G37*
G36*
X110893Y-72849D02*
X110660Y-72680D01*
X110384Y-72595D01*
X110066D01*
X109705Y-72680D01*
X109302Y-72849D01*
X108857Y-73104D01*
X108369Y-73443D01*
X107839Y-73867D01*
X106651Y-74971D01*
X104530Y-72849D01*
X105123Y-72234D01*
X106057Y-71131D01*
X106396Y-70643D01*
X106651Y-70198D01*
X106820Y-69794D01*
X106905Y-69434D01*
Y-69116D01*
X106820Y-68840D01*
X106651Y-68607D01*
X110893Y-72849D01*
D02*
G37*
G36*
X-83528Y-71756D02*
X-83889Y-71760D01*
X-84545Y-71815D01*
X-84840Y-71865D01*
X-85113Y-71931D01*
X-85364Y-72013D01*
X-85593Y-72110D01*
X-85799Y-72223D01*
X-85984Y-72352D01*
X-86147Y-72496D01*
X-86996Y-71647D01*
X-86852Y-71484D01*
X-86723Y-71299D01*
X-86610Y-71093D01*
X-86513Y-70864D01*
X-86431Y-70613D01*
X-86365Y-70340D01*
X-86314Y-70045D01*
X-86279Y-69728D01*
X-86260Y-69389D01*
X-86256Y-69028D01*
X-83528Y-71756D01*
D02*
G37*
G36*
X87313Y-72154D02*
X87107Y-71953D01*
X86902Y-71774D01*
X86698Y-71616D01*
X86495Y-71479D01*
X86293Y-71363D01*
X86092Y-71269D01*
X85892Y-71195D01*
X85693Y-71142D01*
X85495Y-71110D01*
X85298Y-71100D01*
Y-69900D01*
X85495Y-69889D01*
X85693Y-69858D01*
X85892Y-69805D01*
X86092Y-69731D01*
X86293Y-69637D01*
X86495Y-69521D01*
X86698Y-69384D01*
X86902Y-69226D01*
X87107Y-69047D01*
X87313Y-68846D01*
Y-72154D01*
D02*
G37*
G36*
X126002Y29155D02*
X126169Y26537D01*
X126209Y26455D01*
X122791D01*
X122831Y26537D01*
X122866Y26673D01*
X122898Y26864D01*
X122925Y27110D01*
X122981Y28173D01*
X123000Y29728D01*
X126000D01*
X126002Y29155D01*
D02*
G37*
G36*
X-107831Y50963D02*
X-107866Y50827D01*
X-107898Y50636D01*
X-107925Y50390D01*
X-107981Y49327D01*
X-108000Y47772D01*
X-111000D01*
X-111002Y48345D01*
X-111169Y50963D01*
X-111209Y51045D01*
X-107791D01*
X-107831Y50963D01*
D02*
G37*
G36*
X-113420Y50480D02*
X-113521Y50434D01*
X-113610Y50358D01*
X-113687Y50250D01*
X-113752Y50112D01*
X-113805Y49944D01*
X-113847Y49744D01*
X-113876Y49514D01*
X-113894Y49254D01*
X-113900Y48962D01*
X-115100D01*
X-115106Y49254D01*
X-115153Y49744D01*
X-115195Y49944D01*
X-115248Y50112D01*
X-115313Y50250D01*
X-115390Y50358D01*
X-115479Y50434D01*
X-115580Y50480D01*
X-115693Y50496D01*
X-113307D01*
X-113420Y50480D01*
D02*
G37*
G36*
X-107998Y28655D02*
X-107831Y26037D01*
X-107791Y25955D01*
X-111209D01*
X-111169Y26037D01*
X-111134Y26173D01*
X-111102Y26364D01*
X-111075Y26610D01*
X-111019Y27673D01*
X-111000Y29228D01*
X-108000D01*
X-107998Y28655D01*
D02*
G37*
G36*
X10504Y22563D02*
X10561Y21827D01*
X10614Y21498D01*
X10683Y21196D01*
X10769Y20919D01*
X10871Y20668D01*
X10990Y20444D01*
X11124Y20245D01*
X11276Y20073D01*
X10427Y19225D01*
X10255Y19376D01*
X10056Y19510D01*
X9832Y19629D01*
X9581Y19731D01*
X9304Y19817D01*
X9002Y19886D01*
X8673Y19939D01*
X8318Y19976D01*
X7530Y20000D01*
X10500Y22970D01*
X10504Y22563D01*
D02*
G37*
G36*
X40510Y24532D02*
X40951Y24163D01*
X41169Y24014D01*
X41384Y23888D01*
X41597Y23784D01*
X41808Y23704D01*
X42017Y23646D01*
X42223Y23611D01*
X42427Y23600D01*
Y22400D01*
X42223Y22388D01*
X42017Y22354D01*
X41808Y22297D01*
X41597Y22216D01*
X41384Y22113D01*
X41169Y21986D01*
X40951Y21836D01*
X40732Y21664D01*
X40510Y21468D01*
X40285Y21250D01*
Y24750D01*
X40510Y24532D01*
D02*
G37*
G36*
X80715Y21250D02*
X80490Y21468D01*
X80049Y21836D01*
X79831Y21986D01*
X79616Y22113D01*
X79403Y22216D01*
X79192Y22297D01*
X78983Y22354D01*
X78777Y22388D01*
X78573Y22400D01*
Y23600D01*
X78777Y23611D01*
X78983Y23646D01*
X79192Y23704D01*
X79403Y23784D01*
X79616Y23888D01*
X79831Y24014D01*
X80049Y24163D01*
X80268Y24336D01*
X80490Y24532D01*
X80715Y24750D01*
Y21250D01*
D02*
G37*
G36*
X7470Y80000D02*
X7063Y79996D01*
X6327Y79939D01*
X5998Y79886D01*
X5696Y79817D01*
X5419Y79731D01*
X5168Y79629D01*
X4944Y79510D01*
X4745Y79376D01*
X4573Y79224D01*
X3725Y80073D01*
X3876Y80245D01*
X4010Y80444D01*
X4129Y80668D01*
X4231Y80919D01*
X4317Y81196D01*
X4386Y81498D01*
X4439Y81827D01*
X4476Y82182D01*
X4500Y82970D01*
X7470Y80000D01*
D02*
G37*
G36*
X30504Y82563D02*
X30561Y81827D01*
X30614Y81498D01*
X30683Y81196D01*
X30769Y80919D01*
X30871Y80668D01*
X30990Y80444D01*
X31124Y80245D01*
X31275Y80073D01*
X30427Y79224D01*
X30255Y79376D01*
X30056Y79510D01*
X29832Y79629D01*
X29581Y79731D01*
X29304Y79817D01*
X29002Y79886D01*
X28673Y79939D01*
X28318Y79976D01*
X27530Y80000D01*
X30500Y82970D01*
X30504Y82563D01*
D02*
G37*
G36*
X21275Y85927D02*
X21124Y85755D01*
X20990Y85556D01*
X20871Y85332D01*
X20769Y85081D01*
X20683Y84804D01*
X20614Y84502D01*
X20561Y84173D01*
X20524Y83818D01*
X20500Y83030D01*
X17530Y86000D01*
X17937Y86004D01*
X18673Y86061D01*
X19002Y86114D01*
X19304Y86183D01*
X19581Y86269D01*
X19832Y86371D01*
X20056Y86490D01*
X20255Y86624D01*
X20427Y86775D01*
X21275Y85927D01*
D02*
G37*
G36*
X112028Y60829D02*
X112211Y60672D01*
X112374Y60551D01*
X112520Y60465D01*
X112646Y60415D01*
X112754Y60401D01*
X112843Y60423D01*
X112913Y60480D01*
X112964Y60574D01*
X112996Y60703D01*
X112539Y57776D01*
X112550Y57924D01*
X112540Y58076D01*
X112509Y58233D01*
X112455Y58395D01*
X112380Y58562D01*
X112283Y58735D01*
X112164Y58912D01*
X112024Y59094D01*
X111862Y59281D01*
X111678Y59473D01*
X111826Y61023D01*
X112028Y60829D01*
D02*
G37*
G36*
X126169Y54463D02*
X126134Y54327D01*
X126102Y54136D01*
X126075Y53891D01*
X126019Y52827D01*
X126000Y51272D01*
X123000D01*
X122998Y51845D01*
X122831Y54463D01*
X122791Y54545D01*
X126209D01*
X126169Y54463D01*
D02*
G37*
G36*
X120580Y53980D02*
X120479Y53934D01*
X120390Y53858D01*
X120313Y53750D01*
X120248Y53612D01*
X120195Y53444D01*
X120153Y53244D01*
X120124Y53014D01*
X120106Y52754D01*
X120100Y52462D01*
X118900D01*
X118894Y52754D01*
X118847Y53244D01*
X118805Y53444D01*
X118752Y53612D01*
X118687Y53750D01*
X118610Y53858D01*
X118521Y53934D01*
X118420Y53980D01*
X118307Y53996D01*
X120693D01*
X120580Y53980D01*
D02*
G37*
G36*
X-118894Y58746D02*
X-118847Y58256D01*
X-118805Y58056D01*
X-118752Y57888D01*
X-118687Y57750D01*
X-118610Y57642D01*
X-118521Y57566D01*
X-118420Y57520D01*
X-118307Y57504D01*
X-120693D01*
X-120580Y57520D01*
X-120479Y57566D01*
X-120390Y57642D01*
X-120313Y57750D01*
X-120248Y57888D01*
X-120195Y58056D01*
X-120153Y58256D01*
X-120124Y58486D01*
X-120106Y58746D01*
X-120100Y59038D01*
X-118900D01*
X-118894Y58746D01*
D02*
G37*
G36*
X-19533Y20005D02*
X-19534Y19979D01*
X-19514Y19937D01*
X-19474Y19877D01*
X-19414Y19801D01*
X-19235Y19597D01*
X-18816Y19164D01*
X-20513D01*
X-20683Y19326D01*
X-20852Y19470D01*
X-21022Y19597D01*
X-21192Y19707D01*
X-21362Y19801D01*
X-21531Y19877D01*
X-21701Y19937D01*
X-21871Y19979D01*
X-22040Y20005D01*
X-22210Y20013D01*
X-19513D01*
X-19533Y20005D01*
D02*
G37*
G36*
X-124387Y-1374D02*
X-124347Y-1595D01*
X-124280Y-1821D01*
X-124187Y-2052D01*
X-124068Y-2287D01*
X-123922Y-2527D01*
X-123749Y-2771D01*
X-123549Y-3020D01*
X-123323Y-3274D01*
X-123071Y-3532D01*
X-126929D01*
X-126677Y-3274D01*
X-126251Y-2771D01*
X-126078Y-2527D01*
X-125932Y-2287D01*
X-125813Y-2052D01*
X-125720Y-1821D01*
X-125653Y-1595D01*
X-125613Y-1374D01*
X-125600Y-1157D01*
X-124400D01*
X-124387Y-1374D01*
D02*
G37*
G36*
X86113Y-374D02*
X86153Y-595D01*
X86220Y-821D01*
X86313Y-1051D01*
X86432Y-1287D01*
X86579Y-1527D01*
X86751Y-1771D01*
X86951Y-2020D01*
X87177Y-2274D01*
X87429Y-2532D01*
X83571D01*
X83823Y-2274D01*
X84249Y-1771D01*
X84421Y-1527D01*
X84568Y-1287D01*
X84687Y-1051D01*
X84780Y-821D01*
X84847Y-595D01*
X84887Y-374D01*
X84900Y-157D01*
X86100D01*
X86113Y-374D01*
D02*
G37*
G36*
X-32023Y-1155D02*
X-32058Y-1165D01*
X-32110Y-1194D01*
X-32179Y-1242D01*
X-32264Y-1309D01*
X-32619Y-1627D01*
X-33123Y-2118D01*
X-35244Y3D01*
X-35061Y188D01*
X-34291Y1068D01*
X-34281Y1103D01*
X-32023Y-1155D01*
D02*
G37*
G36*
X116996Y-1853D02*
X116852Y-2016D01*
X116723Y-2200D01*
X116610Y-2407D01*
X116513Y-2636D01*
X116431Y-2887D01*
X116365Y-3160D01*
X116314Y-3455D01*
X116279Y-3772D01*
X116260Y-4111D01*
X116256Y-4472D01*
X113528Y-1744D01*
X113889Y-1740D01*
X114545Y-1685D01*
X114840Y-1635D01*
X115113Y-1569D01*
X115364Y-1487D01*
X115593Y-1390D01*
X115799Y-1277D01*
X115984Y-1148D01*
X116147Y-1005D01*
X116996Y-1853D01*
D02*
G37*
G36*
X-62826Y-8230D02*
X-62735Y-8425D01*
X-62586Y-8597D01*
X-62375Y-8745D01*
X-62106Y-8871D01*
X-61775Y-8974D01*
X-61386Y-9054D01*
X-60935Y-9112D01*
X-60426Y-9146D01*
X-59856Y-9157D01*
Y-12157D01*
X-60426Y-12169D01*
X-61386Y-12260D01*
X-61775Y-12341D01*
X-62106Y-12444D01*
X-62375Y-12569D01*
X-62586Y-12718D01*
X-62735Y-12890D01*
X-62826Y-13084D01*
X-62855Y-13302D01*
Y-8013D01*
X-62826Y-8230D01*
D02*
G37*
G36*
X-94740Y-5889D02*
X-94686Y-6545D01*
X-94635Y-6840D01*
X-94569Y-7113D01*
X-94487Y-7364D01*
X-94390Y-7593D01*
X-94277Y-7800D01*
X-94148Y-7984D01*
X-94004Y-8147D01*
X-94853Y-8996D01*
X-95016Y-8852D01*
X-95201Y-8723D01*
X-95407Y-8610D01*
X-95636Y-8513D01*
X-95887Y-8431D01*
X-96160Y-8365D01*
X-96455Y-8315D01*
X-96772Y-8279D01*
X-97111Y-8260D01*
X-97472Y-8256D01*
X-94744Y-5528D01*
X-94740Y-5889D01*
D02*
G37*
G36*
X99472Y-7256D02*
X99111Y-7260D01*
X98455Y-7315D01*
X98160Y-7365D01*
X97887Y-7431D01*
X97636Y-7513D01*
X97407Y-7610D01*
X97201Y-7723D01*
X97016Y-7852D01*
X96853Y-7995D01*
X96004Y-7147D01*
X96148Y-6984D01*
X96277Y-6799D01*
X96390Y-6593D01*
X96487Y-6364D01*
X96569Y-6113D01*
X96635Y-5840D01*
X96685Y-5545D01*
X96721Y-5228D01*
X96740Y-4889D01*
X96744Y-4528D01*
X99472Y-7256D01*
D02*
G37*
G36*
X126169Y20463D02*
X126134Y20327D01*
X126102Y20136D01*
X126075Y19891D01*
X126019Y18827D01*
X126000Y17272D01*
X123000D01*
X122998Y17845D01*
X122831Y20463D01*
X122791Y20545D01*
X126209D01*
X126169Y20463D01*
D02*
G37*
G36*
X-107651Y24980D02*
X-107655Y24625D01*
X-107596Y24250D01*
X-107473Y23853D01*
X-107287Y23435D01*
X-107037Y22996D01*
X-106724Y22535D01*
X-106348Y22053D01*
X-105908Y21551D01*
X-105405Y21027D01*
X-106070Y17448D01*
X-106432Y17792D01*
X-106790Y18096D01*
X-107143Y18358D01*
X-107493Y18580D01*
X-107838Y18762D01*
X-107956Y18810D01*
X-107981Y18327D01*
X-108000Y16772D01*
X-111000D01*
X-111002Y17345D01*
X-111169Y19963D01*
X-111209Y20045D01*
X-109198D01*
X-107584Y25313D01*
X-107651Y24980D01*
D02*
G37*
G36*
X120580Y19980D02*
X120479Y19934D01*
X120390Y19858D01*
X120313Y19750D01*
X120248Y19612D01*
X120195Y19444D01*
X120153Y19244D01*
X120124Y19014D01*
X120106Y18754D01*
X120100Y18462D01*
X118900D01*
X118894Y18754D01*
X118847Y19244D01*
X118805Y19444D01*
X118752Y19612D01*
X118687Y19750D01*
X118610Y19858D01*
X118521Y19934D01*
X118420Y19980D01*
X118307Y19996D01*
X120693D01*
X120580Y19980D01*
D02*
G37*
G36*
X6043Y3945D02*
X6201Y3830D01*
X6373Y3729D01*
X6559Y3641D01*
X6760Y3567D01*
X6975Y3508D01*
X7204Y3462D01*
X7447Y3430D01*
X7705Y3412D01*
X7977Y3407D01*
X5719Y1149D01*
X5714Y1421D01*
X5696Y1679D01*
X5664Y1922D01*
X5618Y2151D01*
X5559Y2366D01*
X5485Y2567D01*
X5398Y2753D01*
X5296Y2925D01*
X5181Y3083D01*
X5051Y3226D01*
X5900Y4075D01*
X6043Y3945D01*
D02*
G37*
G36*
X36043D02*
X36201Y3830D01*
X36373Y3729D01*
X36559Y3641D01*
X36760Y3567D01*
X36975Y3508D01*
X37204Y3462D01*
X37447Y3430D01*
X37705Y3412D01*
X37977Y3407D01*
X35719Y1149D01*
X35715Y1421D01*
X35696Y1679D01*
X35664Y1922D01*
X35618Y2151D01*
X35559Y2366D01*
X35485Y2567D01*
X35397Y2753D01*
X35296Y2925D01*
X35181Y3083D01*
X35051Y3226D01*
X35900Y4075D01*
X36043Y3945D01*
D02*
G37*
G36*
X27090Y4266D02*
X27224Y4156D01*
X27544Y3930D01*
X27730Y3815D01*
X28393Y3459D01*
X28922Y3213D01*
X25945Y2118D01*
X26036Y2329D01*
X26101Y2534D01*
X26141Y2733D01*
X26155Y2925D01*
X26144Y3111D01*
X26106Y3291D01*
X26044Y3465D01*
X25956Y3632D01*
X25842Y3793D01*
X25703Y3948D01*
X26974Y4375D01*
X27090Y4266D01*
D02*
G37*
%LPC*%
G36*
X47757Y-49572D02*
X47138D01*
X47285Y-49635D01*
X47429Y-49670D01*
X47556Y-49672D01*
X47665Y-49639D01*
X47757Y-49572D01*
D02*
G37*
%LPD*%
D10*
X-114500Y44000D02*
Y54000D01*
X-125000Y33500D02*
X-114500Y44000D01*
X-125000Y-5500D02*
Y33500D01*
X-32217Y-30343D02*
X-32000Y-30126D01*
X38500Y23000D02*
X82500D01*
X27500Y83000D02*
X33000Y77500D01*
Y6126D02*
Y77500D01*
Y6126D02*
X38000Y1126D01*
X86000Y-18000D02*
X99500Y-4500D01*
X60126Y-18000D02*
X86000D01*
X48000Y-30126D02*
X60126Y-18000D01*
X42500Y-46000D02*
X48000Y-51500D01*
X12000Y-46000D02*
X42500D01*
X9000Y-43000D02*
X12000Y-46000D01*
X48000Y-51500D02*
X49000Y-52500D01*
X-98500Y-78500D02*
X-93000D01*
X-83500Y-69000D01*
X-24500Y-77602D02*
X-22102Y-80000D01*
X-24500Y-77602D02*
Y-62500D01*
X-9898Y-80000D02*
X-8500Y-78602D01*
Y-62500D01*
X-24500D02*
X-16500Y-54500D01*
Y-44626D01*
X-2000Y-30126D01*
X-8500Y-62500D02*
X-500Y-54500D01*
Y-38626D01*
X8000Y-30126D01*
X57000Y-70500D02*
X89000D01*
X39000Y-52500D02*
X57000Y-70500D01*
X48000Y-51500D02*
Y-30126D01*
X119500Y44000D02*
Y57500D01*
X85500Y10000D02*
X119500Y44000D01*
X85500Y-4500D02*
Y10000D01*
X113500Y-4500D02*
X119500Y1500D01*
Y23500D01*
X-72657Y-30343D02*
X-65500D01*
X-97500Y-5500D02*
X-72657Y-30343D01*
X-10500Y10000D02*
X-874D01*
X-22500Y22000D02*
X-10500Y10000D01*
X-22500Y22000D02*
Y23000D01*
X-12500Y22000D02*
Y23000D01*
X-874Y10000D02*
X8000Y1126D01*
X28000D02*
Y2500D01*
X7500Y23000D02*
X28000Y2500D01*
X83000Y89000D02*
X114500Y57500D01*
X23500Y89000D02*
X83000D01*
X17500Y83000D02*
X23500Y89000D01*
X-119500Y54000D02*
Y64000D01*
X-109500Y74000D01*
X-1500D01*
X7500Y83000D01*
X-65500Y-30343D02*
X-32217D01*
X-111250Y-45500D02*
X-100750Y-35000D01*
X-26874D01*
X-22000Y-30126D01*
X-12500Y22000D02*
X-6500Y16000D01*
X3126D01*
X18000Y1126D01*
D11*
X-109500Y9500D02*
Y23000D01*
X-118500Y500D02*
X-109500Y9500D01*
Y23000D02*
Y54000D01*
X42500Y-89000D02*
X49000Y-82500D01*
X-108000Y-89000D02*
X42500D01*
X-118500Y-78500D02*
X-108000Y-89000D01*
X49000Y-82500D02*
X97000D01*
X109000Y-70500D01*
Y-54000D01*
X99500Y-44500D02*
X109000Y-54000D01*
X99500Y-44500D02*
X124500Y-19500D01*
Y23500D01*
Y57500D01*
X-65500Y-10657D02*
X-43783D01*
X-75843D02*
X-65500D01*
X-109500Y23000D02*
X-75843Y-10657D01*
X-118500Y-78500D02*
Y500D01*
X-43783Y-10657D02*
X-32000Y1126D01*
D12*
X-22500Y83000D02*
D03*
X-12500D02*
D03*
X-2500D02*
D03*
X7500D02*
D03*
X17500D02*
D03*
X27500D02*
D03*
Y23000D02*
D03*
X17500D02*
D03*
X7500D02*
D03*
X-2500D02*
D03*
X-12500D02*
D03*
D13*
X-22500D02*
D03*
D14*
X89000Y-70500D02*
D03*
X99000D02*
D03*
X-24500Y-52500D02*
D03*
Y-62500D02*
D03*
X-8500Y-52500D02*
D03*
Y-62500D02*
D03*
D15*
X109000Y-70500D02*
D03*
D16*
X-32000Y-30126D02*
D03*
D17*
X-22000D02*
D03*
X-12000D02*
D03*
X-2000D02*
D03*
X8000D02*
D03*
X18000D02*
D03*
X28000D02*
D03*
X38000D02*
D03*
X48000D02*
D03*
X58000D02*
D03*
Y1126D02*
D03*
X48000D02*
D03*
X38000D02*
D03*
X28000D02*
D03*
X18000D02*
D03*
X8000D02*
D03*
X-2000D02*
D03*
X-12000D02*
D03*
X-22000D02*
D03*
X-32000D02*
D03*
D18*
X-109500Y54000D02*
D03*
Y23000D02*
D03*
X124500Y57500D02*
D03*
Y23500D02*
D03*
D19*
X-114500Y54000D02*
D03*
X-119500D02*
D03*
X-114500Y23000D02*
D03*
X-119500D02*
D03*
X119500Y57500D02*
D03*
X114500D02*
D03*
X119500Y23500D02*
D03*
X114500D02*
D03*
D20*
X-125000Y-5500D02*
D03*
Y-45500D02*
D03*
X-111250Y-5500D02*
D03*
Y-45500D02*
D03*
X-97500Y-5500D02*
D03*
Y-45500D02*
D03*
X85500Y-4500D02*
D03*
Y-44500D02*
D03*
X99500Y-4500D02*
D03*
Y-44500D02*
D03*
X113500Y-4500D02*
D03*
Y-44500D02*
D03*
X-43500Y-69000D02*
D03*
X-83500D02*
D03*
Y-52500D02*
D03*
X-43500D02*
D03*
D21*
X-65500Y-10657D02*
D03*
D22*
Y-30343D02*
D03*
D23*
X49000Y-52500D02*
D03*
D24*
X39000D02*
D03*
X29000D02*
D03*
X19000D02*
D03*
X49000Y-82500D02*
D03*
X39000D02*
D03*
X29000D02*
D03*
X19000D02*
D03*
D25*
X-22102Y-80000D02*
D03*
X-9898D02*
D03*
D26*
X-118500Y-78500D02*
D03*
X-108500D02*
D03*
D27*
X-98500D02*
D03*
D28*
X82500Y23000D02*
D03*
X38500D02*
D03*
X9000Y-43000D02*
D03*
M02*
