G04 Layer_Physical_Order=2*
G04 Layer_Color=16711680*
%FSLAX25Y25*%
%MOIN*%
G70*
G01*
G75*
%ADD10C,0.01200*%
%ADD11C,0.03000*%
%ADD12C,0.06000*%
%ADD13R,0.06000X0.06000*%
%ADD14C,0.04724*%
%ADD15R,0.04724X0.04724*%
%ADD16R,0.04563X0.04563*%
%ADD17C,0.04563*%
%ADD18O,0.03937X0.07874*%
%ADD19O,0.03937X0.07874*%
%ADD20C,0.05512*%
%ADD21R,0.05315X0.05315*%
%ADD22C,0.05315*%
%ADD23R,0.05905X0.05905*%
%ADD24C,0.05905*%
%ADD25C,0.05118*%
%ADD26C,0.05905*%
%ADD27R,0.05905X0.05905*%
%ADD28C,0.05000*%
G36*
X133471Y89367D02*
Y-89367D01*
X129367Y-93471D01*
X-129367D01*
X-133471Y-89367D01*
Y89367D01*
X-129367Y93471D01*
X129367D01*
X133471Y89367D01*
D02*
G37*
%LPC*%
G36*
X-11742Y-51541D02*
X-11776Y-51622D01*
X-11825Y-52000D01*
X-11742D01*
Y-51541D01*
D02*
G37*
G36*
X-25000Y-49175D02*
X-25378Y-49224D01*
X-26196Y-49563D01*
X-26898Y-50102D01*
X-27437Y-50804D01*
X-27776Y-51622D01*
X-27825Y-52000D01*
X-25000D01*
Y-49175D01*
D02*
G37*
G36*
X-5175Y-53000D02*
X-5258D01*
Y-53459D01*
X-5224Y-53378D01*
X-5175Y-53000D01*
D02*
G37*
G36*
X-9000Y-49175D02*
X-9378Y-49224D01*
X-10196Y-49563D01*
X-10898Y-50102D01*
X-11437Y-50804D01*
X-11517Y-50999D01*
X-11474Y-50999D01*
X-10390Y-50925D01*
X-10297Y-50902D01*
X-10230Y-50876D01*
X-10187Y-50846D01*
Y-52000D01*
X-9000D01*
Y-49175D01*
D02*
G37*
G36*
X19500Y-50018D02*
Y-52000D01*
X21482D01*
X19500Y-50018D01*
D02*
G37*
G36*
X-84000Y-48777D02*
X-84481Y-48841D01*
X-85394Y-49219D01*
X-86179Y-49821D01*
X-86781Y-50606D01*
X-86934Y-50977D01*
X-86389Y-50931D01*
X-86178Y-50893D01*
X-85990Y-50845D01*
X-85825Y-50790D01*
X-85683Y-50725D01*
X-85564Y-50652D01*
X-85468Y-50571D01*
Y-52000D01*
X-84000D01*
Y-48777D01*
D02*
G37*
G36*
X18500Y-48579D02*
X17968Y-48649D01*
X17007Y-49047D01*
X16181Y-49681D01*
X15547Y-50507D01*
X15357Y-50966D01*
X15577Y-50949D01*
X15830Y-50909D01*
X16062Y-50858D01*
X16272Y-50796D01*
X16459Y-50722D01*
X16625Y-50637D01*
X16769Y-50541D01*
X16891Y-50433D01*
Y-52000D01*
X18500D01*
Y-48579D01*
D02*
G37*
G36*
X-11742Y-53000D02*
X-11825D01*
X-11776Y-53378D01*
X-11742Y-53459D01*
Y-53000D01*
D02*
G37*
G36*
X-84000D02*
X-85468D01*
Y-54429D01*
X-85564Y-54348D01*
X-85683Y-54275D01*
X-85825Y-54210D01*
X-85990Y-54154D01*
X-86178Y-54107D01*
X-86389Y-54069D01*
X-86624Y-54039D01*
X-86936Y-54019D01*
X-86781Y-54394D01*
X-86179Y-55179D01*
X-85394Y-55781D01*
X-84481Y-56159D01*
X-84000Y-56222D01*
Y-53000D01*
D02*
G37*
G36*
X18500D02*
X16891D01*
Y-54567D01*
X16769Y-54459D01*
X16625Y-54363D01*
X16459Y-54278D01*
X16272Y-54204D01*
X16062Y-54142D01*
X15830Y-54091D01*
X15577Y-54051D01*
X15355Y-54028D01*
X15547Y-54493D01*
X16181Y-55319D01*
X17007Y-55953D01*
X17968Y-56351D01*
X18500Y-56421D01*
Y-53000D01*
D02*
G37*
G36*
X-27470Y-54115D02*
X-27437Y-54196D01*
X-26898Y-54898D01*
X-26196Y-55437D01*
X-26115Y-55470D01*
X-27470Y-54115D01*
D02*
G37*
G36*
X-25000Y-53000D02*
X-26386D01*
X-25000Y-54386D01*
Y-53000D01*
D02*
G37*
G36*
X-21175D02*
X-21258D01*
Y-53459D01*
X-21224Y-53378D01*
X-21175Y-53000D01*
D02*
G37*
G36*
X-27192D02*
X-27825D01*
X-27776Y-53378D01*
X-27695Y-53572D01*
X-27665Y-53541D01*
X-27192Y-53000D01*
D02*
G37*
G36*
X-9000D02*
X-10187D01*
Y-54154D01*
X-10230Y-54124D01*
X-10297Y-54098D01*
X-10390Y-54075D01*
X-10508Y-54055D01*
X-10819Y-54025D01*
X-11230Y-54006D01*
X-11517Y-54003D01*
X-11437Y-54196D01*
X-10898Y-54898D01*
X-10196Y-55437D01*
X-9378Y-55776D01*
X-9000Y-55825D01*
Y-53000D01*
D02*
G37*
G36*
X22660Y-51008D02*
X22517Y-51176D01*
X22366Y-51384D01*
X22238Y-51583D01*
X22134Y-51776D01*
X22054Y-51961D01*
X22041Y-52000D01*
X22921D01*
X22851Y-51468D01*
X22660Y-51008D01*
D02*
G37*
G36*
X99500Y-40712D02*
X98519Y-40841D01*
X97606Y-41219D01*
X96821Y-41821D01*
X96219Y-42606D01*
X95841Y-43519D01*
X95712Y-44500D01*
X95841Y-45480D01*
X96219Y-46394D01*
X96821Y-47179D01*
X97606Y-47781D01*
X98519Y-48159D01*
X99500Y-48288D01*
X100480Y-48159D01*
X101394Y-47781D01*
X102179Y-47179D01*
X102781Y-46394D01*
X103159Y-45480D01*
X103288Y-44500D01*
X103159Y-43519D01*
X102781Y-42606D01*
X102179Y-41821D01*
X101394Y-41219D01*
X100480Y-40841D01*
X99500Y-40712D01*
D02*
G37*
G36*
X62500Y-19869D02*
X49500D01*
X48876Y-19993D01*
X48346Y-20346D01*
X41846Y-26847D01*
X41493Y-27376D01*
X41369Y-28000D01*
Y-28377D01*
X40869Y-28477D01*
X40866Y-28471D01*
X40340Y-27786D01*
X39655Y-27260D01*
X38857Y-26929D01*
X38000Y-26816D01*
X37143Y-26929D01*
X36345Y-27260D01*
X35660Y-27786D01*
X35134Y-28471D01*
X34803Y-29269D01*
X34690Y-30126D01*
X34803Y-30983D01*
X35134Y-31781D01*
X35660Y-32466D01*
X36345Y-32992D01*
X37143Y-33323D01*
X38000Y-33436D01*
X38857Y-33323D01*
X39655Y-32992D01*
X40340Y-32466D01*
X40804Y-31861D01*
X41170Y-31933D01*
X41302Y-31999D01*
X41342Y-32351D01*
X38824Y-34869D01*
X25050D01*
X21589Y-31408D01*
X21556Y-31364D01*
X21505Y-31276D01*
X21457Y-31173D01*
X21413Y-31053D01*
X21374Y-30914D01*
X21342Y-30756D01*
X21318Y-30577D01*
X21305Y-30378D01*
X21302Y-30188D01*
X21310Y-30126D01*
X21197Y-29269D01*
X20866Y-28471D01*
X20340Y-27786D01*
X19655Y-27260D01*
X18857Y-26929D01*
X18000Y-26816D01*
X17143Y-26929D01*
X16345Y-27260D01*
X15660Y-27786D01*
X15134Y-28471D01*
X14803Y-29269D01*
X14690Y-30126D01*
X14803Y-30983D01*
X15134Y-31781D01*
X15660Y-32466D01*
X16345Y-32992D01*
X17143Y-33323D01*
X18000Y-33436D01*
X18062Y-33428D01*
X18251Y-33431D01*
X18451Y-33444D01*
X18630Y-33468D01*
X18788Y-33500D01*
X18927Y-33538D01*
X19047Y-33583D01*
X19150Y-33631D01*
X19238Y-33683D01*
X19282Y-33715D01*
X23221Y-37653D01*
X23750Y-38007D01*
X24374Y-38131D01*
X39500D01*
X40124Y-38007D01*
X40653Y-37653D01*
X44153Y-34154D01*
X44507Y-33624D01*
X44631Y-33000D01*
Y-31875D01*
X45131Y-31775D01*
X45134Y-31781D01*
X45660Y-32466D01*
X46345Y-32992D01*
X47143Y-33323D01*
X48000Y-33436D01*
X48857Y-33323D01*
X49655Y-32992D01*
X50340Y-32466D01*
X50866Y-31781D01*
X51197Y-30983D01*
X51310Y-30126D01*
X51197Y-29269D01*
X50866Y-28471D01*
X50340Y-27786D01*
X49655Y-27260D01*
X48857Y-26929D01*
X48000Y-26816D01*
X47143Y-26929D01*
X47044Y-26970D01*
X46761Y-26546D01*
X50176Y-23131D01*
X61824D01*
X81358Y-42665D01*
X81408Y-42737D01*
X81471Y-42852D01*
X81531Y-42994D01*
X81587Y-43165D01*
X81636Y-43367D01*
X81673Y-43584D01*
X81721Y-44159D01*
X81724Y-44408D01*
X81712Y-44500D01*
X81841Y-45480D01*
X82219Y-46394D01*
X82821Y-47179D01*
X83606Y-47781D01*
X84519Y-48159D01*
X85500Y-48288D01*
X86480Y-48159D01*
X87394Y-47781D01*
X88179Y-47179D01*
X88781Y-46394D01*
X89159Y-45480D01*
X89288Y-44500D01*
X89159Y-43519D01*
X88781Y-42606D01*
X88179Y-41821D01*
X87394Y-41219D01*
X86480Y-40841D01*
X85500Y-40712D01*
X85408Y-40724D01*
X85146Y-40721D01*
X84858Y-40704D01*
X84598Y-40676D01*
X84367Y-40636D01*
X84166Y-40587D01*
X83994Y-40531D01*
X83852Y-40471D01*
X83737Y-40408D01*
X83665Y-40358D01*
X63653Y-20346D01*
X63124Y-19993D01*
X62500Y-19869D01*
D02*
G37*
G36*
X-97000Y-48386D02*
Y-49222D01*
X-96520Y-49159D01*
X-96149Y-49006D01*
X-96566Y-48652D01*
X-96743Y-48530D01*
X-96909Y-48430D01*
X-97000Y-48386D01*
D02*
G37*
G36*
X83500Y-12869D02*
X43626D01*
X43002Y-12993D01*
X42472Y-13347D01*
X29282Y-26537D01*
X29238Y-26570D01*
X29150Y-26621D01*
X29047Y-26669D01*
X28927Y-26713D01*
X28788Y-26752D01*
X28630Y-26784D01*
X28451Y-26807D01*
X28251Y-26821D01*
X28062Y-26824D01*
X28000Y-26816D01*
X27143Y-26929D01*
X26345Y-27260D01*
X25660Y-27786D01*
X25134Y-28471D01*
X24803Y-29269D01*
X24690Y-30126D01*
X24803Y-30983D01*
X25134Y-31781D01*
X25660Y-32466D01*
X26345Y-32992D01*
X27143Y-33323D01*
X28000Y-33436D01*
X28857Y-33323D01*
X29655Y-32992D01*
X30340Y-32466D01*
X30866Y-31781D01*
X31197Y-30983D01*
X31310Y-30126D01*
X31302Y-30064D01*
X31305Y-29875D01*
X31319Y-29675D01*
X31342Y-29496D01*
X31374Y-29338D01*
X31413Y-29199D01*
X31457Y-29079D01*
X31505Y-28976D01*
X31556Y-28888D01*
X31589Y-28844D01*
X44302Y-16131D01*
X82824D01*
X109358Y-42665D01*
X109408Y-42737D01*
X109471Y-42852D01*
X109531Y-42994D01*
X109587Y-43165D01*
X109636Y-43367D01*
X109673Y-43584D01*
X109721Y-44159D01*
X109724Y-44408D01*
X109712Y-44500D01*
X109841Y-45480D01*
X110219Y-46394D01*
X110821Y-47179D01*
X111606Y-47781D01*
X112520Y-48159D01*
X113500Y-48288D01*
X114480Y-48159D01*
X115394Y-47781D01*
X116179Y-47179D01*
X116781Y-46394D01*
X117159Y-45480D01*
X117288Y-44500D01*
X117159Y-43519D01*
X116781Y-42606D01*
X116179Y-41821D01*
X115394Y-41219D01*
X114480Y-40841D01*
X113500Y-40712D01*
X113408Y-40724D01*
X113146Y-40721D01*
X112858Y-40704D01*
X112598Y-40676D01*
X112367Y-40636D01*
X112165Y-40587D01*
X111994Y-40531D01*
X111852Y-40471D01*
X111737Y-40408D01*
X111665Y-40358D01*
X84654Y-13347D01*
X84124Y-12993D01*
X83500Y-12869D01*
D02*
G37*
G36*
X-93778Y-46000D02*
X-94614D01*
X-94570Y-46090D01*
X-94470Y-46257D01*
X-94348Y-46434D01*
X-94203Y-46621D01*
X-93996Y-46856D01*
X-93841Y-46481D01*
X-93778Y-46000D01*
D02*
G37*
G36*
X-95217D02*
X-97000D01*
Y-47783D01*
X-95217Y-46000D01*
D02*
G37*
G36*
X-98000D02*
X-99783D01*
X-98000Y-47783D01*
Y-46000D01*
D02*
G37*
G36*
Y-48386D02*
X-98090Y-48430D01*
X-98257Y-48530D01*
X-98434Y-48652D01*
X-98621Y-48797D01*
X-98856Y-49004D01*
X-98480Y-49159D01*
X-98000Y-49222D01*
Y-48386D01*
D02*
G37*
G36*
X-24000Y-49175D02*
Y-52000D01*
X-22813D01*
Y-50846D01*
X-22770Y-50876D01*
X-22703Y-50902D01*
X-22610Y-50925D01*
X-22492Y-50945D01*
X-22181Y-50975D01*
X-21770Y-50994D01*
X-21483Y-50997D01*
X-21563Y-50804D01*
X-22102Y-50102D01*
X-22804Y-49563D01*
X-23622Y-49224D01*
X-24000Y-49175D01*
D02*
G37*
G36*
X-5258Y-51541D02*
Y-52000D01*
X-5175D01*
X-5224Y-51622D01*
X-5258Y-51541D01*
D02*
G37*
G36*
X-21258D02*
Y-52000D01*
X-21175D01*
X-21224Y-51622D01*
X-21258Y-51541D01*
D02*
G37*
G36*
X-8000Y-49175D02*
Y-52000D01*
X-6813D01*
Y-50846D01*
X-6770Y-50876D01*
X-6703Y-50902D01*
X-6610Y-50925D01*
X-6492Y-50945D01*
X-6181Y-50975D01*
X-5770Y-50994D01*
X-5483Y-50997D01*
X-5563Y-50804D01*
X-6102Y-50102D01*
X-6804Y-49563D01*
X-7622Y-49224D01*
X-8000Y-49175D01*
D02*
G37*
G36*
X-111250Y-41712D02*
X-112231Y-41841D01*
X-113144Y-42219D01*
X-113929Y-42821D01*
X-114531Y-43606D01*
X-114909Y-44519D01*
X-115038Y-45500D01*
X-114909Y-46481D01*
X-114531Y-47394D01*
X-113929Y-48179D01*
X-113144Y-48781D01*
X-112231Y-49159D01*
X-111250Y-49288D01*
X-110269Y-49159D01*
X-109356Y-48781D01*
X-108571Y-48179D01*
X-107969Y-47394D01*
X-107591Y-46481D01*
X-107462Y-45500D01*
X-107591Y-44519D01*
X-107969Y-43606D01*
X-108571Y-42821D01*
X-109356Y-42219D01*
X-110269Y-41841D01*
X-111250Y-41712D01*
D02*
G37*
G36*
X19500Y-48579D02*
Y-49459D01*
X19539Y-49446D01*
X19724Y-49366D01*
X19917Y-49262D01*
X20117Y-49134D01*
X20324Y-48983D01*
X20497Y-48842D01*
X20032Y-48649D01*
X19500Y-48579D01*
D02*
G37*
G36*
X-83000Y-48777D02*
Y-52000D01*
X-81532D01*
Y-50571D01*
X-81436Y-50652D01*
X-81317Y-50725D01*
X-81176Y-50790D01*
X-81010Y-50845D01*
X-80822Y-50893D01*
X-80611Y-50931D01*
X-80376Y-50961D01*
X-80064Y-50981D01*
X-80219Y-50606D01*
X-80821Y-49821D01*
X-81606Y-49219D01*
X-82520Y-48841D01*
X-83000Y-48777D01*
D02*
G37*
G36*
X-6813Y-53000D02*
X-8000D01*
Y-55825D01*
X-7622Y-55776D01*
X-6804Y-55437D01*
X-6102Y-54898D01*
X-5563Y-54196D01*
X-5483Y-54001D01*
X-5526Y-54001D01*
X-6610Y-54075D01*
X-6703Y-54098D01*
X-6770Y-54124D01*
X-6813Y-54154D01*
Y-53000D01*
D02*
G37*
G36*
X-110028Y-74854D02*
X-110493Y-75047D01*
X-111319Y-75681D01*
X-111953Y-76507D01*
X-112351Y-77468D01*
X-112421Y-78000D01*
X-109000D01*
Y-76391D01*
X-110567D01*
X-110459Y-76269D01*
X-110363Y-76125D01*
X-110278Y-75959D01*
X-110204Y-75772D01*
X-110142Y-75562D01*
X-110091Y-75330D01*
X-110051Y-75077D01*
X-110028Y-74854D01*
D02*
G37*
G36*
X-104579Y-79000D02*
X-108000D01*
Y-82421D01*
X-107468Y-82351D01*
X-106507Y-81953D01*
X-105681Y-81319D01*
X-105047Y-80493D01*
X-104649Y-79532D01*
X-104579Y-79000D01*
D02*
G37*
G36*
X-109000D02*
X-112421D01*
X-112351Y-79532D01*
X-111953Y-80493D01*
X-111319Y-81319D01*
X-110493Y-81953D01*
X-109532Y-82351D01*
X-109000Y-82421D01*
Y-79000D01*
D02*
G37*
G36*
X-106966Y-74857D02*
X-106949Y-75077D01*
X-106909Y-75330D01*
X-106858Y-75562D01*
X-106796Y-75772D01*
X-106722Y-75959D01*
X-106637Y-76125D01*
X-106541Y-76269D01*
X-106433Y-76391D01*
X-108000D01*
Y-78000D01*
X-104579D01*
X-104649Y-77468D01*
X-105047Y-76507D01*
X-105681Y-75681D01*
X-106507Y-75047D01*
X-106966Y-74857D01*
D02*
G37*
G36*
X98500Y-71000D02*
X95675D01*
X95724Y-71378D01*
X96063Y-72196D01*
X96602Y-72898D01*
X97304Y-73437D01*
X98122Y-73776D01*
X98500Y-73825D01*
Y-71000D01*
D02*
G37*
G36*
X111362Y-67118D02*
X106638D01*
X106248Y-67196D01*
X105917Y-67417D01*
X105696Y-67748D01*
X105618Y-68138D01*
Y-72862D01*
X105696Y-73252D01*
X105917Y-73583D01*
X106248Y-73804D01*
X106638Y-73882D01*
X111362D01*
X111752Y-73804D01*
X112083Y-73583D01*
X112304Y-73252D01*
X112382Y-72862D01*
Y-68138D01*
X112304Y-67748D01*
X112083Y-67417D01*
X111752Y-67196D01*
X111362Y-67118D01*
D02*
G37*
G36*
X89000Y-67109D02*
X88122Y-67224D01*
X87304Y-67563D01*
X86602Y-68102D01*
X86063Y-68804D01*
X85724Y-69622D01*
X85609Y-70500D01*
X85724Y-71378D01*
X86063Y-72196D01*
X86602Y-72898D01*
X87304Y-73437D01*
X88122Y-73776D01*
X89000Y-73891D01*
X89878Y-73776D01*
X90696Y-73437D01*
X91398Y-72898D01*
X91937Y-72196D01*
X92276Y-71378D01*
X92391Y-70500D01*
X92276Y-69622D01*
X91937Y-68804D01*
X91398Y-68102D01*
X90696Y-67563D01*
X89878Y-67224D01*
X89000Y-67109D01*
D02*
G37*
G36*
X-95547Y-74528D02*
X-101453D01*
X-101843Y-74605D01*
X-102174Y-74826D01*
X-102395Y-75157D01*
X-102472Y-75547D01*
Y-81453D01*
X-102395Y-81843D01*
X-102174Y-82174D01*
X-101843Y-82395D01*
X-101453Y-82472D01*
X-95547D01*
X-95157Y-82395D01*
X-94826Y-82174D01*
X-94605Y-81843D01*
X-94528Y-81453D01*
Y-75547D01*
X-94605Y-75157D01*
X-94826Y-74826D01*
X-95157Y-74605D01*
X-95547Y-74528D01*
D02*
G37*
G36*
X39000Y-78513D02*
X37968Y-78649D01*
X37007Y-79047D01*
X36181Y-79681D01*
X35547Y-80507D01*
X35149Y-81468D01*
X35013Y-82500D01*
X35149Y-83532D01*
X35547Y-84493D01*
X36181Y-85319D01*
X37007Y-85953D01*
X37968Y-86351D01*
X39000Y-86487D01*
X40032Y-86351D01*
X40993Y-85953D01*
X41819Y-85319D01*
X42453Y-84493D01*
X42851Y-83532D01*
X42987Y-82500D01*
X42851Y-81468D01*
X42453Y-80507D01*
X41819Y-79681D01*
X40993Y-79047D01*
X40032Y-78649D01*
X39000Y-78513D01*
D02*
G37*
G36*
X29000D02*
X27968Y-78649D01*
X27007Y-79047D01*
X26181Y-79681D01*
X25547Y-80507D01*
X25149Y-81468D01*
X25013Y-82500D01*
X25149Y-83532D01*
X25547Y-84493D01*
X26181Y-85319D01*
X27007Y-85953D01*
X27968Y-86351D01*
X29000Y-86487D01*
X30032Y-86351D01*
X30993Y-85953D01*
X31819Y-85319D01*
X32453Y-84493D01*
X32851Y-83532D01*
X32987Y-82500D01*
X32851Y-81468D01*
X32453Y-80507D01*
X31819Y-79681D01*
X30993Y-79047D01*
X30032Y-78649D01*
X29000Y-78513D01*
D02*
G37*
G36*
X19000D02*
X17968Y-78649D01*
X17007Y-79047D01*
X16181Y-79681D01*
X15547Y-80507D01*
X15149Y-81468D01*
X15013Y-82500D01*
X15149Y-83532D01*
X15547Y-84493D01*
X16181Y-85319D01*
X17007Y-85953D01*
X17968Y-86351D01*
X19000Y-86487D01*
X20032Y-86351D01*
X20993Y-85953D01*
X21819Y-85319D01*
X22453Y-84493D01*
X22851Y-83532D01*
X22987Y-82500D01*
X22851Y-81468D01*
X22453Y-80507D01*
X21819Y-79681D01*
X20993Y-79047D01*
X20032Y-78649D01*
X19000Y-78513D01*
D02*
G37*
G36*
X49000D02*
X47968Y-78649D01*
X47007Y-79047D01*
X46181Y-79681D01*
X45547Y-80507D01*
X45149Y-81468D01*
X45013Y-82500D01*
X45149Y-83532D01*
X45547Y-84493D01*
X46181Y-85319D01*
X47007Y-85953D01*
X47968Y-86351D01*
X49000Y-86487D01*
X50032Y-86351D01*
X50993Y-85953D01*
X51819Y-85319D01*
X52453Y-84493D01*
X52851Y-83532D01*
X52987Y-82500D01*
X52851Y-81468D01*
X52453Y-80507D01*
X51819Y-79681D01*
X50993Y-79047D01*
X50032Y-78649D01*
X49000Y-78513D01*
D02*
G37*
G36*
X-118500Y-74513D02*
X-119532Y-74649D01*
X-120493Y-75047D01*
X-121319Y-75681D01*
X-121953Y-76507D01*
X-122351Y-77468D01*
X-122487Y-78500D01*
X-122351Y-79532D01*
X-121953Y-80493D01*
X-121319Y-81319D01*
X-120493Y-81953D01*
X-119532Y-82351D01*
X-118500Y-82487D01*
X-117468Y-82351D01*
X-116507Y-81953D01*
X-115681Y-81319D01*
X-115047Y-80493D01*
X-114649Y-79532D01*
X-114513Y-78500D01*
X-114649Y-77468D01*
X-115047Y-76507D01*
X-115681Y-75681D01*
X-116507Y-75047D01*
X-117468Y-74649D01*
X-118500Y-74513D01*
D02*
G37*
G36*
X-9898Y-76410D02*
X-10827Y-76533D01*
X-11693Y-76891D01*
X-12436Y-77462D01*
X-13006Y-78205D01*
X-13365Y-79071D01*
X-13487Y-80000D01*
X-13365Y-80929D01*
X-13006Y-81795D01*
X-12436Y-82538D01*
X-11693Y-83109D01*
X-10827Y-83467D01*
X-9898Y-83590D01*
X-8969Y-83467D01*
X-8103Y-83109D01*
X-7359Y-82538D01*
X-6789Y-81795D01*
X-6430Y-80929D01*
X-6308Y-80000D01*
X-6430Y-79071D01*
X-6789Y-78205D01*
X-7359Y-77462D01*
X-8103Y-76891D01*
X-8969Y-76533D01*
X-9898Y-76410D01*
D02*
G37*
G36*
X-22102D02*
X-23031Y-76533D01*
X-23897Y-76891D01*
X-24641Y-77462D01*
X-25211Y-78205D01*
X-25570Y-79071D01*
X-25692Y-80000D01*
X-25570Y-80929D01*
X-25211Y-81795D01*
X-24641Y-82538D01*
X-23897Y-83109D01*
X-23031Y-83467D01*
X-22102Y-83590D01*
X-21173Y-83467D01*
X-20308Y-83109D01*
X-19564Y-82538D01*
X-18994Y-81795D01*
X-18635Y-80929D01*
X-18513Y-80000D01*
X-18635Y-79071D01*
X-18994Y-78205D01*
X-19564Y-77462D01*
X-20308Y-76891D01*
X-21173Y-76533D01*
X-22102Y-76410D01*
D02*
G37*
G36*
X102325Y-71000D02*
X99500D01*
Y-73825D01*
X99878Y-73776D01*
X100696Y-73437D01*
X101398Y-72898D01*
X101937Y-72196D01*
X102276Y-71378D01*
X102325Y-71000D01*
D02*
G37*
G36*
X51953Y-48528D02*
X46047D01*
X45657Y-48605D01*
X45326Y-48826D01*
X45105Y-49157D01*
X45028Y-49547D01*
Y-55453D01*
X45105Y-55843D01*
X45326Y-56174D01*
X45657Y-56395D01*
X46047Y-56472D01*
X51953D01*
X52343Y-56395D01*
X52674Y-56174D01*
X52895Y-55843D01*
X52972Y-55453D01*
Y-49547D01*
X52895Y-49157D01*
X52674Y-48826D01*
X52343Y-48605D01*
X51953Y-48528D01*
D02*
G37*
G36*
X39000Y-48513D02*
X37968Y-48649D01*
X37007Y-49047D01*
X36181Y-49681D01*
X35547Y-50507D01*
X35149Y-51468D01*
X35013Y-52500D01*
X35149Y-53532D01*
X35547Y-54493D01*
X36181Y-55319D01*
X37007Y-55953D01*
X37968Y-56351D01*
X39000Y-56487D01*
X40032Y-56351D01*
X40993Y-55953D01*
X41819Y-55319D01*
X42453Y-54493D01*
X42851Y-53532D01*
X42987Y-52500D01*
X42851Y-51468D01*
X42453Y-50507D01*
X41819Y-49681D01*
X40993Y-49047D01*
X40032Y-48649D01*
X39000Y-48513D01*
D02*
G37*
G36*
X29000D02*
X27968Y-48649D01*
X27007Y-49047D01*
X26181Y-49681D01*
X25547Y-50507D01*
X25149Y-51468D01*
X25013Y-52500D01*
X25025Y-52593D01*
X25005Y-53231D01*
X24976Y-53513D01*
X24933Y-53773D01*
X24881Y-54000D01*
X24821Y-54193D01*
X24755Y-54352D01*
X24688Y-54479D01*
X24631Y-54562D01*
X11824Y-67369D01*
X-39274D01*
X-39360Y-67353D01*
X-39485Y-67316D01*
X-39629Y-67258D01*
X-39790Y-67177D01*
X-39966Y-67069D01*
X-40146Y-66942D01*
X-40587Y-66569D01*
X-40764Y-66395D01*
X-40821Y-66321D01*
X-41606Y-65719D01*
X-42520Y-65341D01*
X-43500Y-65212D01*
X-44480Y-65341D01*
X-45394Y-65719D01*
X-46179Y-66321D01*
X-46781Y-67106D01*
X-47159Y-68019D01*
X-47288Y-69000D01*
X-47159Y-69981D01*
X-46781Y-70894D01*
X-46179Y-71679D01*
X-45394Y-72281D01*
X-44480Y-72659D01*
X-43500Y-72788D01*
X-42520Y-72659D01*
X-41606Y-72281D01*
X-40821Y-71679D01*
X-40764Y-71605D01*
X-40578Y-71422D01*
X-40362Y-71230D01*
X-40158Y-71066D01*
X-39966Y-70931D01*
X-39789Y-70823D01*
X-39629Y-70742D01*
X-39485Y-70684D01*
X-39360Y-70647D01*
X-39274Y-70631D01*
X12500D01*
X13124Y-70507D01*
X13654Y-70153D01*
X26938Y-56869D01*
X27021Y-56812D01*
X27148Y-56745D01*
X27307Y-56679D01*
X27500Y-56619D01*
X27727Y-56567D01*
X27974Y-56526D01*
X28617Y-56476D01*
X28895Y-56473D01*
X29000Y-56487D01*
X30032Y-56351D01*
X30993Y-55953D01*
X31819Y-55319D01*
X32453Y-54493D01*
X32851Y-53532D01*
X32987Y-52500D01*
X32851Y-51468D01*
X32453Y-50507D01*
X31819Y-49681D01*
X30993Y-49047D01*
X30032Y-48649D01*
X29000Y-48513D01*
D02*
G37*
G36*
X22921Y-53000D02*
X19500D01*
Y-56421D01*
X20032Y-56351D01*
X20993Y-55953D01*
X21819Y-55319D01*
X22453Y-54493D01*
X22851Y-53532D01*
X22921Y-53000D01*
D02*
G37*
G36*
X-22813D02*
X-24000D01*
Y-55825D01*
X-23622Y-55776D01*
X-22804Y-55437D01*
X-22102Y-54898D01*
X-21563Y-54196D01*
X-21483Y-54001D01*
X-21526Y-54001D01*
X-22610Y-54075D01*
X-22703Y-54098D01*
X-22770Y-54124D01*
X-22813Y-54154D01*
Y-53000D01*
D02*
G37*
G36*
X-25000Y-55167D02*
X-25062Y-55218D01*
X-25366Y-55496D01*
X-25571Y-55696D01*
X-25378Y-55776D01*
X-25000Y-55825D01*
Y-55167D01*
D02*
G37*
G36*
X-81532Y-53000D02*
X-83000D01*
Y-56222D01*
X-82520Y-56159D01*
X-81606Y-55781D01*
X-80821Y-55179D01*
X-80219Y-54394D01*
X-80066Y-54023D01*
X-80611Y-54069D01*
X-80822Y-54107D01*
X-81010Y-54154D01*
X-81176Y-54210D01*
X-81317Y-54275D01*
X-81436Y-54348D01*
X-81532Y-54429D01*
Y-53000D01*
D02*
G37*
G36*
X-8500Y-59109D02*
X-9378Y-59224D01*
X-10196Y-59563D01*
X-10898Y-60102D01*
X-11437Y-60804D01*
X-11776Y-61622D01*
X-11891Y-62500D01*
X-11776Y-63378D01*
X-11437Y-64196D01*
X-10898Y-64898D01*
X-10196Y-65437D01*
X-9378Y-65776D01*
X-8500Y-65891D01*
X-7622Y-65776D01*
X-6804Y-65437D01*
X-6102Y-64898D01*
X-5563Y-64196D01*
X-5224Y-63378D01*
X-5109Y-62500D01*
X-5224Y-61622D01*
X-5563Y-60804D01*
X-6102Y-60102D01*
X-6804Y-59563D01*
X-7622Y-59224D01*
X-8500Y-59109D01*
D02*
G37*
G36*
X98500Y-68234D02*
X97300Y-70000D01*
X98500D01*
Y-68234D01*
D02*
G37*
G36*
X95684Y-69931D02*
X95675Y-70000D01*
X95753D01*
X95684Y-69931D01*
D02*
G37*
G36*
X-83500Y-65212D02*
X-84481Y-65341D01*
X-85394Y-65719D01*
X-86179Y-66321D01*
X-86781Y-67106D01*
X-87159Y-68019D01*
X-87288Y-69000D01*
X-87159Y-69981D01*
X-86781Y-70894D01*
X-86179Y-71679D01*
X-85394Y-72281D01*
X-84481Y-72659D01*
X-83500Y-72788D01*
X-82520Y-72659D01*
X-81606Y-72281D01*
X-80821Y-71679D01*
X-80219Y-70894D01*
X-79841Y-69981D01*
X-79712Y-69000D01*
X-79841Y-68019D01*
X-80219Y-67106D01*
X-80821Y-66321D01*
X-81606Y-65719D01*
X-82520Y-65341D01*
X-83500Y-65212D01*
D02*
G37*
G36*
X99500Y-67175D02*
Y-70000D01*
X102325D01*
X102276Y-69622D01*
X101937Y-68804D01*
X101398Y-68102D01*
X100696Y-67563D01*
X99878Y-67224D01*
X99500Y-67175D01*
D02*
G37*
G36*
X-24500Y-59109D02*
X-25378Y-59224D01*
X-26196Y-59563D01*
X-26898Y-60102D01*
X-27437Y-60804D01*
X-27776Y-61622D01*
X-27891Y-62500D01*
X-27776Y-63378D01*
X-27437Y-64196D01*
X-26898Y-64898D01*
X-26196Y-65437D01*
X-25378Y-65776D01*
X-24500Y-65891D01*
X-23622Y-65776D01*
X-22804Y-65437D01*
X-22102Y-64898D01*
X-21563Y-64196D01*
X-21224Y-63378D01*
X-21109Y-62500D01*
X-21224Y-61622D01*
X-21563Y-60804D01*
X-22102Y-60102D01*
X-22804Y-59563D01*
X-23622Y-59224D01*
X-24500Y-59109D01*
D02*
G37*
G36*
X98500Y-67175D02*
X98122Y-67224D01*
X97491Y-67486D01*
X98066Y-67982D01*
X98187Y-68064D01*
X98295Y-68126D01*
X98388Y-68166D01*
X98468Y-68186D01*
X98500Y-68185D01*
Y-67175D01*
D02*
G37*
G36*
X96875Y-67892D02*
X96602Y-68102D01*
X96063Y-68804D01*
X95724Y-69622D01*
X95688Y-69897D01*
X96875Y-67892D01*
D02*
G37*
G36*
X8000Y4436D02*
X7143Y4323D01*
X6345Y3992D01*
X5660Y3466D01*
X5134Y2781D01*
X4803Y1983D01*
X4690Y1126D01*
X4803Y269D01*
X5134Y-529D01*
X5660Y-1214D01*
X6345Y-1740D01*
X7143Y-2071D01*
X8000Y-2184D01*
X8857Y-2071D01*
X9655Y-1740D01*
X10340Y-1214D01*
X10866Y-529D01*
X11197Y269D01*
X11310Y1126D01*
X11197Y1983D01*
X10866Y2781D01*
X10340Y3466D01*
X9655Y3992D01*
X8857Y4323D01*
X8000Y4436D01*
D02*
G37*
G36*
X-32000D02*
X-32857Y4323D01*
X-33655Y3992D01*
X-34340Y3466D01*
X-34866Y2781D01*
X-35197Y1983D01*
X-35310Y1126D01*
X-35197Y269D01*
X-34866Y-529D01*
X-34340Y-1214D01*
X-33655Y-1740D01*
X-32857Y-2071D01*
X-32000Y-2184D01*
X-31143Y-2071D01*
X-30345Y-1740D01*
X-29660Y-1214D01*
X-29134Y-529D01*
X-28803Y269D01*
X-28690Y1126D01*
X-28803Y1983D01*
X-29134Y2781D01*
X-29660Y3466D01*
X-30345Y3992D01*
X-31143Y4323D01*
X-32000Y4436D01*
D02*
G37*
G36*
X113500Y-712D02*
X112520Y-841D01*
X111606Y-1219D01*
X110821Y-1821D01*
X110219Y-2606D01*
X109841Y-3520D01*
X109712Y-4500D01*
X109841Y-5480D01*
X110219Y-6394D01*
X110821Y-7179D01*
X111606Y-7781D01*
X112520Y-8159D01*
X113500Y-8288D01*
X114480Y-8159D01*
X115394Y-7781D01*
X116179Y-7179D01*
X116781Y-6394D01*
X117159Y-5480D01*
X117288Y-4500D01*
X117159Y-3520D01*
X116781Y-2606D01*
X116179Y-1821D01*
X115394Y-1219D01*
X114480Y-841D01*
X113500Y-712D01*
D02*
G37*
G36*
X58000Y4436D02*
X57143Y4323D01*
X56345Y3992D01*
X55660Y3466D01*
X55134Y2781D01*
X54803Y1983D01*
X54690Y1126D01*
X54803Y269D01*
X55134Y-529D01*
X55660Y-1214D01*
X56345Y-1740D01*
X57143Y-2071D01*
X58000Y-2184D01*
X58857Y-2071D01*
X59655Y-1740D01*
X60340Y-1214D01*
X60866Y-529D01*
X61197Y269D01*
X61310Y1126D01*
X61197Y1983D01*
X60866Y2781D01*
X60340Y3466D01*
X59655Y3992D01*
X58857Y4323D01*
X58000Y4436D01*
D02*
G37*
G36*
X28000D02*
X27143Y4323D01*
X26345Y3992D01*
X25660Y3466D01*
X25134Y2781D01*
X24803Y1983D01*
X24690Y1126D01*
X24803Y269D01*
X25134Y-529D01*
X25660Y-1214D01*
X26345Y-1740D01*
X27143Y-2071D01*
X28000Y-2184D01*
X28857Y-2071D01*
X29655Y-1740D01*
X30340Y-1214D01*
X30866Y-529D01*
X31197Y269D01*
X31310Y1126D01*
X31197Y1983D01*
X30866Y2781D01*
X30340Y3466D01*
X29655Y3992D01*
X28857Y4323D01*
X28000Y4436D01*
D02*
G37*
G36*
X18000D02*
X17143Y4323D01*
X16345Y3992D01*
X15660Y3466D01*
X15134Y2781D01*
X14803Y1983D01*
X14690Y1126D01*
X14803Y269D01*
X15134Y-529D01*
X15660Y-1214D01*
X16345Y-1740D01*
X17143Y-2071D01*
X18000Y-2184D01*
X18857Y-2071D01*
X19655Y-1740D01*
X20340Y-1214D01*
X20866Y-529D01*
X21197Y269D01*
X21310Y1126D01*
X21197Y1983D01*
X20866Y2781D01*
X20340Y3466D01*
X19655Y3992D01*
X18857Y4323D01*
X18000Y4436D01*
D02*
G37*
G36*
X99500Y-712D02*
X98519Y-841D01*
X97606Y-1219D01*
X96821Y-1821D01*
X96219Y-2606D01*
X95841Y-3520D01*
X95712Y-4500D01*
X95841Y-5480D01*
X96219Y-6394D01*
X96821Y-7179D01*
X97606Y-7781D01*
X98519Y-8159D01*
X99500Y-8288D01*
X100480Y-8159D01*
X101394Y-7781D01*
X102179Y-7179D01*
X102781Y-6394D01*
X103159Y-5480D01*
X103288Y-4500D01*
X103159Y-3520D01*
X102781Y-2606D01*
X102179Y-1821D01*
X101394Y-1219D01*
X100480Y-841D01*
X99500Y-712D01*
D02*
G37*
G36*
X-62843Y-6980D02*
X-68158D01*
X-68548Y-7058D01*
X-68878Y-7279D01*
X-69099Y-7610D01*
X-69177Y-8000D01*
Y-13315D01*
X-69099Y-13705D01*
X-68878Y-14036D01*
X-68548Y-14257D01*
X-68158Y-14334D01*
X-62843D01*
X-62452Y-14257D01*
X-62122Y-14036D01*
X-61901Y-13705D01*
X-61823Y-13315D01*
Y-8000D01*
X-61901Y-7610D01*
X-62122Y-7279D01*
X-62452Y-7058D01*
X-62843Y-6980D01*
D02*
G37*
G36*
X58500Y-26882D02*
Y-29626D01*
X61244D01*
X61197Y-29269D01*
X60866Y-28471D01*
X60340Y-27786D01*
X59655Y-27260D01*
X58857Y-26929D01*
X58500Y-26882D01*
D02*
G37*
G36*
X57500D02*
X57143Y-26929D01*
X56345Y-27260D01*
X55660Y-27786D01*
X55134Y-28471D01*
X54803Y-29269D01*
X54756Y-29626D01*
X57500D01*
Y-26882D01*
D02*
G37*
G36*
X85500Y-712D02*
X84519Y-841D01*
X83606Y-1219D01*
X82821Y-1821D01*
X82219Y-2606D01*
X81841Y-3520D01*
X81712Y-4500D01*
X81841Y-5480D01*
X82219Y-6394D01*
X82821Y-7179D01*
X83606Y-7781D01*
X84519Y-8159D01*
X85500Y-8288D01*
X86480Y-8159D01*
X87394Y-7781D01*
X88179Y-7179D01*
X88781Y-6394D01*
X89159Y-5480D01*
X89288Y-4500D01*
X89159Y-3520D01*
X88781Y-2606D01*
X88179Y-1821D01*
X87394Y-1219D01*
X86480Y-841D01*
X85500Y-712D01*
D02*
G37*
G36*
X-97500Y-1712D02*
X-98480Y-1841D01*
X-99394Y-2219D01*
X-100179Y-2821D01*
X-100781Y-3606D01*
X-101159Y-4519D01*
X-101288Y-5500D01*
X-101159Y-6481D01*
X-100781Y-7394D01*
X-100179Y-8179D01*
X-99394Y-8781D01*
X-98480Y-9159D01*
X-97500Y-9288D01*
X-96520Y-9159D01*
X-95606Y-8781D01*
X-94821Y-8179D01*
X-94219Y-7394D01*
X-93841Y-6481D01*
X-93712Y-5500D01*
X-93841Y-4519D01*
X-94219Y-3606D01*
X-94821Y-2821D01*
X-95606Y-2219D01*
X-96520Y-1841D01*
X-97500Y-1712D01*
D02*
G37*
G36*
X-125000D02*
X-125980Y-1841D01*
X-126894Y-2219D01*
X-127679Y-2821D01*
X-128281Y-3606D01*
X-128659Y-4519D01*
X-128788Y-5500D01*
X-128659Y-6481D01*
X-128281Y-7394D01*
X-127679Y-8179D01*
X-126894Y-8781D01*
X-125980Y-9159D01*
X-125000Y-9288D01*
X-124020Y-9159D01*
X-123106Y-8781D01*
X-122321Y-8179D01*
X-121719Y-7394D01*
X-121341Y-6481D01*
X-121212Y-5500D01*
X-121341Y-4519D01*
X-121719Y-3606D01*
X-122321Y-2821D01*
X-123106Y-2219D01*
X-124020Y-1841D01*
X-125000Y-1712D01*
D02*
G37*
G36*
X-22500Y87034D02*
X-23544Y86897D01*
X-24517Y86494D01*
X-25353Y85853D01*
X-25411Y85776D01*
X-25888Y85328D01*
X-26114Y85145D01*
X-26334Y84986D01*
X-26536Y84859D01*
X-26719Y84763D01*
X-26882Y84694D01*
X-27022Y84651D01*
X-27124Y84631D01*
X-66500D01*
X-67124Y84507D01*
X-67654Y84153D01*
X-120653Y31154D01*
X-121007Y30624D01*
X-121131Y30000D01*
Y27696D01*
X-121139Y27586D01*
X-121158Y27438D01*
X-121617Y27086D01*
X-122093Y26466D01*
X-122392Y25743D01*
X-122494Y24969D01*
Y21032D01*
X-122392Y20256D01*
X-122093Y19534D01*
X-121617Y18914D01*
X-120997Y18439D01*
X-120275Y18139D01*
X-119500Y18037D01*
X-118725Y18139D01*
X-118003Y18439D01*
X-117383Y18914D01*
X-117250Y19087D01*
X-116750D01*
X-116617Y18914D01*
X-116160Y18564D01*
X-116131Y18265D01*
Y-2250D01*
X-116007Y-2874D01*
X-115654Y-3404D01*
X-115392Y-3665D01*
X-115342Y-3737D01*
X-115279Y-3852D01*
X-115219Y-3994D01*
X-115163Y-4165D01*
X-115114Y-4367D01*
X-115077Y-4584D01*
X-115029Y-5159D01*
X-115026Y-5408D01*
X-115038Y-5500D01*
X-114909Y-6481D01*
X-114531Y-7394D01*
X-113929Y-8179D01*
X-113144Y-8781D01*
X-112231Y-9159D01*
X-111250Y-9288D01*
X-110269Y-9159D01*
X-109356Y-8781D01*
X-108571Y-8179D01*
X-107969Y-7394D01*
X-107591Y-6481D01*
X-107462Y-5500D01*
X-107591Y-4519D01*
X-107969Y-3606D01*
X-108571Y-2821D01*
X-109356Y-2219D01*
X-110269Y-1841D01*
X-111250Y-1712D01*
X-111342Y-1724D01*
X-111604Y-1721D01*
X-111892Y-1704D01*
X-112152Y-1675D01*
X-112383Y-1636D01*
X-112584Y-1587D01*
X-112756Y-1531D01*
X-112869Y-1483D01*
Y18304D01*
X-112861Y18415D01*
X-112842Y18562D01*
X-112383Y18914D01*
X-112250Y19087D01*
X-111750D01*
X-111617Y18914D01*
X-110997Y18439D01*
X-110275Y18139D01*
X-109500Y18037D01*
X-108725Y18139D01*
X-108003Y18439D01*
X-107383Y18914D01*
X-106907Y19534D01*
X-106608Y20257D01*
X-106506Y21032D01*
Y24969D01*
X-106608Y25743D01*
X-106907Y26466D01*
X-107383Y27086D01*
X-108003Y27562D01*
X-108725Y27861D01*
X-109500Y27963D01*
X-110275Y27861D01*
X-110997Y27562D01*
X-111617Y27086D01*
X-111750Y26913D01*
X-112250D01*
X-112383Y27086D01*
X-113003Y27562D01*
X-113725Y27861D01*
X-114500Y27963D01*
X-115275Y27861D01*
X-115997Y27562D01*
X-116617Y27086D01*
X-116750Y26913D01*
X-117250D01*
X-117383Y27086D01*
X-117840Y27436D01*
X-117869Y27735D01*
Y29324D01*
X-65824Y81369D01*
X-27124D01*
X-27022Y81349D01*
X-26882Y81306D01*
X-26719Y81237D01*
X-26536Y81141D01*
X-26334Y81014D01*
X-26125Y80863D01*
X-25622Y80433D01*
X-25419Y80234D01*
X-25353Y80147D01*
X-24517Y79506D01*
X-23544Y79103D01*
X-22500Y78966D01*
X-21456Y79103D01*
X-20483Y79506D01*
X-19647Y80147D01*
X-19006Y80983D01*
X-18603Y81956D01*
X-18465Y83000D01*
X-18603Y84044D01*
X-19006Y85017D01*
X-19647Y85853D01*
X-20483Y86494D01*
X-21456Y86897D01*
X-22500Y87034D01*
D02*
G37*
G36*
X119500Y62463D02*
X118725Y62361D01*
X118003Y62062D01*
X117383Y61586D01*
X117250Y61413D01*
X116750D01*
X116617Y61586D01*
X115997Y62062D01*
X115275Y62361D01*
X114500Y62463D01*
X113725Y62361D01*
X113003Y62062D01*
X112383Y61586D01*
X111907Y60966D01*
X111608Y60243D01*
X111506Y59469D01*
Y55532D01*
X111608Y54757D01*
X111907Y54034D01*
X112383Y53414D01*
X113003Y52938D01*
X113725Y52639D01*
X114500Y52537D01*
X115275Y52639D01*
X115997Y52938D01*
X116617Y53414D01*
X116750Y53588D01*
X117250D01*
X117383Y53414D01*
X118003Y52938D01*
X118725Y52639D01*
X119500Y52537D01*
X120275Y52639D01*
X120997Y52938D01*
X121617Y53414D01*
X121750Y53588D01*
X122250D01*
X122383Y53414D01*
X123003Y52938D01*
X123725Y52639D01*
X124500Y52537D01*
X125275Y52639D01*
X125997Y52938D01*
X126617Y53414D01*
X127093Y54034D01*
X127392Y54757D01*
X127494Y55532D01*
Y59469D01*
X127392Y60243D01*
X127093Y60966D01*
X126617Y61586D01*
X125997Y62062D01*
X125275Y62361D01*
X124500Y62463D01*
X123725Y62361D01*
X123003Y62062D01*
X122383Y61586D01*
X122250Y61413D01*
X121750D01*
X121617Y61586D01*
X120997Y62062D01*
X120275Y62361D01*
X119500Y62463D01*
D02*
G37*
G36*
X-114500Y58963D02*
X-115275Y58861D01*
X-115997Y58561D01*
X-116617Y58086D01*
X-116750Y57912D01*
X-117250D01*
X-117383Y58086D01*
X-118003Y58561D01*
X-118725Y58861D01*
X-119500Y58963D01*
X-120275Y58861D01*
X-120997Y58561D01*
X-121617Y58086D01*
X-122093Y57466D01*
X-122392Y56743D01*
X-122494Y55968D01*
Y52031D01*
X-122392Y51257D01*
X-122093Y50534D01*
X-121617Y49914D01*
X-120997Y49439D01*
X-120275Y49139D01*
X-119500Y49037D01*
X-118725Y49139D01*
X-118003Y49439D01*
X-117383Y49914D01*
X-117250Y50087D01*
X-116750D01*
X-116617Y49914D01*
X-115997Y49439D01*
X-115275Y49139D01*
X-114500Y49037D01*
X-113725Y49139D01*
X-113003Y49439D01*
X-112383Y49914D01*
X-112250Y50087D01*
X-111750D01*
X-111617Y49914D01*
X-110997Y49439D01*
X-110275Y49139D01*
X-109500Y49037D01*
X-108725Y49139D01*
X-108003Y49439D01*
X-107383Y49914D01*
X-106907Y50534D01*
X-106608Y51257D01*
X-106506Y52031D01*
Y55968D01*
X-106608Y56743D01*
X-106907Y57466D01*
X-107383Y58086D01*
X-108003Y58561D01*
X-108725Y58861D01*
X-109500Y58963D01*
X-110275Y58861D01*
X-110997Y58561D01*
X-111617Y58086D01*
X-111750Y57912D01*
X-112250D01*
X-112383Y58086D01*
X-113003Y58561D01*
X-113725Y58861D01*
X-114500Y58963D01*
D02*
G37*
G36*
X27500Y87034D02*
X26456Y86897D01*
X25483Y86494D01*
X24647Y85853D01*
X24006Y85017D01*
X23603Y84044D01*
X23465Y83000D01*
X23603Y81956D01*
X24006Y80983D01*
X24647Y80147D01*
X25483Y79506D01*
X26456Y79103D01*
X27500Y78966D01*
X28544Y79103D01*
X29517Y79506D01*
X30353Y80147D01*
X30994Y80983D01*
X31397Y81956D01*
X31534Y83000D01*
X31397Y84044D01*
X30994Y85017D01*
X30353Y85853D01*
X29517Y86494D01*
X28544Y86897D01*
X27500Y87034D01*
D02*
G37*
G36*
X17500D02*
X16456Y86897D01*
X15483Y86494D01*
X14647Y85853D01*
X14006Y85017D01*
X13603Y84044D01*
X13465Y83000D01*
X13603Y81956D01*
X14006Y80983D01*
X14647Y80147D01*
X15483Y79506D01*
X16456Y79103D01*
X17500Y78966D01*
X18544Y79103D01*
X19517Y79506D01*
X20353Y80147D01*
X20994Y80983D01*
X21397Y81956D01*
X21534Y83000D01*
X21397Y84044D01*
X20994Y85017D01*
X20353Y85853D01*
X19517Y86494D01*
X18544Y86897D01*
X17500Y87034D01*
D02*
G37*
G36*
X7500D02*
X6456Y86897D01*
X5483Y86494D01*
X4647Y85853D01*
X4006Y85017D01*
X3603Y84044D01*
X3466Y83000D01*
X3603Y81956D01*
X4006Y80983D01*
X4647Y80147D01*
X5483Y79506D01*
X6456Y79103D01*
X7500Y78966D01*
X8544Y79103D01*
X9517Y79506D01*
X10353Y80147D01*
X10994Y80983D01*
X11397Y81956D01*
X11535Y83000D01*
X11397Y84044D01*
X10994Y85017D01*
X10353Y85853D01*
X9517Y86494D01*
X8544Y86897D01*
X7500Y87034D01*
D02*
G37*
G36*
X119500Y28463D02*
X118725Y28361D01*
X118003Y28062D01*
X117383Y27586D01*
X117250Y27413D01*
X116750D01*
X116617Y27586D01*
X115997Y28062D01*
X115275Y28361D01*
X114500Y28463D01*
X113725Y28361D01*
X113003Y28062D01*
X112383Y27586D01*
X111907Y26966D01*
X111608Y26243D01*
X111506Y25469D01*
Y24631D01*
X86306D01*
X86237Y24643D01*
X86126Y24673D01*
X86003Y24721D01*
X85866Y24787D01*
X85717Y24875D01*
X85568Y24977D01*
X85193Y25289D01*
X85043Y25436D01*
X84996Y25496D01*
X84265Y26057D01*
X83414Y26410D01*
X82500Y26530D01*
X81586Y26410D01*
X80735Y26057D01*
X80004Y25496D01*
X79443Y24765D01*
X79090Y23914D01*
X78970Y23000D01*
X79090Y22086D01*
X79443Y21235D01*
X80004Y20504D01*
X80735Y19943D01*
X81586Y19590D01*
X82500Y19470D01*
X83414Y19590D01*
X84265Y19943D01*
X84996Y20504D01*
X85043Y20564D01*
X85203Y20720D01*
X85384Y20880D01*
X85556Y21014D01*
X85717Y21125D01*
X85866Y21213D01*
X86003Y21279D01*
X86126Y21327D01*
X86237Y21357D01*
X86306Y21369D01*
X111527D01*
X111608Y20756D01*
X111907Y20034D01*
X112383Y19414D01*
X113003Y18938D01*
X113725Y18639D01*
X114500Y18537D01*
X115275Y18639D01*
X115997Y18938D01*
X116617Y19414D01*
X116750Y19588D01*
X117250D01*
X117383Y19414D01*
X118003Y18938D01*
X118725Y18639D01*
X119500Y18537D01*
X120275Y18639D01*
X120997Y18938D01*
X121617Y19414D01*
X121750Y19588D01*
X122250D01*
X122383Y19414D01*
X123003Y18938D01*
X123725Y18639D01*
X124500Y18537D01*
X125275Y18639D01*
X125997Y18938D01*
X126617Y19414D01*
X127093Y20034D01*
X127392Y20757D01*
X127494Y21531D01*
Y25469D01*
X127392Y26243D01*
X127093Y26966D01*
X126617Y27586D01*
X125997Y28062D01*
X125275Y28361D01*
X124500Y28463D01*
X123725Y28361D01*
X123003Y28062D01*
X122383Y27586D01*
X122250Y27413D01*
X121750D01*
X121617Y27586D01*
X120997Y28062D01*
X120275Y28361D01*
X119500Y28463D01*
D02*
G37*
G36*
X-2500Y27035D02*
X-3544Y26897D01*
X-4517Y26494D01*
X-5353Y25853D01*
X-5994Y25017D01*
X-6397Y24044D01*
X-6534Y23000D01*
X-6522Y22905D01*
X-6542Y22250D01*
X-6572Y21961D01*
X-6615Y21694D01*
X-6668Y21461D01*
X-6730Y21263D01*
X-6796Y21100D01*
X-6865Y20970D01*
X-6923Y20884D01*
X-23154Y4654D01*
X-23507Y4124D01*
X-23523Y4047D01*
X-23655Y3992D01*
X-24340Y3466D01*
X-24866Y2781D01*
X-25197Y1983D01*
X-25310Y1126D01*
X-25197Y269D01*
X-24866Y-529D01*
X-24340Y-1214D01*
X-23655Y-1740D01*
X-22857Y-2071D01*
X-22000Y-2184D01*
X-21143Y-2071D01*
X-20345Y-1740D01*
X-19660Y-1214D01*
X-19134Y-529D01*
X-18803Y269D01*
X-18690Y1126D01*
X-18803Y1983D01*
X-19134Y2781D01*
X-19660Y3466D01*
X-19664Y3529D01*
X-4616Y18577D01*
X-4530Y18635D01*
X-4400Y18704D01*
X-4237Y18770D01*
X-4039Y18832D01*
X-3806Y18885D01*
X-3552Y18926D01*
X-2893Y18977D01*
X-2608Y18980D01*
X-2500Y18966D01*
X-1456Y19103D01*
X-483Y19506D01*
X353Y20147D01*
X994Y20983D01*
X1397Y21956D01*
X1534Y23000D01*
X1397Y24044D01*
X994Y25017D01*
X353Y25853D01*
X-483Y26494D01*
X-1456Y26897D01*
X-2500Y27035D01*
D02*
G37*
G36*
X-12500D02*
X-13544Y26897D01*
X-14517Y26494D01*
X-15353Y25853D01*
X-15994Y25017D01*
X-16397Y24044D01*
X-16534Y23000D01*
X-16397Y21956D01*
X-15994Y20983D01*
X-15353Y20147D01*
X-14517Y19506D01*
X-13544Y19103D01*
X-12500Y18966D01*
X-11456Y19103D01*
X-10483Y19506D01*
X-9647Y20147D01*
X-9006Y20983D01*
X-8603Y21956D01*
X-8466Y23000D01*
X-8603Y24044D01*
X-9006Y25017D01*
X-9647Y25853D01*
X-10483Y26494D01*
X-11456Y26897D01*
X-12500Y27035D01*
D02*
G37*
G36*
X31500Y92131D02*
X-5000D01*
X-5624Y92007D01*
X-6154Y91654D01*
X-10384Y87423D01*
X-10470Y87365D01*
X-10600Y87296D01*
X-10763Y87230D01*
X-10961Y87169D01*
X-11194Y87115D01*
X-11448Y87074D01*
X-12107Y87023D01*
X-12392Y87020D01*
X-12500Y87034D01*
X-13544Y86897D01*
X-14517Y86494D01*
X-15353Y85853D01*
X-15994Y85017D01*
X-16397Y84044D01*
X-16534Y83000D01*
X-16397Y81956D01*
X-15994Y80983D01*
X-15353Y80147D01*
X-14517Y79506D01*
X-13544Y79103D01*
X-12500Y78966D01*
X-11456Y79103D01*
X-10483Y79506D01*
X-9647Y80147D01*
X-9006Y80983D01*
X-8603Y81956D01*
X-8466Y83000D01*
X-8478Y83096D01*
X-8458Y83750D01*
X-8428Y84039D01*
X-8385Y84306D01*
X-8331Y84539D01*
X-8270Y84737D01*
X-8204Y84900D01*
X-8135Y85030D01*
X-8077Y85116D01*
X-4324Y88869D01*
X30824D01*
X46369Y73324D01*
Y4570D01*
X46360Y4516D01*
X46335Y4418D01*
X46296Y4311D01*
X46243Y4195D01*
X46172Y4069D01*
X46082Y3934D01*
X45972Y3791D01*
X45841Y3641D01*
X45709Y3504D01*
X45660Y3466D01*
X45134Y2781D01*
X45131Y2775D01*
X44631Y2875D01*
Y60500D01*
X44507Y61124D01*
X44153Y61654D01*
X30154Y75653D01*
X29624Y76007D01*
X29000Y76131D01*
X6676D01*
X1923Y80884D01*
X1865Y80970D01*
X1796Y81100D01*
X1730Y81263D01*
X1668Y81461D01*
X1615Y81694D01*
X1574Y81948D01*
X1523Y82607D01*
X1520Y82892D01*
X1534Y83000D01*
X1397Y84044D01*
X994Y85017D01*
X353Y85853D01*
X-483Y86494D01*
X-1456Y86897D01*
X-2500Y87034D01*
X-3544Y86897D01*
X-4517Y86494D01*
X-5353Y85853D01*
X-5994Y85017D01*
X-6397Y84044D01*
X-6534Y83000D01*
X-6397Y81956D01*
X-5994Y80983D01*
X-5353Y80147D01*
X-4517Y79506D01*
X-3544Y79103D01*
X-2500Y78966D01*
X-2404Y78978D01*
X-1750Y78958D01*
X-1461Y78928D01*
X-1194Y78885D01*
X-961Y78831D01*
X-763Y78770D01*
X-600Y78704D01*
X-470Y78635D01*
X-384Y78577D01*
X4846Y73347D01*
X5376Y72993D01*
X6000Y72869D01*
X6000Y72869D01*
X28324D01*
X41369Y59824D01*
Y25775D01*
X40869Y25594D01*
X40265Y26057D01*
X39414Y26410D01*
X38500Y26530D01*
X37586Y26410D01*
X36735Y26057D01*
X36004Y25496D01*
X35957Y25436D01*
X35797Y25280D01*
X35616Y25120D01*
X35444Y24985D01*
X35283Y24875D01*
X35134Y24787D01*
X34997Y24721D01*
X34874Y24673D01*
X34763Y24643D01*
X34694Y24631D01*
X32124D01*
X32022Y24651D01*
X31882Y24694D01*
X31719Y24763D01*
X31536Y24859D01*
X31334Y24986D01*
X31125Y25137D01*
X30622Y25567D01*
X30419Y25766D01*
X30353Y25853D01*
X29517Y26494D01*
X28544Y26897D01*
X27500Y27035D01*
X26456Y26897D01*
X25483Y26494D01*
X24647Y25853D01*
X24006Y25017D01*
X23603Y24044D01*
X23465Y23000D01*
X23603Y21956D01*
X24006Y20983D01*
X24647Y20147D01*
X25483Y19506D01*
X26456Y19103D01*
X27500Y18966D01*
X28544Y19103D01*
X29517Y19506D01*
X30353Y20147D01*
X30411Y20224D01*
X30888Y20672D01*
X31114Y20855D01*
X31334Y21014D01*
X31536Y21141D01*
X31719Y21237D01*
X31882Y21306D01*
X32022Y21349D01*
X32124Y21369D01*
X34694D01*
X34763Y21357D01*
X34874Y21327D01*
X34997Y21279D01*
X35134Y21213D01*
X35283Y21125D01*
X35432Y21023D01*
X35807Y20710D01*
X35957Y20564D01*
X36004Y20504D01*
X36735Y19943D01*
X37586Y19590D01*
X38500Y19470D01*
X39414Y19590D01*
X40265Y19943D01*
X40869Y20406D01*
X41369Y20225D01*
Y2875D01*
X40869Y2775D01*
X40866Y2781D01*
X40340Y3466D01*
X39655Y3992D01*
X38857Y4323D01*
X38000Y4436D01*
X37143Y4323D01*
X36345Y3992D01*
X35660Y3466D01*
X35134Y2781D01*
X34803Y1983D01*
X34690Y1126D01*
X34803Y269D01*
X35134Y-529D01*
X35660Y-1214D01*
X36345Y-1740D01*
X37143Y-2071D01*
X38000Y-2184D01*
X38857Y-2071D01*
X39655Y-1740D01*
X40340Y-1214D01*
X40866Y-529D01*
X40869Y-523D01*
X41369Y-623D01*
Y-1324D01*
X37824Y-4869D01*
X6302D01*
X1589Y-156D01*
X1557Y-112D01*
X1505Y-24D01*
X1457Y79D01*
X1412Y199D01*
X1374Y338D01*
X1342Y496D01*
X1319Y675D01*
X1305Y874D01*
X1302Y1064D01*
X1310Y1126D01*
X1197Y1983D01*
X866Y2781D01*
X340Y3466D01*
X-345Y3992D01*
X-1143Y4323D01*
X-2000Y4436D01*
X-2857Y4323D01*
X-3655Y3992D01*
X-4340Y3466D01*
X-4866Y2781D01*
X-5197Y1983D01*
X-5310Y1126D01*
X-5197Y269D01*
X-4866Y-529D01*
X-4340Y-1214D01*
X-3655Y-1740D01*
X-2857Y-2071D01*
X-2000Y-2184D01*
X-1938Y-2176D01*
X-1749Y-2179D01*
X-1550Y-2193D01*
X-1370Y-2216D01*
X-1212Y-2248D01*
X-1073Y-2286D01*
X-953Y-2331D01*
X-850Y-2379D01*
X-763Y-2431D01*
X-718Y-2463D01*
X4473Y-7654D01*
X5002Y-8007D01*
X5626Y-8131D01*
X38500D01*
X39124Y-8007D01*
X39654Y-7654D01*
X44153Y-3153D01*
X44507Y-2624D01*
X44631Y-2000D01*
Y-623D01*
X45131Y-523D01*
X45134Y-529D01*
X45660Y-1214D01*
X46345Y-1740D01*
X47143Y-2071D01*
X48000Y-2184D01*
X48857Y-2071D01*
X49655Y-1740D01*
X50340Y-1214D01*
X50866Y-529D01*
X51197Y269D01*
X51310Y1126D01*
X51197Y1983D01*
X50866Y2781D01*
X50340Y3466D01*
X50291Y3504D01*
X50159Y3641D01*
X50028Y3791D01*
X49918Y3934D01*
X49828Y4069D01*
X49757Y4195D01*
X49704Y4311D01*
X49665Y4417D01*
X49640Y4516D01*
X49631Y4570D01*
Y74000D01*
X49507Y74624D01*
X49154Y75153D01*
X32653Y91654D01*
X32124Y92007D01*
X31500Y92131D01*
D02*
G37*
G36*
X-19500Y27020D02*
X-25500D01*
X-25890Y26942D01*
X-26221Y26721D01*
X-26442Y26390D01*
X-26520Y26000D01*
Y20000D01*
X-26442Y19610D01*
X-26221Y19279D01*
X-25890Y19058D01*
X-25500Y18980D01*
X-19500D01*
X-19110Y19058D01*
X-18779Y19279D01*
X-18558Y19610D01*
X-18480Y20000D01*
Y26000D01*
X-18558Y26390D01*
X-18779Y26721D01*
X-19110Y26942D01*
X-19500Y27020D01*
D02*
G37*
G36*
X17500Y27035D02*
X16456Y26897D01*
X15483Y26494D01*
X14647Y25853D01*
X14006Y25017D01*
X13603Y24044D01*
X13465Y23000D01*
X13603Y21956D01*
X13763Y21570D01*
X6824Y14631D01*
X-126D01*
X-750Y14507D01*
X-1280Y14153D01*
X-11120Y4313D01*
X-11143Y4323D01*
X-12000Y4436D01*
X-12857Y4323D01*
X-13655Y3992D01*
X-14340Y3466D01*
X-14866Y2781D01*
X-15197Y1983D01*
X-15310Y1126D01*
X-15197Y269D01*
X-14866Y-529D01*
X-14340Y-1214D01*
X-13655Y-1740D01*
X-12857Y-2071D01*
X-12000Y-2184D01*
X-11143Y-2071D01*
X-10345Y-1740D01*
X-9660Y-1214D01*
X-9134Y-529D01*
X-8803Y269D01*
X-8690Y1126D01*
X-8803Y1983D01*
X-8813Y2006D01*
X550Y11369D01*
X7500D01*
X8124Y11493D01*
X8653Y11846D01*
X16070Y19263D01*
X16456Y19103D01*
X17500Y18966D01*
X18544Y19103D01*
X19517Y19506D01*
X20353Y20147D01*
X20994Y20983D01*
X21397Y21956D01*
X21534Y23000D01*
X21397Y24044D01*
X20994Y25017D01*
X20353Y25853D01*
X19517Y26494D01*
X18544Y26897D01*
X17500Y27035D01*
D02*
G37*
G36*
X7500D02*
X6456Y26897D01*
X5483Y26494D01*
X4647Y25853D01*
X4006Y25017D01*
X3603Y24044D01*
X3466Y23000D01*
X3603Y21956D01*
X4006Y20983D01*
X4647Y20147D01*
X5483Y19506D01*
X6456Y19103D01*
X7500Y18966D01*
X8544Y19103D01*
X9517Y19506D01*
X10353Y20147D01*
X10994Y20983D01*
X11397Y21956D01*
X11535Y23000D01*
X11397Y24044D01*
X10994Y25017D01*
X10353Y25853D01*
X9517Y26494D01*
X8544Y26897D01*
X7500Y27035D01*
D02*
G37*
G36*
X8000Y-26816D02*
X7143Y-26929D01*
X6345Y-27260D01*
X5660Y-27786D01*
X5134Y-28471D01*
X4803Y-29269D01*
X4690Y-30126D01*
X4803Y-30983D01*
X5134Y-31781D01*
X5660Y-32466D01*
X6345Y-32992D01*
X7143Y-33323D01*
X8000Y-33436D01*
X8857Y-33323D01*
X9655Y-32992D01*
X10340Y-32466D01*
X10866Y-31781D01*
X11197Y-30983D01*
X11310Y-30126D01*
X11197Y-29269D01*
X10866Y-28471D01*
X10340Y-27786D01*
X9655Y-27260D01*
X8857Y-26929D01*
X8000Y-26816D01*
D02*
G37*
G36*
X-2000D02*
X-2857Y-26929D01*
X-3655Y-27260D01*
X-4340Y-27786D01*
X-4866Y-28471D01*
X-5197Y-29269D01*
X-5310Y-30126D01*
X-5197Y-30983D01*
X-4866Y-31781D01*
X-4340Y-32466D01*
X-3655Y-32992D01*
X-2857Y-33323D01*
X-2000Y-33436D01*
X-1143Y-33323D01*
X-345Y-32992D01*
X340Y-32466D01*
X866Y-31781D01*
X1197Y-30983D01*
X1310Y-30126D01*
X1197Y-29269D01*
X866Y-28471D01*
X340Y-27786D01*
X-345Y-27260D01*
X-1143Y-26929D01*
X-2000Y-26816D01*
D02*
G37*
G36*
X-12000D02*
X-12857Y-26929D01*
X-13655Y-27260D01*
X-14340Y-27786D01*
X-14866Y-28471D01*
X-15197Y-29269D01*
X-15310Y-30126D01*
X-15302Y-30188D01*
X-15305Y-30378D01*
X-15318Y-30577D01*
X-15342Y-30756D01*
X-15374Y-30914D01*
X-15413Y-31053D01*
X-15457Y-31173D01*
X-15505Y-31276D01*
X-15556Y-31363D01*
X-15589Y-31408D01*
X-21176Y-36995D01*
X-118126D01*
X-118750Y-37119D01*
X-119280Y-37473D01*
X-123165Y-41358D01*
X-123237Y-41408D01*
X-123352Y-41471D01*
X-123494Y-41531D01*
X-123665Y-41587D01*
X-123867Y-41636D01*
X-124084Y-41673D01*
X-124659Y-41721D01*
X-124908Y-41724D01*
X-125000Y-41712D01*
X-125980Y-41841D01*
X-126894Y-42219D01*
X-127679Y-42821D01*
X-128281Y-43606D01*
X-128659Y-44519D01*
X-128788Y-45500D01*
X-128659Y-46481D01*
X-128281Y-47394D01*
X-127679Y-48179D01*
X-126894Y-48781D01*
X-125980Y-49159D01*
X-125000Y-49288D01*
X-124020Y-49159D01*
X-123106Y-48781D01*
X-122321Y-48179D01*
X-121719Y-47394D01*
X-121341Y-46481D01*
X-121212Y-45500D01*
X-121224Y-45408D01*
X-121221Y-45146D01*
X-121204Y-44858D01*
X-121176Y-44598D01*
X-121136Y-44367D01*
X-121087Y-44166D01*
X-121031Y-43994D01*
X-120971Y-43852D01*
X-120908Y-43737D01*
X-120858Y-43665D01*
X-117450Y-40257D01*
X-20500D01*
X-19876Y-40133D01*
X-19346Y-39779D01*
X-13282Y-33715D01*
X-13238Y-33683D01*
X-13150Y-33631D01*
X-13047Y-33583D01*
X-12927Y-33538D01*
X-12788Y-33500D01*
X-12630Y-33468D01*
X-12450Y-33444D01*
X-12252Y-33431D01*
X-12062Y-33428D01*
X-12000Y-33436D01*
X-11143Y-33323D01*
X-10345Y-32992D01*
X-9660Y-32466D01*
X-9134Y-31781D01*
X-8803Y-30983D01*
X-8690Y-30126D01*
X-8803Y-29269D01*
X-9134Y-28471D01*
X-9660Y-27786D01*
X-10345Y-27260D01*
X-11143Y-26929D01*
X-12000Y-26816D01*
D02*
G37*
G36*
X58500Y-32803D02*
Y-33370D01*
X58857Y-33323D01*
X59011Y-33259D01*
X58938Y-33187D01*
X58500Y-32803D01*
D02*
G37*
G36*
X57500Y-32772D02*
X57381Y-32879D01*
X56990Y-33260D01*
X57143Y-33323D01*
X57500Y-33370D01*
Y-32772D01*
D02*
G37*
G36*
X-29719Y-26825D02*
X-34282D01*
X-34672Y-26902D01*
X-35002Y-27124D01*
X-35223Y-27454D01*
X-35301Y-27845D01*
Y-32408D01*
X-35223Y-32798D01*
X-35002Y-33128D01*
X-34672Y-33349D01*
X-34282Y-33427D01*
X-29719D01*
X-29328Y-33349D01*
X-28998Y-33128D01*
X-28776Y-32798D01*
X-28699Y-32408D01*
Y-27845D01*
X-28776Y-27454D01*
X-28998Y-27124D01*
X-29328Y-26902D01*
X-29719Y-26825D01*
D02*
G37*
G36*
X-98000Y-41778D02*
X-98480Y-41841D01*
X-99394Y-42219D01*
X-100179Y-42821D01*
X-100781Y-43606D01*
X-101159Y-44519D01*
X-101223Y-45000D01*
X-98000D01*
Y-41778D01*
D02*
G37*
G36*
X9000Y-39470D02*
X8086Y-39590D01*
X7235Y-39943D01*
X6504Y-40504D01*
X6457Y-40564D01*
X6297Y-40720D01*
X6116Y-40880D01*
X5944Y-41015D01*
X5783Y-41125D01*
X5634Y-41213D01*
X5497Y-41279D01*
X5374Y-41327D01*
X5263Y-41357D01*
X5194Y-41369D01*
X-34000D01*
X-34624Y-41493D01*
X-35153Y-41846D01*
X-41665Y-48358D01*
X-41737Y-48408D01*
X-41852Y-48471D01*
X-41994Y-48531D01*
X-42165Y-48587D01*
X-42367Y-48636D01*
X-42584Y-48673D01*
X-43159Y-48721D01*
X-43408Y-48724D01*
X-43500Y-48712D01*
X-44480Y-48841D01*
X-45394Y-49219D01*
X-46179Y-49821D01*
X-46781Y-50606D01*
X-47159Y-51520D01*
X-47288Y-52500D01*
X-47159Y-53480D01*
X-46781Y-54394D01*
X-46179Y-55179D01*
X-45394Y-55781D01*
X-44480Y-56159D01*
X-43500Y-56288D01*
X-42520Y-56159D01*
X-41606Y-55781D01*
X-40821Y-55179D01*
X-40219Y-54394D01*
X-39841Y-53480D01*
X-39712Y-52500D01*
X-39724Y-52408D01*
X-39721Y-52146D01*
X-39704Y-51858D01*
X-39676Y-51598D01*
X-39636Y-51367D01*
X-39587Y-51165D01*
X-39531Y-50994D01*
X-39471Y-50852D01*
X-39408Y-50737D01*
X-39358Y-50665D01*
X-33324Y-44631D01*
X5194D01*
X5263Y-44643D01*
X5374Y-44673D01*
X5497Y-44721D01*
X5634Y-44787D01*
X5783Y-44875D01*
X5932Y-44977D01*
X6307Y-45289D01*
X6457Y-45436D01*
X6504Y-45496D01*
X7235Y-46057D01*
X8086Y-46410D01*
X9000Y-46530D01*
X9914Y-46410D01*
X10765Y-46057D01*
X11496Y-45496D01*
X12057Y-44765D01*
X12410Y-43914D01*
X12530Y-43000D01*
X12410Y-42086D01*
X12057Y-41235D01*
X11496Y-40504D01*
X10765Y-39943D01*
X9914Y-39590D01*
X9000Y-39470D01*
D02*
G37*
G36*
X-100385Y-46000D02*
X-101223D01*
X-101159Y-46481D01*
X-101006Y-46851D01*
X-100652Y-46434D01*
X-100530Y-46257D01*
X-100430Y-46090D01*
X-100385Y-46000D01*
D02*
G37*
G36*
X-22000Y-26816D02*
X-22857Y-26929D01*
X-23655Y-27260D01*
X-24340Y-27786D01*
X-24866Y-28471D01*
X-25197Y-29269D01*
X-25310Y-30126D01*
X-25197Y-30983D01*
X-24866Y-31781D01*
X-24340Y-32466D01*
X-23655Y-32992D01*
X-22857Y-33323D01*
X-22000Y-33436D01*
X-21143Y-33323D01*
X-20345Y-32992D01*
X-19660Y-32466D01*
X-19134Y-31781D01*
X-18803Y-30983D01*
X-18690Y-30126D01*
X-18803Y-29269D01*
X-19134Y-28471D01*
X-19660Y-27786D01*
X-20345Y-27260D01*
X-21143Y-26929D01*
X-22000Y-26816D01*
D02*
G37*
G36*
X-65500Y-26654D02*
X-66455Y-26779D01*
X-67344Y-27148D01*
X-68109Y-27734D01*
X-68695Y-28498D01*
X-69063Y-29388D01*
X-69189Y-30343D01*
X-69063Y-31297D01*
X-68695Y-32187D01*
X-68109Y-32951D01*
X-67344Y-33537D01*
X-66455Y-33906D01*
X-65500Y-34032D01*
X-64545Y-33906D01*
X-63656Y-33537D01*
X-62891Y-32951D01*
X-62305Y-32187D01*
X-61937Y-31297D01*
X-61811Y-30343D01*
X-61937Y-29388D01*
X-62305Y-28498D01*
X-62891Y-27734D01*
X-63656Y-27148D01*
X-64545Y-26779D01*
X-65500Y-26654D01*
D02*
G37*
G36*
X-97000Y-41778D02*
Y-45000D01*
X-93778D01*
X-93841Y-44519D01*
X-94219Y-43606D01*
X-94821Y-42821D01*
X-95606Y-42219D01*
X-96520Y-41841D01*
X-97000Y-41778D01*
D02*
G37*
G36*
X55323Y-30626D02*
X54756D01*
X54803Y-30983D01*
X54867Y-31137D01*
X54939Y-31064D01*
X55323Y-30626D01*
D02*
G37*
G36*
X59804D02*
X58500D01*
Y-31930D01*
X59804Y-30626D01*
D02*
G37*
G36*
X61244D02*
X60646D01*
X60753Y-30745D01*
X61134Y-31136D01*
X61197Y-30983D01*
X61244Y-30626D01*
D02*
G37*
G36*
X55025Y-31518D02*
X55134Y-31781D01*
X55660Y-32466D01*
X56345Y-32992D01*
X56608Y-33101D01*
X55025Y-31518D01*
D02*
G37*
G36*
X60975D02*
X59392Y-33101D01*
X59655Y-32992D01*
X60340Y-32466D01*
X60866Y-31781D01*
X60975Y-31518D01*
D02*
G37*
G36*
X57500Y-30626D02*
X56196D01*
X57500Y-31930D01*
Y-30626D01*
D02*
G37*
%LPD*%
G36*
X83016Y-41148D02*
X83201Y-41277D01*
X83407Y-41390D01*
X83636Y-41487D01*
X83887Y-41569D01*
X84160Y-41635D01*
X84455Y-41686D01*
X84772Y-41721D01*
X85111Y-41740D01*
X85472Y-41744D01*
X82744Y-44472D01*
X82740Y-44111D01*
X82686Y-43455D01*
X82635Y-43160D01*
X82569Y-42887D01*
X82487Y-42636D01*
X82390Y-42407D01*
X82277Y-42200D01*
X82148Y-42016D01*
X82004Y-41853D01*
X82853Y-41004D01*
X83016Y-41148D01*
D02*
G37*
G36*
X20286Y-30421D02*
X20304Y-30679D01*
X20336Y-30922D01*
X20381Y-31151D01*
X20441Y-31366D01*
X20515Y-31567D01*
X20603Y-31753D01*
X20704Y-31925D01*
X20819Y-32083D01*
X20949Y-32226D01*
X20100Y-33075D01*
X19957Y-32945D01*
X19799Y-32830D01*
X19627Y-32728D01*
X19441Y-32641D01*
X19240Y-32567D01*
X19025Y-32508D01*
X18796Y-32462D01*
X18553Y-32430D01*
X18295Y-32412D01*
X18023Y-32407D01*
X20281Y-30149D01*
X20286Y-30421D01*
D02*
G37*
G36*
X30949Y-28026D02*
X30819Y-28169D01*
X30704Y-28327D01*
X30602Y-28499D01*
X30515Y-28685D01*
X30441Y-28886D01*
X30382Y-29101D01*
X30336Y-29330D01*
X30304Y-29573D01*
X30286Y-29831D01*
X30281Y-30103D01*
X28023Y-27845D01*
X28295Y-27841D01*
X28553Y-27822D01*
X28796Y-27790D01*
X29025Y-27744D01*
X29240Y-27685D01*
X29441Y-27611D01*
X29627Y-27523D01*
X29799Y-27422D01*
X29957Y-27307D01*
X30100Y-27177D01*
X30949Y-28026D01*
D02*
G37*
G36*
X111016Y-41148D02*
X111200Y-41277D01*
X111407Y-41390D01*
X111636Y-41487D01*
X111887Y-41569D01*
X112160Y-41635D01*
X112455Y-41686D01*
X112772Y-41721D01*
X113111Y-41740D01*
X113472Y-41744D01*
X110744Y-44472D01*
X110740Y-44111D01*
X110686Y-43455D01*
X110635Y-43160D01*
X110569Y-42887D01*
X110487Y-42636D01*
X110390Y-42407D01*
X110277Y-42200D01*
X110148Y-42016D01*
X110004Y-41853D01*
X110853Y-41004D01*
X111016Y-41148D01*
D02*
G37*
G36*
X28971Y-55453D02*
X28572Y-55457D01*
X27852Y-55513D01*
X27530Y-55566D01*
X27233Y-55634D01*
X26961Y-55720D01*
X26715Y-55821D01*
X26493Y-55938D01*
X26298Y-56072D01*
X26127Y-56221D01*
X25279Y-55373D01*
X25428Y-55202D01*
X25562Y-55006D01*
X25679Y-54785D01*
X25780Y-54539D01*
X25866Y-54267D01*
X25934Y-53970D01*
X25987Y-53648D01*
X26023Y-53300D01*
X26047Y-52530D01*
X28971Y-55453D01*
D02*
G37*
G36*
X-41274Y-67323D02*
X-40771Y-67749D01*
X-40527Y-67922D01*
X-40287Y-68068D01*
X-40051Y-68187D01*
X-39821Y-68280D01*
X-39595Y-68347D01*
X-39373Y-68387D01*
X-39157Y-68400D01*
Y-69600D01*
X-39373Y-69613D01*
X-39595Y-69653D01*
X-39821Y-69720D01*
X-40051Y-69813D01*
X-40287Y-69932D01*
X-40527Y-70078D01*
X-40771Y-70251D01*
X-41020Y-70451D01*
X-41274Y-70677D01*
X-41532Y-70929D01*
Y-67071D01*
X-41274Y-67323D01*
D02*
G37*
G36*
X-118894Y27746D02*
X-118847Y27256D01*
X-118805Y27056D01*
X-118752Y26888D01*
X-118687Y26750D01*
X-118610Y26642D01*
X-118521Y26566D01*
X-118420Y26520D01*
X-118307Y26504D01*
X-120693D01*
X-120580Y26520D01*
X-120479Y26566D01*
X-120390Y26642D01*
X-120313Y26750D01*
X-120248Y26888D01*
X-120195Y27056D01*
X-120153Y27256D01*
X-120124Y27486D01*
X-120106Y27746D01*
X-120100Y28038D01*
X-118900D01*
X-118894Y27746D01*
D02*
G37*
G36*
X-24642Y80900D02*
X-24933Y81185D01*
X-25494Y81665D01*
X-25764Y81860D01*
X-26027Y82025D01*
X-26283Y82160D01*
X-26533Y82265D01*
X-26775Y82340D01*
X-27011Y82385D01*
X-27239Y82400D01*
Y83600D01*
X-27011Y83615D01*
X-26775Y83660D01*
X-26533Y83735D01*
X-26283Y83840D01*
X-26027Y83975D01*
X-25764Y84140D01*
X-25494Y84335D01*
X-25217Y84560D01*
X-24642Y85100D01*
Y80900D01*
D02*
G37*
G36*
X-113734Y-2148D02*
X-113549Y-2277D01*
X-113343Y-2390D01*
X-113114Y-2487D01*
X-112863Y-2569D01*
X-112590Y-2635D01*
X-112295Y-2685D01*
X-111978Y-2721D01*
X-111639Y-2740D01*
X-111278Y-2744D01*
X-114006Y-5472D01*
X-114010Y-5111D01*
X-114065Y-4455D01*
X-114115Y-4160D01*
X-114181Y-3887D01*
X-114263Y-3636D01*
X-114360Y-3407D01*
X-114473Y-3201D01*
X-114602Y-3016D01*
X-114745Y-2853D01*
X-113897Y-2004D01*
X-113734Y-2148D01*
D02*
G37*
G36*
X-113420Y19480D02*
X-113521Y19434D01*
X-113610Y19358D01*
X-113687Y19250D01*
X-113752Y19112D01*
X-113805Y18944D01*
X-113847Y18744D01*
X-113876Y18514D01*
X-113894Y18254D01*
X-113900Y17962D01*
X-115100D01*
X-115106Y18254D01*
X-115153Y18744D01*
X-115195Y18944D01*
X-115248Y19112D01*
X-115313Y19250D01*
X-115390Y19358D01*
X-115479Y19434D01*
X-115580Y19480D01*
X-115693Y19496D01*
X-113307D01*
X-113420Y19480D01*
D02*
G37*
G36*
X112539Y21800D02*
X112527Y21914D01*
X112490Y22016D01*
X112429Y22106D01*
X112345Y22184D01*
X112236Y22250D01*
X112102Y22304D01*
X111945Y22346D01*
X111763Y22376D01*
X111557Y22394D01*
X111327Y22400D01*
Y23600D01*
X111557Y23606D01*
X111763Y23624D01*
X111945Y23654D01*
X112102Y23696D01*
X112236Y23750D01*
X112345Y23816D01*
X112429Y23894D01*
X112490Y23984D01*
X112527Y24086D01*
X112539Y24200D01*
Y21800D01*
D02*
G37*
G36*
X84510Y24532D02*
X84952Y24163D01*
X85169Y24014D01*
X85384Y23888D01*
X85597Y23784D01*
X85808Y23704D01*
X86017Y23646D01*
X86223Y23611D01*
X86427Y23600D01*
Y22400D01*
X86223Y22388D01*
X86017Y22354D01*
X85808Y22297D01*
X85597Y22216D01*
X85384Y22113D01*
X85169Y21986D01*
X84952Y21836D01*
X84732Y21664D01*
X84510Y21468D01*
X84285Y21250D01*
Y24750D01*
X84510Y24532D01*
D02*
G37*
G36*
X-2530Y20000D02*
X-2937Y19996D01*
X-3673Y19939D01*
X-4002Y19886D01*
X-4304Y19817D01*
X-4581Y19731D01*
X-4832Y19629D01*
X-5056Y19510D01*
X-5255Y19376D01*
X-5427Y19225D01*
X-6276Y20073D01*
X-6124Y20245D01*
X-5990Y20444D01*
X-5871Y20668D01*
X-5769Y20919D01*
X-5683Y21196D01*
X-5614Y21498D01*
X-5561Y21827D01*
X-5524Y22182D01*
X-5500Y22970D01*
X-2530Y20000D01*
D02*
G37*
G36*
X-8725Y85927D02*
X-8876Y85755D01*
X-9010Y85556D01*
X-9129Y85332D01*
X-9231Y85081D01*
X-9317Y84804D01*
X-9386Y84502D01*
X-9439Y84173D01*
X-9476Y83818D01*
X-9500Y83030D01*
X-12470Y86000D01*
X-12063Y86004D01*
X-11327Y86061D01*
X-10998Y86114D01*
X-10696Y86183D01*
X-10419Y86269D01*
X-10168Y86371D01*
X-9944Y86490D01*
X-9745Y86624D01*
X-9573Y86775D01*
X-8725Y85927D01*
D02*
G37*
G36*
X504Y82563D02*
X561Y81827D01*
X614Y81498D01*
X683Y81196D01*
X769Y80919D01*
X871Y80668D01*
X990Y80444D01*
X1124Y80245D01*
X1276Y80073D01*
X427Y79224D01*
X255Y79376D01*
X56Y79510D01*
X-168Y79629D01*
X-419Y79731D01*
X-696Y79817D01*
X-998Y79886D01*
X-1327Y79939D01*
X-1682Y79976D01*
X-2470Y80000D01*
X500Y82970D01*
X504Y82563D01*
D02*
G37*
G36*
X286Y831D02*
X304Y573D01*
X336Y330D01*
X381Y101D01*
X441Y-114D01*
X515Y-315D01*
X603Y-501D01*
X704Y-673D01*
X819Y-831D01*
X949Y-974D01*
X100Y-1823D01*
X-43Y-1693D01*
X-201Y-1578D01*
X-373Y-1476D01*
X-559Y-1389D01*
X-760Y-1315D01*
X-975Y-1256D01*
X-1204Y-1210D01*
X-1447Y-1178D01*
X-1705Y-1159D01*
X-1977Y-1155D01*
X281Y1103D01*
X286Y831D01*
D02*
G37*
G36*
X48610Y4503D02*
X48640Y4310D01*
X48690Y4117D01*
X48759Y3923D01*
X48849Y3729D01*
X48959Y3535D01*
X49088Y3340D01*
X49238Y3146D01*
X49408Y2951D01*
X49597Y2755D01*
X46403D01*
X46592Y2951D01*
X46762Y3146D01*
X46911Y3340D01*
X47041Y3535D01*
X47151Y3729D01*
X47240Y3923D01*
X47310Y4117D01*
X47360Y4310D01*
X47390Y4503D01*
X47400Y4696D01*
X48600D01*
X48610Y4503D01*
D02*
G37*
G36*
X29933Y24815D02*
X30494Y24335D01*
X30764Y24140D01*
X31027Y23975D01*
X31283Y23840D01*
X31532Y23735D01*
X31775Y23660D01*
X32011Y23615D01*
X32239Y23600D01*
Y22400D01*
X32011Y22385D01*
X31775Y22340D01*
X31532Y22265D01*
X31283Y22160D01*
X31027Y22025D01*
X30764Y21860D01*
X30494Y21665D01*
X30217Y21440D01*
X29642Y20900D01*
Y25100D01*
X29933Y24815D01*
D02*
G37*
G36*
X36715Y21250D02*
X36490Y21468D01*
X36048Y21836D01*
X35831Y21986D01*
X35616Y22113D01*
X35403Y22216D01*
X35192Y22297D01*
X34983Y22354D01*
X34777Y22388D01*
X34573Y22400D01*
Y23600D01*
X34777Y23611D01*
X34983Y23646D01*
X35192Y23704D01*
X35403Y23784D01*
X35616Y23888D01*
X35831Y24014D01*
X36048Y24163D01*
X36268Y24336D01*
X36490Y24532D01*
X36715Y24750D01*
Y21250D01*
D02*
G37*
G36*
X-121504Y-42853D02*
X-121648Y-43016D01*
X-121777Y-43200D01*
X-121890Y-43407D01*
X-121987Y-43636D01*
X-122069Y-43887D01*
X-122135Y-44160D01*
X-122186Y-44455D01*
X-122221Y-44772D01*
X-122240Y-45111D01*
X-122244Y-45472D01*
X-124972Y-42744D01*
X-124611Y-42740D01*
X-123955Y-42685D01*
X-123660Y-42635D01*
X-123387Y-42569D01*
X-123136Y-42487D01*
X-122907Y-42390D01*
X-122701Y-42277D01*
X-122516Y-42148D01*
X-122353Y-42004D01*
X-121504Y-42853D01*
D02*
G37*
G36*
X-12023Y-32407D02*
X-12295Y-32412D01*
X-12553Y-32430D01*
X-12796Y-32462D01*
X-13025Y-32508D01*
X-13240Y-32567D01*
X-13441Y-32641D01*
X-13627Y-32728D01*
X-13799Y-32830D01*
X-13957Y-32945D01*
X-14100Y-33075D01*
X-14949Y-32226D01*
X-14819Y-32083D01*
X-14704Y-31925D01*
X-14603Y-31753D01*
X-14515Y-31567D01*
X-14441Y-31366D01*
X-14381Y-31151D01*
X-14336Y-30922D01*
X-14304Y-30679D01*
X-14286Y-30421D01*
X-14281Y-30149D01*
X-12023Y-32407D01*
D02*
G37*
G36*
X7215Y-44750D02*
X6990Y-44532D01*
X6549Y-44164D01*
X6331Y-44014D01*
X6116Y-43887D01*
X5903Y-43784D01*
X5692Y-43703D01*
X5483Y-43646D01*
X5277Y-43611D01*
X5073Y-43600D01*
Y-42400D01*
X5277Y-42388D01*
X5483Y-42354D01*
X5692Y-42296D01*
X5903Y-42216D01*
X6116Y-42112D01*
X6331Y-41986D01*
X6549Y-41837D01*
X6768Y-41664D01*
X6990Y-41469D01*
X7215Y-41250D01*
Y-44750D01*
D02*
G37*
G36*
X-40005Y-49853D02*
X-40148Y-50016D01*
X-40277Y-50200D01*
X-40390Y-50407D01*
X-40487Y-50636D01*
X-40569Y-50887D01*
X-40635Y-51160D01*
X-40685Y-51455D01*
X-40721Y-51772D01*
X-40740Y-52111D01*
X-40744Y-52472D01*
X-43472Y-49744D01*
X-43111Y-49740D01*
X-42455Y-49685D01*
X-42160Y-49635D01*
X-41887Y-49569D01*
X-41636Y-49487D01*
X-41407Y-49390D01*
X-41201Y-49277D01*
X-41016Y-49148D01*
X-40853Y-49005D01*
X-40005Y-49853D01*
D02*
G37*
D10*
X114000Y23000D02*
X114500Y23500D01*
X82500Y23000D02*
X114000D01*
X27500D02*
X38500D01*
X12500Y-69000D02*
X29000Y-52500D01*
X-43500Y-69000D02*
X12500D01*
X-34000Y-43000D02*
X9000D01*
X-43500Y-52500D02*
X-34000Y-43000D01*
X18000Y-30126D02*
X24374Y-36500D01*
X39500D01*
X43000Y-33000D01*
Y-28000D01*
X49500Y-21500D01*
X62500D01*
X85500Y-44500D01*
X83500Y-14500D02*
X113500Y-44500D01*
X43626Y-14500D02*
X83500D01*
X28000Y-30126D02*
X43626Y-14500D01*
X-125000Y-45500D02*
X-118126Y-38626D01*
X-20500D01*
X-12000Y-30126D01*
X-114500Y-2250D02*
X-111250Y-5500D01*
X-114500Y-2250D02*
Y23000D01*
X29000Y74500D02*
X43000Y60500D01*
X6000Y74500D02*
X29000D01*
X-2500Y83000D02*
X6000Y74500D01*
X43000Y-2000D02*
Y60500D01*
X38500Y-6500D02*
X43000Y-2000D01*
X5626Y-6500D02*
X38500D01*
X-2000Y1126D02*
X5626Y-6500D01*
X48000Y1126D02*
Y74000D01*
X31500Y90500D02*
X48000Y74000D01*
X-5000Y90500D02*
X31500D01*
X-12500Y83000D02*
X-5000Y90500D01*
X-22000Y1126D02*
Y3500D01*
X-2500Y23000D01*
X-119500D02*
Y30000D01*
X-66500Y83000D01*
X-22500D01*
X-12000Y1126D02*
X-126Y13000D01*
X7500D01*
X17500Y23000D01*
D11*
X-33000Y-61000D02*
X-24500Y-52500D01*
X-52500Y-61000D02*
X-33000D01*
X-61000Y-52500D02*
X-52500Y-61000D01*
X-83500Y-52500D02*
X-61000D01*
X-108500Y-78500D02*
Y-56500D01*
X-97500Y-45500D01*
X98374Y-70500D02*
X99000D01*
X58000Y-30126D02*
X98374Y-70500D01*
X30000Y-41500D02*
X46626D01*
X19000Y-52500D02*
X30000Y-41500D01*
X-24500Y-52500D02*
X-8500D01*
X19000D01*
X-90500D02*
X-83500D01*
X-97500Y-45500D02*
X-90500Y-52500D01*
X46626Y-41500D02*
X58000Y-30126D01*
D12*
X-22500Y83000D02*
D03*
X-12500D02*
D03*
X-2500D02*
D03*
X7500D02*
D03*
X17500D02*
D03*
X27500D02*
D03*
Y23000D02*
D03*
X17500D02*
D03*
X7500D02*
D03*
X-2500D02*
D03*
X-12500D02*
D03*
D13*
X-22500D02*
D03*
D14*
X89000Y-70500D02*
D03*
X99000D02*
D03*
X-24500Y-52500D02*
D03*
Y-62500D02*
D03*
X-8500Y-52500D02*
D03*
Y-62500D02*
D03*
D15*
X109000Y-70500D02*
D03*
D16*
X-32000Y-30126D02*
D03*
D17*
X-22000D02*
D03*
X-12000D02*
D03*
X-2000D02*
D03*
X8000D02*
D03*
X18000D02*
D03*
X28000D02*
D03*
X38000D02*
D03*
X48000D02*
D03*
X58000D02*
D03*
Y1126D02*
D03*
X48000D02*
D03*
X38000D02*
D03*
X28000D02*
D03*
X18000D02*
D03*
X8000D02*
D03*
X-2000D02*
D03*
X-12000D02*
D03*
X-22000D02*
D03*
X-32000D02*
D03*
D18*
X-109500Y54000D02*
D03*
Y23000D02*
D03*
X124500Y57500D02*
D03*
Y23500D02*
D03*
D19*
X-114500Y54000D02*
D03*
X-119500D02*
D03*
X-114500Y23000D02*
D03*
X-119500D02*
D03*
X119500Y57500D02*
D03*
X114500D02*
D03*
X119500Y23500D02*
D03*
X114500D02*
D03*
D20*
X-125000Y-5500D02*
D03*
Y-45500D02*
D03*
X-111250Y-5500D02*
D03*
Y-45500D02*
D03*
X-97500Y-5500D02*
D03*
Y-45500D02*
D03*
X85500Y-4500D02*
D03*
Y-44500D02*
D03*
X99500Y-4500D02*
D03*
Y-44500D02*
D03*
X113500Y-4500D02*
D03*
Y-44500D02*
D03*
X-43500Y-69000D02*
D03*
X-83500D02*
D03*
Y-52500D02*
D03*
X-43500D02*
D03*
D21*
X-65500Y-10657D02*
D03*
D22*
Y-30343D02*
D03*
D23*
X49000Y-52500D02*
D03*
D24*
X39000D02*
D03*
X29000D02*
D03*
X19000D02*
D03*
X49000Y-82500D02*
D03*
X39000D02*
D03*
X29000D02*
D03*
X19000D02*
D03*
D25*
X-22102Y-80000D02*
D03*
X-9898D02*
D03*
D26*
X-118500Y-78500D02*
D03*
X-108500D02*
D03*
D27*
X-98500D02*
D03*
D28*
X82500Y23000D02*
D03*
X38500D02*
D03*
X9000Y-43000D02*
D03*
M02*
