M48
;Layer_Color=9474304
;FILE_FORMAT=2:5
INCH,TZ
;TYPE=PLATED
T1F00S00C0.02756
T2F00S00C0.02800
T3F00S00C0.02988
T4F00S00C0.03000
T5F00S00C0.03150
T6F00S00C0.03346
T7F00S00C0.03543
%
T01
X99000Y-70500
X109000
X89000
X-8500Y-62500
Y-52500
X-24500
Y-62500
X-22102Y-80000
X-9898
T02
X9000Y-43000
X38500Y23000
X82500
T03
X-32000Y-30126
X-22000
X-12000
X-2000
X8000
X18000
X28000
X38000
X48000
X58000
Y1126
X48000
X38000
X28000
X18000
X8000
X-2000
X-12000
X-22000
X-32000
T04
X-22500Y23000
X-12500
X-2500
X7500
X17500
X27500
Y83000
X17500
X7500
X-2500
X-12500
X-22500
T05
X-65500Y-30343
Y-10657
T06
X99500Y-44500
X113500
Y-4500
X99500
X85500
Y-44500
X-43500Y-52500
Y-69000
X-83500
Y-52500
X-97500Y-45500
X-111250
X-125000
Y-5500
X-111250
X-97500
T07
X19000Y-82500
X29000
X39000
X49000
Y-52500
X39000
X29000
X19000
X-98500Y-78500
X-108500
X-118500
X-119500Y23000
X-114500
X-109500
Y54000
X-114500
X-119500
X114500Y57500
X119500
X124500
Y23500
X119500
X114500
M30
